<?xml version="1.0" standalone="no"?>
<!DOCTYPE svg PUBLIC "-//W3C//DTD SVG 1.1//EN" "http://www.w3.org/Graphics/SVG/1.1/DTD/svg11.dtd" >
<svg>
<metadata>
Created by FontForge 20090914 at Fri May  5 23:52:33 2017
 By www-data
Copyright (c) 1989, 1995 Adobe Systems Incorporated.  All Rights Reserved.
</metadata>
<defs>
<font id="VAGRounded-Thin" horiz-adv-x="204" >
  <font-face 
    font-family="VAG Rounded"
    font-weight="100"
    font-stretch="normal"
    units-per-em="1000"
    panose-1="2 0 3 3 3 0 0 2 0 4"
    ascent="800"
    descent="-200"
    x-height="532.001"
    cap-height="718"
    bbox="-108 -288 1053 921.999"
    underline-thickness="50"
    underline-position="-75"
    unicode-range="U+0001-U+2122"
  />
<missing-glyph horiz-adv-x="240" 
 />
    <glyph glyph-name=".notdef" horiz-adv-x="240" 
 />
    <glyph glyph-name="Eth" horiz-adv-x="630" 
d="M138 646l144.001 0.00390625c42.667 0 78.667 -8.33301 108 -25s53 -38.334 71 -65.001s31 -56.834 39 -90.501s12 -67.5 12 -101.5c0 -42 -4 -81 -12 -117s-21.333 -67.5 -40 -94.5s-42.834 -48.167 -72.501 -63.5s-66.167 -23 -109.5 -23h-140v260h141
c11.333 0 20.666 3.16699 27.999 9.5s11 14.166 11 23.499s-3.66699 17.166 -11 23.499s-16.666 9.5 -27.999 9.5h-141v254zM66.001 36.0039c0 -10 3.50098 -18.501 10.501 -25.501s15.5 -10.5 25.5 -10.5h180c43.333 0 83.666 8 120.999 24s69.833 39.167 97.5 69.5
s49.5 67.166 65.5 110.499s24 92.333 24 147c0 41.333 -5.66699 83.5 -17 126.5s-29 81.833 -53 116.5s-55.167 63 -93.5 85s-84.5 33 -138.5 33h-186c-10 0 -18.5 -3.5 -25.5 -10.5s-10.5 -15.5 -10.5 -25.5v-284h-28c-11.333 0 -20.666 -3.16699 -27.999 -9.5
s-11 -14.166 -11 -23.499s3.66699 -17.166 11 -23.499s16.666 -9.5 27.999 -9.5h28v-290z" />
    <glyph glyph-name="eth" horiz-adv-x="536" 
d="M268 -6c22.667 0 47.3311 4.1709 73.998 12.5039s51.5 23.666 74.5 45.999s42.167 53.166 57.5 92.499s23 89.666 23 150.999c0 76.667 -13.333 147.5 -40 212.5s-68.334 121.5 -125.001 169.5l79 39c6 3.33301 9.83301 6.66602 11.5 9.99902s2.5 7 2.5 11
c0 6.66699 -1.83301 12.334 -5.5 17.001s-9.16699 7 -16.5 7c-2 0 -4.83301 -0.5 -8.5 -1.5s-9.16699 -3.16699 -16.5 -6.5l-85 -42l-31.5 20.5c-11 7 -22.167 13.5 -33.5 19.5s-22.333 10.833 -33 14.5s-20.334 5.5 -29.001 5.5c-10.667 0 -18.667 -3.16699 -24 -9.5
s-8 -12.833 -8 -19.5s3 -12.167 9 -16.5s13.833 -8.33301 23.5 -12s20.334 -8 32.001 -13s22.834 -11.833 33.501 -20.5l-84 -43c-6.66699 -3.33301 -11.667 -7 -15 -11s-5 -9 -5 -15c0 -5.33301 1.66699 -10.5 5 -15.5s8.33301 -7.5 15 -7.5c3.33301 0 6.5 0.5 9.5 1.5
s7.83301 3.16699 14.5 6.5l96 48c30 -23.333 56.5 -50.333 79.5 -81s40.833 -63 53.5 -97l-2 -2c-15.333 22.667 -35.166 39.5 -59.499 50.5s-48.166 16.5 -71.499 16.5c-38 0 -71.333 -8 -100 -24s-52.5 -36.833 -71.5 -62.5s-33.333 -54.667 -43 -87
s-14.5 -64.5 -14.5 -96.5s4.83301 -63.833 14.5 -95.5s24 -60.334 43 -86.001s42.833 -46.5 71.5 -62.5s62 -24 100 -24zM116.997 262.004c0 24 2.66699 48.333 8 73s14 47.167 26 67.5s27.667 37 47 50s42.666 19.5 69.999 19.5c27.333 -0.666992 50.666 -7.5 69.999 -20.5
s35 -29.5 47 -49.5s20.667 -42.333 26 -67s8 -49 8 -73c0 -23.333 -2.66699 -47.333 -8 -72s-14 -47 -26 -67s-27.667 -36.5 -47 -49.5s-42.666 -19.5 -69.999 -19.5s-50.666 6.5 -69.999 19.5s-35 29.5 -47 49.5s-20.667 42.333 -26 67s-8 48.667 -8 72z" />
    <glyph glyph-name="Lslash" horiz-adv-x="370" 
d="M138 349l108 63.0029c7.33301 4.66699 12.833 9.16699 16.5 13.5s5.5 10.5 5.5 18.5c0 7.33301 -2.33301 14.166 -7 20.499s-11 9.5 -19 9.5c-6 0 -13.333 -2.66699 -22 -8l-82 -48v254c0 30.667 -12 46 -36 46s-36 -15.333 -36 -46v-296l-68 -40
c-13.333 -7.33301 -20 -18.333 -20 -33c0 -5.33301 1.66699 -11.333 5 -18s10.333 -10 21 -10c2.66699 0 5.66699 0.666992 9 2l10 4l43 26v-271c0 -10 3.5 -18.5 10.5 -25.5s15.5 -10.5 25.5 -10.5h224c11.333 0 20.5 3.16699 27.5 9.5s10.5 14.166 10.5 23.499
s-3.5 17.166 -10.5 23.499s-16.167 9.5 -27.5 9.5h-188v283z" />
    <glyph glyph-name="lslash" 
d="M138 383l59 47.999c8.66699 7.33301 15 13.5 19 18.5s6 10.5 6 16.5c0 8.66699 -2.5 15.167 -7.5 19.5s-11.5 6.5 -19.5 6.5c-7.33301 0 -13.333 -1.16699 -18 -3.5s-9 -5.16602 -13 -8.49902l-26 -22v268c0 30.667 -12 46 -36 46s-36 -15.333 -36 -46v-329l-59 -49
c-7.33301 -6 -13.166 -11.667 -17.499 -17s-6.5 -11.333 -6.5 -18s2.16699 -12.5 6.5 -17.5s11.166 -7.5 20.499 -7.5c8 0 16.667 3.66699 26 11l30 25v-284c0 -30.667 12 -46 36 -46s36 15.333 36 46v343z" />
    <glyph glyph-name="Scaron" horiz-adv-x="462" 
d="M216 -6c34 0 64.9961 5.66992 92.9961 17.0029s51.833 27.166 71.5 47.499s34.834 44.333 45.501 72s16 57.5 16 89.5c0 38 -8.33301 68.667 -25 92s-37.5 42.5 -62.5 57.5s-52.167 27.5 -81.5 37.5s-56.5 20.5 -81.5 31.5s-45.833 24.333 -62.5 40s-25 36.5 -25 62.5
c0 14.667 3.16699 28.667 9.5 42s15.333 25.166 27 35.499s25.334 18.5 41.001 24.5s32.834 9 51.501 9c19.333 0 35.5 -2.66699 48.5 -8s24.5 -11 34.5 -17l27.5 -17c8.33301 -5.33301 17.166 -8 26.499 -8c6.66699 0 13.334 3.5 20.001 10.5s10 16.167 10 27.5
c0 8.66699 -4.83301 17.5 -14.5 26.5s-22.167 17.333 -37.5 25s-32.666 14 -51.999 19s-38.666 7.5 -57.999 7.5c-26.667 -0.666992 -52.5 -5.16699 -77.5 -13.5s-47 -20.166 -66 -35.499s-34.167 -34.166 -45.5 -56.499s-17 -47.833 -17 -76.5c0 -36 8.33301 -65 25 -87
s37.5 -40.167 62.5 -54.5s52.167 -26.333 81.5 -36s56.5 -20.334 81.5 -32.001s45.833 -26 62.5 -43s25 -39.833 25 -68.5c0 -18.667 -3.83301 -37.334 -11.5 -56.001s-18.667 -35.334 -33 -50.001s-31.5 -26.5 -51.5 -35.5s-42.667 -13.5 -68 -13.5
c-12.667 0 -25.667 1.66699 -39 5s-25.5 7 -36.5 11s-20.333 8 -28 12s-12.5 7 -14.5 9c-4 3.33301 -9.66699 7 -17 11s-13 6 -17 6c-9.33301 0 -17.333 -3.5 -24 -10.5s-10 -15.167 -10 -24.5c0 -10 4.66699 -20 14 -30s22.5 -19 39.5 -27s37.667 -14.667 62 -20
s51.166 -8 80.499 -8zM230.996 758.003l126.994 49c14 5.33301 22.333 11.5 25 18.5s4 13.167 4 18.5c0 7.33301 -2.66699 14.166 -8 20.499s-12.666 9.5 -21.999 9.5c-5.33301 0 -10.166 -0.5 -14.499 -1.5s-8.16602 -2.16699 -11.499 -3.5l-100 -45l-100 45
c-3.33301 1.33301 -7.16602 2.5 -11.499 3.5s-9.16602 1.5 -14.499 1.5c-9.33301 0 -16.666 -3.16699 -21.999 -9.5s-8 -13.166 -8 -20.499c0 -5.33301 1.33301 -11.5 4 -18.5s11 -13.167 25 -18.5z" />
    <glyph glyph-name="scaron" horiz-adv-x="444" 
d="M211 538c-20 0 -40 -3.16406 -60 -9.49707s-38 -15.5 -54 -27.5s-28.833 -26.667 -38.5 -44s-14.5 -37 -14.5 -59c0 -33.333 8.66699 -58.833 26 -76.5s39.666 -32.167 66.999 -43.5l124 -51c10 -4 19.333 -8.33301 28 -13s16.5 -10.167 23.5 -16.5
s12.5 -13.666 16.5 -21.999s6 -18.5 6 -30.5c0 -25.333 -10.5 -46.833 -31.5 -64.5s-48.833 -26.5 -83.5 -26.5c-23.333 0 -43.333 4 -60 12s-31 16.667 -43 26s-22.5 18 -31.5 26s-17.833 12 -26.5 12s-16.5 -4.5 -23.5 -13.5s-10.5 -16.167 -10.5 -21.5
c0 -8.66699 4.5 -18.667 13.5 -30s22 -22.333 39 -33s37.333 -19.667 61 -27s49.834 -11 78.501 -11c28 0 54 3.66699 78 11s44.667 17.666 62 30.999s31 29.5 41 48.5s15 40.167 15 63.5c0 21.333 -3.5 39.5 -10.5 54.5s-16.667 28.333 -29 40s-26.5 21.667 -42.5 30
s-33 16.166 -51 23.499l-109 44c-18 7.33301 -30.667 16.666 -38 27.999s-11 23 -11 35c0 12.667 3 23.667 9 33s14 17.166 24 23.499s21.167 11 33.5 14s24.833 4.5 37.5 4.5c18 0 34 -3 48 -9s26.333 -12.5 37 -19.5l29 -19.5c8.66699 -6 16.334 -9 23.001 -9
c15.333 0 25.166 3.83301 29.499 11.5s6.5 15.5 6.5 23.5c0.666992 9.33301 -4 18.833 -14 28.5s-23.5 18.5 -40.5 26.5s-37 14.5 -60 19.5s-47.5 7.5 -73.5 7.5zM222 598.003l126.994 49c14 5.33301 22.333 11.5 25 18.5s4 13.167 4 18.5
c0 7.33301 -2.66699 14.166 -8 20.499s-12.666 9.5 -21.999 9.5c-5.33301 0 -10.166 -0.5 -14.499 -1.5s-8.16602 -2.16699 -11.499 -3.5l-100 -45l-100 45c-3.33301 1.33301 -7.16602 2.5 -11.499 3.5s-9.16602 1.5 -14.499 1.5c-9.33301 0 -16.666 -3.16699 -21.999 -9.5
s-8 -13.166 -8 -20.499c0 -5.33301 1.33301 -11.5 4 -18.5s11 -13.167 25 -18.5z" />
    <glyph glyph-name="Yacute" horiz-adv-x="482" 
d="M241 407l-173.998 290c-4.66699 8 -9.83398 13.5 -15.501 16.5s-12.5 4.5 -20.5 4.5c-10 0 -17.5 -2.83301 -22.5 -8.5s-7.5 -12.167 -7.5 -19.5c0 -4.66699 1.33301 -10.334 4 -17.001s8.66699 -17.667 18 -33l182 -303v-297c0 -30.667 12 -46 36 -46s36 15.333 36 46
v297l182 303c9.33301 15.333 15.333 26.333 18 33s4 12.334 4 17.001c0 7.33301 -2.5 13.833 -7.5 19.5s-12.5 8.5 -22.5 8.5c-8 0 -14.833 -1.5 -20.5 -4.5s-10.834 -8.5 -15.501 -16.5zM159.002 829c-14 -5.33301 -22.167 -10.833 -24.5 -16.5s-3.5 -11.167 -3.5 -16.5
c0 -7.33301 2.5 -14.833 7.5 -22.5s11.833 -11.5 20.5 -11.5c3.33301 0 7 0.333008 11 1s9 2.33398 15 5.00098l138 53c14 5.33301 22.167 10.833 24.5 16.5s3.5 11.167 3.5 16.5c0 7.33301 -2.5 14.833 -7.5 22.5s-11.833 11.5 -20.5 11.5c-3.33301 0 -7 -0.333008 -11 -1
s-9 -2.33398 -15 -5.00098z" />
    <glyph glyph-name="yacute" horiz-adv-x="426" 
d="M179 14l-64.999 -171.001c-4 -10 -6 -19.667 -6 -29c0 -7.33301 2.66699 -14.166 8 -20.499s13.666 -9.5 24.999 -9.5c10 0 18 3 24 9s11 15 15 27l230 664c2.66699 7.33301 4 14.333 4 21c0 8.66699 -3 16.334 -9 23.001s-14 10 -24 10s-18 -2.83301 -24 -8.5
s-10.667 -13.834 -14 -24.501l-129 -386h-2l-129 386c-3.33301 10.667 -8 18.834 -14 24.501s-14 8.5 -24 8.5s-18 -3.33301 -24 -10s-9 -14.334 -9 -23.001c0 -6.66699 1.33301 -13.667 4 -21zM131.001 668.999c-14 -5.33301 -22.167 -10.833 -24.5 -16.5
s-3.5 -11.167 -3.5 -16.5c0 -7.33301 2.5 -14.833 7.5 -22.5s11.833 -11.5 20.5 -11.5c3.33301 0 7 0.333008 11 1s9 2.33398 15 5.00098l138 53c14 5.33301 22.167 10.833 24.5 16.5s3.5 11.167 3.5 16.5c0 7.33301 -2.5 14.833 -7.5 22.5s-11.833 11.5 -20.5 11.5
c-3.33301 0 -7 -0.333008 -11 -1s-9 -2.33398 -15 -5.00098z" />
    <glyph glyph-name="Thorn" horiz-adv-x="519" 
d="M138 150l125.999 0.000976562c41.333 0 76.833 6.16699 106.5 18.5s54.334 29 74.001 50s34.167 45.167 43.5 72.5s14 55.666 14 84.999c0 22 -3.83301 45.5 -11.5 70.5s-20.167 48.167 -37.5 69.5s-40 39 -68 53s-62.333 21 -103 21h-144v82c0 30.667 -12 46 -36 46
s-36 -15.333 -36 -46v-632c0 -30.667 12 -46 36 -46s36 15.333 36 46v110zM137.999 524.001h132c28.667 0 53 -4.66699 73 -14s36.5 -21.333 49.5 -36s22.5 -31.167 28.5 -49.5s9 -36.5 9 -54.5s-3 -36.167 -9 -54.5s-15.5 -34.833 -28.5 -49.5s-29.5 -26.667 -49.5 -36
s-44.333 -14 -73 -14h-132v308z" />
    <glyph glyph-name="thorn" horiz-adv-x="556" 
d="M66 -170c0 -30.667 12 -46.0039 36 -46.0039s36 15.333 36 46v243h3c20.667 -26.667 43.334 -46.5 68.001 -59.5s51 -19.5 79 -19.5c37.333 0 70.333 7.83301 99 23.5s52.667 36.334 72 62.001s33.833 54.834 43.5 87.501s14.5 65.667 14.5 99s-4.83301 66.333 -14.5 99
s-24.167 61.834 -43.5 87.501s-43.333 46.334 -72 62.001s-61.667 23.5 -99 23.5c-28 0 -54.333 -6.5 -79 -19.5s-47.334 -32.833 -68.001 -59.5h-3v267c0 30.667 -12 46 -36 46s-36 -15.333 -36 -46v-896zM137 265.996c0 24 2.66699 48.667 8 74s13.833 48.166 25.5 68.499
s27.167 37 46.5 50s43 19.5 71 19.5s51.667 -6.5 71 -19.5s34.833 -29.667 46.5 -50s20.167 -43.166 25.5 -68.499s8 -50 8 -74s-2.66699 -48.667 -8 -74s-13.833 -48.166 -25.5 -68.499s-27.167 -37 -46.5 -50s-43 -19.5 -71 -19.5s-51.667 6.5 -71 19.5
s-34.833 29.667 -46.5 50s-20.167 43.166 -25.5 68.499s-8 50 -8 74z" />
    <glyph glyph-name="Zcaron" horiz-adv-x="556" 
d="M118 66l382.999 582.997c9.33301 13.333 14 25.333 14 36c0 6.66699 -2.5 12.834 -7.5 18.501s-13.833 8.5 -26.5 8.5h-401c-11.333 0 -20.5 -3.16699 -27.5 -9.5s-10.5 -14.166 -10.5 -23.499s3.5 -17.166 10.5 -23.499s16.167 -9.5 27.5 -9.5h334l-357 -544
c-10 -15.333 -17.333 -27.666 -22 -36.999s-7 -17.666 -7 -24.999c0 -11.333 4.83301 -20.833 14.5 -28.5s24.834 -11.5 45.501 -11.5h402c11.333 0 20.5 3.16699 27.5 9.5s10.5 14.166 10.5 23.499s-3.5 17.166 -10.5 23.499s-16.167 9.5 -27.5 9.5h-372zM277.999 757.997
l126.994 49c14 5.33301 22.333 11.5 25 18.5s4 13.167 4 18.5c0 7.33301 -2.66699 14.166 -8 20.499s-12.666 9.5 -21.999 9.5c-5.33301 0 -10.166 -0.5 -14.499 -1.5s-8.16602 -2.16699 -11.499 -3.5l-100 -45l-100 45c-3.33301 1.33301 -7.16602 2.5 -11.499 3.5
s-9.16602 1.5 -14.499 1.5c-9.33301 0 -16.666 -3.16699 -21.999 -9.5s-8 -13.166 -8 -20.499c0 -5.33301 1.33301 -11.5 4 -18.5s11 -13.167 25 -18.5z" />
    <glyph glyph-name="zcaron" horiz-adv-x="444" 
d="M388 461c5.33301 8 9.33301 15.168 12 21.501s4 13.833 4 22.5c0 8 -3 14.5 -9 19.5s-16.333 7.5 -31 7.5h-287c-11.333 0 -20.5 -3.16699 -27.5 -9.5s-10.5 -14.166 -10.5 -23.499s3.5 -17.166 10.5 -23.499s16.167 -9.5 27.5 -9.5h234l-267 -395
c-5.33301 -8 -9.33301 -14.833 -12 -20.5s-4 -12.834 -4 -21.501c0 -5.33301 2.5 -11.5 7.5 -18.5s16.5 -10.5 34.5 -10.5h309c11.333 0 20.5 3.16699 27.5 9.5s10.5 14.166 10.5 23.499s-3.5 17.166 -10.5 23.499s-16.167 9.5 -27.5 9.5h-258zM222 598.001l126.994 49
c14 5.33301 22.333 11.5 25 18.5s4 13.167 4 18.5c0 7.33301 -2.66699 14.166 -8 20.499s-12.666 9.5 -21.999 9.5c-5.33301 0 -10.166 -0.5 -14.499 -1.5s-8.16602 -2.16699 -11.499 -3.5l-100 -45l-100 45c-3.33301 1.33301 -7.16602 2.5 -11.499 3.5
s-9.16602 1.5 -14.499 1.5c-9.33301 0 -16.666 -3.16699 -21.999 -9.5s-8 -13.166 -8 -20.499c0 -5.33301 1.33301 -11.5 4 -18.5s11 -13.167 25 -18.5z" />
    <glyph glyph-name="onehalf" horiz-adv-x="805" 
d="M192 38c-3.33301 -7.33301 -5.66602 -13.333 -6.99902 -18s-2 -9 -2 -13c0 -6.66699 2.5 -12.167 7.5 -16.5s11.833 -6.5 20.5 -6.5s15.167 2.33301 19.5 7s8.16602 10.667 11.499 18l260 665c3.33301 7.33301 5.66602 13.333 6.99902 18s2 9 2 13
c0 6.66699 -2.5 12.167 -7.5 16.5s-11.833 6.5 -20.5 6.5s-15.167 -2.33301 -19.5 -7s-8.16602 -10.667 -11.499 -18zM126 658l0.00292969 -343.002c0 -10 2.66699 -17.5 8 -22.5s12.666 -7.5 21.999 -7.5s16.666 2.5 21.999 7.5s8 12.5 8 22.5v373
c0 6 -2.33301 11.5 -7 16.5s-11.334 7.5 -20.001 7.5h-89c-8.66699 0 -15.334 -2.66699 -20.001 -8s-7 -11.666 -7 -18.999s2.33301 -13.666 7 -18.999s11.334 -8 20.001 -8h56zM538.003 53.998l133.004 173.006c14.667 19.333 25.667 36.666 33 51.999s11 31.666 11 48.999
c0 26 -10.5 49 -31.5 69s-54.5 30 -100.5 30c-44.667 0 -78.834 -12.333 -102.501 -37s-35.5 -56.334 -35.5 -95.001c0 -8 2.66699 -14.333 8 -19s12 -7 20 -7c9.33301 0 16.666 1.83301 21.999 5.5s8.66602 10.5 9.99902 20.5c3.33301 23.333 11.166 42.166 23.499 56.499
s30.5 21.5 54.5 21.5c18 0 33.5 -4.5 46.5 -13.5s19.5 -21.5 19.5 -37.5c0 -20.667 -13.333 -48.667 -40 -84l-138 -188c-8 -10.667 -12 -20.334 -12 -29.001c0 -5.33301 2.33301 -10.166 7 -14.499s11.667 -6.5 21 -6.5h213c7.33301 0 13.333 2.66699 18 8
s7 11.666 7 18.999s-2.33301 13.666 -7 18.999s-10.667 8 -18 8h-162z" />
    <glyph glyph-name="onequarter" horiz-adv-x="805" 
d="M192 38c-3.33301 -7.33301 -5.66602 -13.333 -6.99902 -18s-2 -9 -2 -13c0 -6.66699 2.5 -12.167 7.5 -16.5s11.833 -6.5 20.5 -6.5s15.167 2.33301 19.5 7s8.16602 10.667 11.499 18l260 665c3.33301 7.33301 5.66602 13.333 6.99902 18s2 9 2 13
c0 6.66699 -2.5 12.167 -7.5 16.5s-11.833 6.5 -20.5 6.5s-15.167 -2.33301 -19.5 -7s-8.16602 -10.667 -11.499 -18zM126 658l0.00292969 -343.002c0 -10 2.66699 -17.5 8 -22.5s12.666 -7.5 21.999 -7.5s16.666 2.5 21.999 7.5s8 12.5 8 22.5v373
c0 6 -2.33301 11.5 -7 16.5s-11.334 7.5 -20.001 7.5h-89c-8.66699 0 -15.334 -2.66699 -20.001 -8s-7 -11.666 -7 -18.999s2.33301 -13.666 7 -18.999s11.334 -8 20.001 -8h56zM701.003 100.998h22c7.33301 0 13.333 2.5 18 7.5s7 11.5 7 19.5s-2.33301 14.5 -7 19.5
s-10.667 7.5 -18 7.5h-22v227c0 16 -4.16699 27.5 -12.5 34.5s-18.833 10.5 -31.5 10.5c-10 0 -20.167 -2.33301 -30.5 -7s-19.166 -12.667 -26.499 -24l-150 -236c-4.66699 -7.33301 -8.16699 -13.5 -10.5 -18.5s-3.5 -10.167 -3.5 -15.5c0 -6.66699 2 -12.5 6 -17.5
s11.667 -7.5 23 -7.5h176v-79c0 -7.33301 2.66699 -13.833 8 -19.5s12.666 -8.5 21.999 -8.5c10 0 17.5 2.83301 22.5 8.5s7.5 12.167 7.5 19.5v79zM641.003 154.998h-142l140 224h2v-224z" />
    <glyph glyph-name="onesuperior" horiz-adv-x="229" 
d="M100 658l0.00292969 -343.002c0 -10 2.66699 -17.5 8 -22.5s12.666 -7.5 21.999 -7.5s16.666 2.5 21.999 7.5s8 12.5 8 22.5v373c0 6 -2.33301 11.5 -7 16.5s-11.334 7.5 -20.001 7.5h-89c-8.66699 0 -15.334 -2.66699 -20.001 -8s-7 -11.666 -7 -18.999
s2.33301 -13.666 7 -18.999s11.334 -8 20.001 -8h56z" />
    <glyph glyph-name="threequarters" horiz-adv-x="805" 
d="M242 38c-3.33301 -7.33301 -5.66602 -13.333 -6.99902 -18s-2 -9 -2 -13c0 -6.66699 2.5 -12.167 7.5 -16.5s11.833 -6.5 20.5 -6.5s15.167 2.33301 19.5 7s8.16602 10.667 11.499 18l260 665c3.33301 7.33301 5.66602 13.333 6.99902 18s2 9 2 13
c0 6.66699 -2.5 12.167 -7.5 16.5s-11.833 6.5 -20.5 6.5s-15.167 -2.33301 -19.5 -7s-8.16602 -10.667 -11.499 -18zM269 611c0 14 -2.16992 27.3252 -6.50293 39.9922s-11.166 24 -20.499 34s-21.666 18 -36.999 24s-34 9 -56 9c-20 0 -37.333 -3.16699 -52 -9.5
s-26.667 -14.333 -36 -24s-16.333 -20.5 -21 -32.5s-7 -23.667 -7 -35c0 -9.33301 2.83301 -16.333 8.5 -21s12.167 -7 19.5 -7c9.33301 0 16.833 2.16699 22.5 6.5s8.83398 11.5 9.50098 21.5c1.33301 14 6.66602 25.333 15.999 34s21.666 13 36.999 13
c20 0 34.5 -5.66699 43.5 -17s13.5 -26.666 13.5 -45.999c0 -14 -2.5 -27.667 -7.5 -41s-15.5 -22 -31.5 -26c-11.333 -3.33301 -20 -6.66602 -26 -9.99902s-9 -9.66602 -9 -18.999c0 -5.33301 2 -10 6 -14s12 -6.66699 24 -8
c20.667 -1.33301 37.334 -7.16602 50.001 -17.499s19 -25.833 19 -46.5c0 -25.333 -7.66699 -45 -23 -59s-33.333 -21 -54 -21c-25.333 0 -42.833 4 -52.5 12s-16.167 16.333 -19.5 25c-5.33301 12.667 -11 20.334 -17 23.001s-12 4 -18 4
c-7.33301 0 -13.833 -2.16699 -19.5 -6.5s-8.5 -11.166 -8.5 -20.499c0 -8 2.5 -17.167 7.5 -27.5s13 -20.333 24 -30s24.833 -17.667 41.5 -24s37 -9.5 61 -9.5c48 0 84 12.167 108 36.5s36 55.833 36 94.5c0 26.667 -7.16699 48.334 -21.5 65.001
s-33.166 29.334 -56.499 38.001c16.667 8.66699 29.667 21 39 37s14 34.333 14 55zM700.997 100.992h22c7.33301 0 13.333 2.5 18 7.5s7 11.5 7 19.5s-2.33301 14.5 -7 19.5s-10.667 7.5 -18 7.5h-22v227c0 16 -4.16699 27.5 -12.5 34.5s-18.833 10.5 -31.5 10.5
c-10 0 -20.167 -2.33301 -30.5 -7s-19.166 -12.667 -26.499 -24l-150 -236c-4.66699 -7.33301 -8.16699 -13.5 -10.5 -18.5s-3.5 -10.167 -3.5 -15.5c0 -6.66699 2 -12.5 6 -17.5s11.667 -7.5 23 -7.5h176v-79c0 -7.33301 2.66699 -13.833 8 -19.5s12.666 -8.5 21.999 -8.5
c10 0 17.5 2.83301 22.5 8.5s7.5 12.167 7.5 19.5v79zM640.997 154.992h-142l140 224h2v-224z" />
    <glyph glyph-name="threesuperior" horiz-adv-x="348" 
d="M288 611c0 14 -2.16992 27.3252 -6.50293 39.9922s-11.166 24 -20.499 34s-21.666 18 -36.999 24s-34 9 -56 9c-20 0 -37.333 -3.16699 -52 -9.5s-26.667 -14.333 -36 -24s-16.333 -20.5 -21 -32.5s-7 -23.667 -7 -35c0 -9.33301 2.83301 -16.333 8.5 -21
s12.167 -7 19.5 -7c9.33301 0 16.833 2.16699 22.5 6.5s8.83398 11.5 9.50098 21.5c1.33301 14 6.66602 25.333 15.999 34s21.666 13 36.999 13c20 0 34.5 -5.66699 43.5 -17s13.5 -26.666 13.5 -45.999c0 -14 -2.5 -27.667 -7.5 -41s-15.5 -22 -31.5 -26
c-11.333 -3.33301 -20 -6.66602 -26 -9.99902s-9 -9.66602 -9 -18.999c0 -5.33301 2 -10 6 -14s12 -6.66699 24 -8c20.667 -1.33301 37.334 -7.16602 50.001 -17.499s19 -25.833 19 -46.5c0 -25.333 -7.66699 -45 -23 -59s-33.333 -21 -54 -21c-25.333 0 -42.833 4 -52.5 12
s-16.167 16.333 -19.5 25c-5.33301 12.667 -11 20.334 -17 23.001s-12 4 -18 4c-7.33301 0 -13.833 -2.16699 -19.5 -6.5s-8.5 -11.166 -8.5 -20.499c0 -8 2.5 -17.167 7.5 -27.5s13 -20.333 24 -30s24.833 -17.667 41.5 -24s37 -9.5 61 -9.5c48 0 84 12.167 108 36.5
s36 55.833 36 94.5c0 26.667 -7.16699 48.334 -21.5 65.001s-33.166 29.334 -56.499 38.001c16.667 8.66699 29.667 21 39 37s14 34.333 14 55z" />
    <glyph glyph-name="twosuperior" horiz-adv-x="348" 
d="M127 345l133.004 173.006c14.667 19.333 25.667 36.666 33 51.999s11 31.666 11 48.999c0 26 -10.5 49 -31.5 69s-54.5 30 -100.5 30c-44.667 0 -78.834 -12.333 -102.501 -37s-35.5 -56.334 -35.5 -95.001c0 -8 2.66699 -14.333 8 -19s12 -7 20 -7
c9.33301 0 16.666 1.83301 21.999 5.5s8.66602 10.5 9.99902 20.5c3.33301 23.333 11.166 42.166 23.499 56.499s30.5 21.5 54.5 21.5c18 0 33.5 -4.5 46.5 -13.5s19.5 -21.5 19.5 -37.5c0 -20.667 -13.333 -48.667 -40 -84l-138 -188c-8 -10.667 -12 -20.334 -12 -29.001
c0 -5.33301 2.33301 -10.166 7 -14.499s11.667 -6.5 21 -6.5h213c7.33301 0 13.333 2.66699 18 8s7 11.666 7 18.999s-2.33301 13.666 -7 18.999s-10.667 8 -18 8h-162z" />
    <glyph glyph-name="brokenbar" horiz-adv-x="222" 
d="M78 363c0 -11.333 3.16699 -20.5 9.5 -27.5s14.166 -10.5 23.499 -10.5s17.166 3.5 23.499 10.5s9.5 16.167 9.5 27.5v274c0 11.333 -3.16699 20.5 -9.5 27.5s-14.166 10.5 -23.499 10.5s-17.166 -3.5 -23.499 -10.5s-9.5 -16.167 -9.5 -27.5v-274zM78 -137
c0 -11.333 3.16699 -20.5 9.5 -27.5s14.166 -10.5 23.499 -10.5s17.166 3.5 23.499 10.5s9.5 16.167 9.5 27.5v274c0 11.333 -3.16699 20.5 -9.5 27.5s-14.166 10.5 -23.499 10.5s-17.166 -3.5 -23.499 -10.5s-9.5 -16.167 -9.5 -27.5v-274z" />
    <glyph glyph-name="minus" horiz-adv-x="600" 
d="M515 220c11.333 0 20.5 3.16699 27.5 9.5s10.5 14.166 10.5 23.499s-3.5 17.166 -10.5 23.499s-16.167 9.5 -27.5 9.5h-430c-11.333 0 -20.5 -3.16699 -27.5 -9.5s-10.5 -14.166 -10.5 -23.499s3.5 -17.166 10.5 -23.499s16.167 -9.5 27.5 -9.5h430z" />
    <glyph glyph-name="multiply" horiz-adv-x="600" 
d="M471 37c9.33301 -9.33301 18.666 -14 27.999 -14s16.833 3.16699 22.5 9.5s8.5 13.5 8.5 21.5c0 4.66699 -0.833008 9 -2.5 13s-5.83398 9.33301 -12.501 16l-169 170l169 170c6.66699 6.66699 10.834 12 12.501 16s2.5 8.33301 2.5 13c0 8 -2.83301 15.167 -8.5 21.5
s-13.167 9.5 -22.5 9.5s-18.666 -4.66699 -27.999 -14l-171 -171l-171 171c-9.33301 9.33301 -18.666 14 -27.999 14s-16.833 -3.16699 -22.5 -9.5s-8.5 -13.5 -8.5 -21.5c0 -4.66699 0.833008 -9 2.5 -13s5.83398 -9.33301 12.501 -16l169 -170l-169 -170
c-6.66699 -6.66699 -10.834 -12 -12.501 -16s-2.5 -8.33301 -2.5 -13c0 -8 2.83301 -15.167 8.5 -21.5s13.167 -9.5 22.5 -9.5s18.666 4.66699 27.999 14l171 171z" />
    <glyph glyph-name="space" unicode=" " horiz-adv-x="240" 
 />
    <glyph glyph-name="exclam" unicode="!" horiz-adv-x="278" 
d="M93 40c0 -12.667 4.66699 -23.5 14 -32.5s20 -13.5 32 -13.5s22.667 4.5 32 13.5s14 19.833 14 32.5c0 12 -4.66699 22.667 -14 32s-20 14 -32 14s-22.667 -4.66699 -32 -14s-14 -20 -14 -32zM103 248c0 -30.667 12 -46 36 -46s36 15.333 36 46v424
c0 30.667 -12 46 -36 46s-36 -15.333 -36 -46v-424z" />
    <glyph glyph-name="quotedbl" unicode="&#x22;" horiz-adv-x="315" 
d="M60 548c0 -11.333 3.16699 -20.5 9.5 -27.5s14.166 -10.5 23.499 -10.5s17.166 3.5 23.499 10.5s9.5 16.167 9.5 27.5v132c0 11.333 -3.16699 20.5 -9.5 27.5s-14.166 10.5 -23.499 10.5s-17.166 -3.5 -23.499 -10.5s-9.5 -16.167 -9.5 -27.5v-132zM189 548
c0 -11.333 3.16699 -20.5 9.5 -27.5s14.166 -10.5 23.499 -10.5s17.166 3.5 23.499 10.5s9.5 16.167 9.5 27.5v132c0 11.333 -3.16699 20.5 -9.5 27.5s-14.166 10.5 -23.499 10.5s-17.166 -3.5 -23.499 -10.5s-9.5 -16.167 -9.5 -27.5v-132z" />
    <glyph glyph-name="numbersign" unicode="#" horiz-adv-x="536" 
d="M182 216h132l-20 -146l-3.5 -25c-1 -7.33301 -1.5 -15 -1.5 -23c0 -7.33301 2 -13.833 6 -19.5s10.667 -8.5 20 -8.5c11.333 0 19.5 3.16699 24.5 9.5s8.16699 15.166 9.5 26.499l26 186h70c11.333 0 21 2.66699 29 8s12 12.666 12 21.999c0 10 -4 17.5 -12 22.5
s-17.667 7.5 -29 7.5h-62l23 160h70c11.333 0 21 2.5 29 7.5s12 12.5 12 22.5c0 9.33301 -4 16.666 -12 21.999s-17.667 8 -29 8h-61l20 146l3.5 25c1 7.33301 1.5 15 1.5 23c0 7.33301 -2 13.833 -6 19.5s-10.667 8.5 -20 8.5c-11.333 0 -19.5 -3.16699 -24.5 -9.5
s-8.16699 -15.166 -9.5 -26.499l-26 -186h-132l20 146l3.5 25c1 7.33301 1.5 15 1.5 23c0 7.33301 -2 13.833 -6 19.5s-10.667 8.5 -20 8.5c-11.333 0 -19.5 -3.16699 -24.5 -9.5s-8.16699 -15.166 -9.5 -26.499l-26 -186h-70c-11.333 0 -21 -2.66699 -29 -8
s-12 -12.666 -12 -21.999c0 -10 4 -17.5 12 -22.5s17.667 -7.5 29 -7.5h62l-23 -160h-70c-11.333 0 -21 -2.5 -29 -7.5s-12 -12.5 -12 -22.5c0 -9.33301 4 -16.666 12 -21.999s17.667 -8 29 -8h61l-20 -146l-3.5 -25c-1 -7.33301 -1.5 -15 -1.5 -23
c0 -7.33301 2 -13.833 6 -19.5s10.667 -8.5 20 -8.5c11.333 0 19.5 3.16699 24.5 9.5s8.16699 15.166 9.5 26.499zM324 276h-133l22 160h133z" />
    <glyph glyph-name="dollar" unicode="$" horiz-adv-x="463" 
d="M245 343c17.333 -6 33.498 -12.501 48.498 -19.501s28.333 -15.333 40 -25s20.834 -21.167 27.501 -34.5s10 -29.666 10 -48.999c0 -17.333 -3 -34.5 -9 -51.5s-14.5 -32.5 -25.5 -46.5s-24.167 -25.833 -39.5 -35.5s-32.666 -16.167 -51.999 -19.5v281zM208.998 432.999
c-14.667 5.33301 -28.334 11.334 -41.001 18.001s-23.667 14.5 -33 23.5s-16.666 19.167 -21.999 30.5s-8 24.666 -8 39.999c0 26.667 8.33301 49.5 25 68.5s43 31.167 79 36.5v-217zM208.998 60c-25.333 0 -46 2.66504 -62 7.99805s-29.333 11.333 -40 18l-28 18
c-8 5.33301 -17 8 -27 8c-11.333 0 -19.5 -3.5 -24.5 -10.5s-7.5 -13.5 -7.5 -19.5c0 -10 4.5 -20.167 13.5 -30.5s21.667 -19.666 38 -27.999s36.166 -15.166 59.499 -20.499s49.333 -8.33301 78 -9v-45c0 -13.333 6 -20 18 -20s18 6.66699 18 20v47
c29.333 2.66699 56.166 10.334 80.499 23.001s45.166 29 62.499 49s30.833 43.167 40.5 69.5s14.5 54.833 14.5 85.5c0 31.333 -6 57.5 -18 78.5s-27.5 38.667 -46.5 53s-40.167 26.333 -63.5 36s-46.666 18.834 -69.999 27.501v234
c20 -0.666992 36.5 -3.33398 49.5 -8.00098s24 -9.83398 33 -15.501s16.833 -10.834 23.5 -15.501s13.334 -7 20.001 -7c10.667 0 18.334 3.5 23.001 10.5s7 14.5 7 22.5c0 10 -4.5 19.5 -13.5 28.5s-21 17.167 -36 24.5s-31.667 13.333 -50 18
s-37.166 7.33398 -56.499 8.00098v45c0 13.333 -6 20 -18 20s-18 -6.66699 -18 -20v-47c-24 -2.66699 -46.667 -8.5 -68 -17.5s-40 -21 -56 -36s-28.667 -32.833 -38 -53.5s-14 -44 -14 -70c0 -30 5.16699 -55 15.5 -75s23.666 -36.667 39.999 -50s35 -24.5 56 -33.5
s42.5 -17.167 64.5 -24.5v-296z" />
    <glyph glyph-name="percent" unicode="%" horiz-adv-x="741" 
d="M194 372c20.667 0 40.3301 4.16699 58.9971 12.5s35 19.833 49 34.5s25.167 32.5 33.5 53.5s12.5 43.833 12.5 68.5c0 27.333 -4.33301 51.833 -13 73.5s-20.167 40.167 -34.5 55.5s-30.666 27.166 -48.999 35.499s-37.5 12.5 -57.5 12.5s-39.167 -4.16699 -57.5 -12.5
s-34.666 -20.166 -48.999 -35.499s-25.833 -33.833 -34.5 -55.5s-13 -46.167 -13 -73.5c0 -24.667 4.16699 -47.5 12.5 -68.5s19.5 -38.833 33.5 -53.5s30.333 -26.167 49 -34.5s38.334 -12.5 59.001 -12.5zM193.996 420c-16.667 0 -30.8281 3.66699 -42.4951 11
s-21.334 16.666 -29.001 27.999s-13.334 24.333 -17.001 39s-5.5 29 -5.5 43c0 37.333 8.16699 68.166 24.5 92.499s39.5 36.5 69.5 36.5s53.167 -12.167 69.5 -36.5s24.5 -55.166 24.5 -92.499c0 -14 -1.83301 -28.333 -5.5 -43s-9.33398 -27.667 -17.001 -39
s-17.334 -20.666 -29.001 -27.999s-25.834 -11 -42.501 -11zM547.002 -6c20.667 0 40.3301 4.16699 58.9971 12.5s35 19.833 49 34.5s25.167 32.5 33.5 53.5s12.5 43.833 12.5 68.5c0 27.333 -4.33301 51.833 -13 73.5s-20.167 40.167 -34.5 55.5
s-30.666 27.166 -48.999 35.499s-37.5 12.5 -57.5 12.5s-39.167 -4.16699 -57.5 -12.5s-34.666 -20.166 -48.999 -35.499s-25.833 -33.833 -34.5 -55.5s-13 -46.167 -13 -73.5c0 -24.667 4.16699 -47.5 12.5 -68.5s19.5 -38.833 33.5 -53.5s30.333 -26.167 49 -34.5
s38.334 -12.5 59.001 -12.5zM546.998 42c-16.667 0 -30.8281 3.66699 -42.4951 11s-21.334 16.666 -29.001 27.999s-13.334 24.333 -17.001 39s-5.5 29 -5.5 43c0 37.333 8.16699 68.166 24.5 92.499s39.5 36.5 69.5 36.5s53.167 -12.167 69.5 -36.5
s24.5 -55.166 24.5 -92.499c0 -14 -1.83301 -28.333 -5.5 -43s-9.33398 -27.667 -17.001 -39s-17.334 -20.666 -29.001 -27.999s-25.834 -11 -42.501 -11zM215.004 38c-3.33301 -7.33301 -5.66602 -13.333 -6.99902 -18s-2 -9 -2 -13c0 -6.66699 2.5 -12.167 7.5 -16.5
s11.833 -6.5 20.5 -6.5s15.167 2.33301 19.5 7s8.16602 10.667 11.499 18l260 665c3.33301 7.33301 5.66602 13.333 6.99902 18s2 9 2 13c0 6.66699 -2.5 12.167 -7.5 16.5s-11.833 6.5 -20.5 6.5s-15.167 -2.33301 -19.5 -7s-8.16602 -10.667 -11.499 -18z" />
    <glyph glyph-name="ampersand" unicode="&#x26;" horiz-adv-x="667" 
d="M314 423c15.333 9.33301 30.6709 19.335 46.0039 30.002s29.333 22.667 42 36s22.834 28.166 30.501 44.499s11.5 34.5 11.5 54.5c0 21.333 -4.16699 40.166 -12.5 56.499s-19.833 30 -34.5 41s-31.5 19.167 -50.5 24.5s-39.167 8 -60.5 8
c-26 0 -48.833 -3.5 -68.5 -10.5s-36 -16.5 -49 -28.5s-22.833 -26.167 -29.5 -42.5s-10 -33.833 -10 -52.5c0 -10.667 1.33301 -21 4 -31s7.16699 -20.5 13.5 -31.5s14.666 -23.167 24.999 -36.5s23.5 -28.666 39.5 -45.999c-51.333 -30 -92.5 -63.5 -123.5 -100.5
s-46.5 -80.5 -46.5 -130.5c0 -32 5.16699 -61 15.5 -87s25.5 -48.5 45.5 -67.5s44.5 -33.667 73.5 -44s61.833 -15.5 98.5 -15.5c22 0 43.167 3.16699 63.5 9.5s39.666 14.833 57.999 25.5s35.5 23.167 51.5 37.5s30.667 29.5 44 45.5l80 -92
c7.33301 -9.33301 13.166 -15.5 17.499 -18.5s9.5 -4.5 15.5 -4.5c11.333 0 20.166 3.16699 26.499 9.5s9.5 16.166 9.5 29.499c0 3.33301 -0.833008 7.33301 -2.5 12s-6.16699 10.667 -13.5 18l-92 103c20 24.667 36.333 46.167 49 64.5s22.667 34 30 47
s12.5 23.333 15.5 31s4.5 13.167 4.5 16.5c0 9.33301 -2.83301 17 -8.5 23s-13.5 9 -23.5 9c-7.33301 0 -13.833 -2.5 -19.5 -7.5s-11.334 -12 -17.001 -21s-12 -19.667 -19 -32s-15.5 -25.5 -25.5 -39.5l-28 -40zM372.005 584.002
c0 -10 -1.66992 -19.3311 -5.00293 -27.998s-9 -17.167 -17 -25.5s-18.5 -17 -31.5 -26s-29.167 -19.167 -48.5 -30.5l-23.5 27c-8.33301 9.33301 -15.833 18.666 -22.5 27.999s-12.167 18.666 -16.5 27.999s-6.5 18.333 -6.5 27c0 14.667 2.33301 26.667 7 36
s10.834 16.833 18.501 22.5s16.334 9.66699 26.001 12s19.5 3.5 29.5 3.5c26.667 0 48.334 -6.66699 65.001 -20s25 -31.333 25 -54zM445.002 165.004c-25.333 -38 -53.833 -65 -85.5 -81s-61.167 -24 -88.5 -24c-46 0 -82.833 13.667 -110.5 41s-41.5 64 -41.5 110
c0 36 12 69.5 36 100.5s56 56.5 96 76.5z" />
    <glyph glyph-name="quotesingle" unicode="'" horiz-adv-x="186" 
d="M60 548c0 -11.333 3.16699 -20.5 9.5 -27.5s14.166 -10.5 23.499 -10.5s17.166 3.5 23.499 10.5s9.5 16.167 9.5 27.5v132c0 11.333 -3.16699 20.5 -9.5 27.5s-14.166 10.5 -23.499 10.5s-17.166 -3.5 -23.499 -10.5s-9.5 -16.167 -9.5 -27.5v-132z" />
    <glyph glyph-name="parenleft" unicode="(" 
d="M109 330c0 47.333 1.5 94.498 4.5 141.498s9.5 94.5 19.5 142.5c4 17.333 7.66699 31.5 11 42.5s6.33301 20.167 9 27.5s4.66699 13.333 6 18s2 9.33398 2 14.001c-1.33301 16 -11 24 -29 24c-11.333 0 -20.5 -5.33301 -27.5 -16s-13.833 -26.667 -20.5 -48
c-15.333 -54 -26 -111 -32 -171s-9 -118.333 -9 -175s3 -115 9 -175s16.667 -117 32 -171c6.66699 -21.333 13.5 -37.333 20.5 -48s16.167 -16 27.5 -16c18 0 27.667 8 29 24c0 4.66699 -0.666992 9.33398 -2 14.001s-3.33301 10.667 -6 18s-5.66699 16.5 -9 27.5
s-7 25.167 -11 42.5c-10 48 -16.5 95.5 -19.5 142.5s-4.5 94.167 -4.5 141.5z" />
    <glyph glyph-name="parenright" unicode=")" 
d="M95 330c0 -47.333 -1.5 -94.498 -4.5 -141.498s-9.5 -94.5 -19.5 -142.5c-4 -17.333 -7.66699 -31.5 -11 -42.5s-6.33301 -20.167 -9 -27.5s-4.66699 -13.333 -6 -18s-2 -9.33398 -2 -14.001c1.33301 -16 11 -24 29 -24c11.333 0 20.5 5.33301 27.5 16
s13.833 26.667 20.5 48c15.333 54 26 111 32 171s9 118.333 9 175s-3 115 -9 175s-16.667 117 -32 171c-6.66699 21.333 -13.5 37.333 -20.5 48s-16.167 16 -27.5 16c-18 0 -27.667 -8 -29 -24c0 -4.66699 0.666992 -9.33398 2 -14.001s3.33301 -10.667 6 -18
s5.66699 -16.5 9 -27.5s7 -25.167 11 -42.5c10 -48 16.5 -95.5 19.5 -142.5s4.5 -94.167 4.5 -141.5z" />
    <glyph glyph-name="asterisk" unicode="*" horiz-adv-x="388" 
d="M160 540l-91 -41c-19.333 -9.33301 -29 -19.333 -29 -30c0 -19.333 10.333 -29 31 -29c8 0 19 5 33 15l74 56l-8 -56c-1.33301 -10.667 -2.5 -19.334 -3.5 -26.001s-1.66699 -12 -2 -16s-0.5 -7.33301 -0.5 -10v-8c0 -9.33301 2.66699 -17.166 8 -23.499
s12.666 -9.5 21.999 -9.5s16.666 3.16699 21.999 9.5s8 14.166 8 23.499v8c0 2.66699 -0.166992 6 -0.5 10s-1 9.33301 -2 16s-2.16699 15.334 -3.5 26.001l-8 56l74 -56c14 -10 25 -15 33 -15c20.667 0 31 9.66699 31 29c0 10.667 -9.66699 20.667 -29 30l-91 41l91 41
c19.333 9.33301 29 19.333 29 30c0 19.333 -10.333 29 -31 29c-8 0 -19 -5 -33 -15l-74 -56l8 56c1.33301 10.667 2.5 19.334 3.5 26.001s1.66699 12 2 16s0.5 7.33301 0.5 10v8c0 9.33301 -2.66699 17.166 -8 23.499s-12.666 9.5 -21.999 9.5
s-16.666 -3.16699 -21.999 -9.5s-8 -14.166 -8 -23.499v-8c0 -2.66699 0.166992 -6 0.5 -10s1 -9.33301 2 -16s2.16699 -15.334 3.5 -26.001l8 -56l-74 56c-14 10 -25 15 -33 15c-20.667 0 -31 -9.66699 -31 -29c0 -10.667 9.66699 -20.667 29 -30z" />
    <glyph glyph-name="plus" unicode="+" horiz-adv-x="600" 
d="M267 286h-182c-11.333 0 -20.5 -3.16699 -27.5 -9.5s-10.5 -14.166 -10.5 -23.499s3.5 -17.166 10.5 -23.499s16.167 -9.5 27.5 -9.5h182v-182c0 -11.333 3.16699 -20.5 9.5 -27.5s14.166 -10.5 23.499 -10.5s17.166 3.5 23.499 10.5s9.5 16.167 9.5 27.5v182h182
c11.333 0 20.5 3.16699 27.5 9.5s10.5 14.166 10.5 23.499s-3.5 17.166 -10.5 23.499s-16.167 9.5 -27.5 9.5h-182v182c0 11.333 -3.16699 20.5 -9.5 27.5s-14.166 10.5 -23.499 10.5s-17.166 -3.5 -23.499 -10.5s-9.5 -16.167 -9.5 -27.5v-182z" />
    <glyph glyph-name="comma" unicode="," horiz-adv-x="240" 
d="M40 -61c-5.33301 -12 -8 -22 -8 -30c0 -7.33301 3 -14.333 9 -21s14.667 -10 26 -10c16 0 27.333 7 34 21l57 126c5.33301 12 8 22 8 30c0 7.33301 -3 14.333 -9 21s-14.667 10 -26 10c-16 0 -27.333 -7 -34 -21z" />
    <glyph glyph-name="hyphen" unicode="-" horiz-adv-x="352" 
d="M79 299c-11.333 0 -20.5 -3.16699 -27.5 -9.5s-10.5 -14.166 -10.5 -23.499s3.5 -17.166 10.5 -23.499s16.167 -9.5 27.5 -9.5h194c11.333 0 20.5 3.16699 27.5 9.5s10.5 14.166 10.5 23.499s-3.5 17.166 -10.5 23.499s-16.167 9.5 -27.5 9.5h-194z" />
    <glyph glyph-name="period" unicode="." horiz-adv-x="240" 
d="M74 40c0 -12.667 4.5 -23.5 13.5 -32.5s19.833 -13.5 32.5 -13.5s23.5 4.5 32.5 13.5s13.5 19.833 13.5 32.5s-4.5 23.5 -13.5 32.5s-19.833 13.5 -32.5 13.5s-23.5 -4.5 -32.5 -13.5s-13.5 -19.833 -13.5 -32.5z" />
    <glyph glyph-name="slash" unicode="/" horiz-adv-x="407" 
d="M47 47c-4.66699 -11.333 -7 -20.333 -7 -27c0 -7.33301 2.83301 -13.5 8.5 -18.5s13.167 -7.5 22.5 -7.5s16.5 2.16699 21.5 6.5s9.16699 10.833 12.5 19.5l255 645c2 5.33301 3.66699 10.333 5 15s2 8.66699 2 12c0 7.33301 -2.83301 13.5 -8.5 18.5
s-13.167 7.5 -22.5 7.5s-16.5 -2.16699 -21.5 -6.5s-9.16699 -10.833 -12.5 -19.5z" />
    <glyph glyph-name="zero" unicode="0" horiz-adv-x="536" 
d="M268 -6c25.333 0 51.333 6.16699 78 18.5s51 32.666 73 60.999s40.167 65.5 54.5 111.5s21.5 103 21.5 171s-7.16699 125 -21.5 171s-32.5 83.167 -54.5 111.5s-46.333 48.666 -73 60.999s-52.667 18.5 -78 18.5c-24.667 0 -50.5 -6.16699 -77.5 -18.5
s-51.5 -32.666 -73.5 -60.999s-40.167 -65.5 -54.5 -111.5s-21.5 -103 -21.5 -171s7.16699 -125 21.5 -171s32.5 -83.167 54.5 -111.5s46.5 -48.666 73.5 -60.999s52.833 -18.5 77.5 -18.5zM268 652c25.333 0 47.333 -7.5 66 -22.5s34.167 -35.667 46.5 -62
s21.5 -57.5 27.5 -93.5s9 -75.333 9 -118s-3 -82 -9 -118s-15.167 -67.167 -27.5 -93.5s-27.833 -47 -46.5 -62s-40.667 -22.5 -66 -22.5s-47.333 7.5 -66 22.5s-34.167 35.667 -46.5 62s-21.5 57.5 -27.5 93.5s-9 75.333 -9 118s3 82 9 118s15.167 67.167 27.5 93.5
s27.833 47 46.5 62s40.667 22.5 66 22.5z" />
    <glyph glyph-name="one" unicode="1" horiz-adv-x="352" 
d="M176 646v-606.001c0 -30.667 12 -46 36 -46s36 15.333 36 46v639c0 9.33301 -3.5 17.166 -10.5 23.499s-16.167 9.5 -27.5 9.5h-125c-11.333 0 -20.5 -3.16699 -27.5 -9.5s-10.5 -14.166 -10.5 -23.499s3.5 -17.166 10.5 -23.499s16.167 -9.5 27.5 -9.5h91z" />
    <glyph glyph-name="two" unicode="2" horiz-adv-x="536" 
d="M165 66l224.002 306.002c25.333 34 43 63.833 53 89.5s15 50.5 15 74.5c0 57.333 -17.333 102 -52 134s-80.334 48 -137.001 48c-31.333 0 -59.833 -5.66699 -85.5 -17s-47.667 -26.833 -66 -46.5s-32.5 -42.667 -42.5 -69s-15 -54.833 -15 -85.5
c0 -18 3.33301 -30.5 10 -37.5s15.667 -10.5 27 -10.5c10 0 18.333 3 25 9s10 15 10 27c0 54 11.667 94.833 35 122.5s56.333 41.5 99 41.5c35.333 0 63.166 -9.33301 83.499 -28s30.5 -50 30.5 -94c0 -16 -4.83301 -35.667 -14.5 -59s-25.167 -50 -46.5 -80l-231 -319
c-7.33301 -10.667 -12.333 -19.167 -15 -25.5s-4 -12.5 -4 -18.5c0 -7.33301 2.83301 -13.833 8.5 -19.5s15.5 -8.5 29.5 -8.5h333c11.333 0 20.5 3.16699 27.5 9.5s10.5 14.166 10.5 23.499s-3.5 17.166 -10.5 23.499s-16.167 9.5 -27.5 9.5h-274z" />
    <glyph glyph-name="three" unicode="3" horiz-adv-x="536" 
d="M351 535c0 -37.333 -7.99805 -66.999 -23.998 -88.999s-38.333 -35 -67 -39c-16.667 -2.66699 -27.834 -7 -33.501 -13s-8.5 -13.333 -8.5 -22c0 -4 0.5 -7.83301 1.5 -11.5s3.66699 -7.16699 8 -10.5s11.333 -6.5 21 -9.5s23.167 -5.83301 40.5 -8.5
c9.33301 -1.33301 19.666 -4.33301 30.999 -9s22.333 -12 33 -22s19.5 -23.333 26.5 -40s10.5 -37.667 10.5 -63c0 -19.333 -3.33301 -37.333 -10 -54s-16 -31.334 -28 -44.001s-26.667 -22.5 -44 -29.5s-36.666 -10.5 -57.999 -10.5c-24 0 -44.167 4.5 -60.5 13.5
s-29.5 19.333 -39.5 31s-17.5 23.334 -22.5 35.001s-8.5 20.167 -10.5 25.5c-3.33301 11.333 -8.5 18.333 -15.5 21s-12.833 4 -17.5 4c-7.33301 0 -14.666 -3.33301 -21.999 -10s-11 -16.667 -11 -30c0 -12.667 4.33301 -27.834 13 -45.501s21.334 -34.667 38.001 -51
s37.5 -30.333 62.5 -42s53.5 -17.5 85.5 -17.5c31.333 0 60.166 5.5 86.499 16.5s49.333 26.167 69 45.5s35 42.166 46 68.499s16.5 55.166 16.5 86.499c0 20 -3 38.833 -9 56.5s-14.333 34 -25 49s-23.334 27.833 -38.001 38.5s-30.667 19 -48 25
c25.333 16.667 45.166 38.5 59.499 65.5s21.5 58.167 21.5 93.5c0 26 -4.5 49.833 -13.5 71.5s-21.333 40.5 -37 56.5s-34.5 28.5 -56.5 37.5s-46 13.5 -72 13.5c-25.333 0 -48.5 -4.83301 -69.5 -14.5s-39 -22.667 -54 -39s-26.5 -35.333 -34.5 -57s-12 -44.167 -12 -67.5
c0 -10 3.5 -18.5 10.5 -25.5s15.5 -10.5 25.5 -10.5s18.5 3.5 25.5 10.5s10.5 15.5 10.5 25.5c0 36 8.5 63.667 25.5 83s41.167 29 72.5 29c20 0 36.5 -4.16699 49.5 -12.5s23.333 -18.666 31 -30.999s13 -25.166 16 -38.499s4.5 -25 4.5 -35z" />
    <glyph glyph-name="four" unicode="4" horiz-adv-x="536" 
d="M355 40c0 -30.667 12.001 -45.998 36.001 -45.998s36 15.333 36 46v151h39c11.333 0 20.5 3.16699 27.5 9.5s10.5 14.166 10.5 23.499s-3.5 17.166 -10.5 23.499s-16.167 9.5 -27.5 9.5h-39v402c0 18 -5.16699 32.333 -15.5 43s-24.833 16 -43.5 16
c-17.333 0 -31.833 -4.5 -43.5 -13.5s-21.167 -19.5 -28.5 -31.5l-237 -394c-8.66699 -13.333 -15.334 -25 -20.001 -35s-7 -18.333 -7 -25c0 -8.66699 2.66699 -15.5 8 -20.5s15 -7.5 29 -7.5h286v-151zM355.001 257.002h-232l230 401h2v-401z" />
    <glyph glyph-name="five" unicode="5" horiz-adv-x="536" 
d="M123 431c-1.33301 -10.667 -2.50098 -19.166 -3.50098 -25.499s-1.5 -12.166 -1.5 -17.499c0 -8 2.83301 -14.5 8.5 -19.5s11.834 -7.5 18.501 -7.5c8 0 15.5 1.5 22.5 4.5s14.5 6.5 22.5 10.5s16.667 7.5 26 10.5s20.333 4.5 33 4.5c44 0 78.5 -14 103.5 -42
s37.5 -65.333 37.5 -112c0 -24.667 -3.33301 -47.834 -10 -69.501s-16.167 -40.5 -28.5 -56.5s-27.333 -28.5 -45 -37.5s-37.834 -13.5 -60.501 -13.5c-26.667 0 -48.667 4.16699 -66 12.5s-31.666 17.333 -42.999 27s-21 18.667 -29 27s-15.667 12.5 -23 12.5
c-12 0 -20.833 -4.5 -26.5 -13.5s-8.5 -16.5 -8.5 -22.5c0 -7.33301 5 -17.166 15 -29.499s23.667 -24.333 41 -36s38 -21.834 62 -30.501s50.333 -13 79 -13c32 0 61.667 6 89 18s50.666 29 69.999 51s34.5 48.5 45.5 79.5s16.5 65.5 16.5 103.5c0 30 -5.16699 58 -15.5 84
s-24.333 48.333 -42 67s-38.334 33.334 -62.001 44.001s-48.5 16 -74.5 16c-13.333 0 -26.666 -1.33301 -39.999 -4s-26 -7 -38 -13l32 206h189c11.333 0 20.5 3.16699 27.5 9.5s10.5 14.166 10.5 23.499s-3.5 17.166 -10.5 23.499s-16.167 9.5 -27.5 9.5h-214
c-15.333 0 -25.666 -4 -30.999 -12s-9.33301 -19.333 -12 -34z" />
    <glyph glyph-name="six" unicode="6" horiz-adv-x="536" 
d="M271 -6c35.333 0 65.835 7.16992 91.502 21.5029s46.834 32.833 63.501 55.5s29 48.167 37 76.5s12 56.166 12 83.499c0 34.667 -4.5 66 -13.5 94s-21.833 52 -38.5 72s-36.834 35.333 -60.501 46s-50.167 16 -79.5 16c-18 0 -36.167 -2.33301 -54.5 -7
s-34.5 -11.667 -48.5 -21h-2c25.333 50 49.5 90.167 72.5 120.5s43.167 54.333 60.5 72s31.333 31.167 42 40.5s16 18 16 26c0 11.333 -3 20.5 -9 27.5s-13.667 10.5 -23 10.5c-6.66699 0 -12.834 -1.66699 -18.501 -5s-12.167 -8.33301 -19.5 -15
c-31.333 -29.333 -61.333 -61.833 -90 -97.5s-54 -73.667 -76 -114s-39.5 -82.833 -52.5 -127.5s-19.5 -90.667 -19.5 -138c0 -24 3.66699 -49.833 11 -77.5s19.166 -53.334 35.499 -77.001s38 -43.334 65 -59.001s59.833 -23.5 98.5 -23.5zM265.002 60.0029
c-22 0 -40.833 4.83105 -56.5 14.498s-28.667 22.167 -39 37.5s-18 33 -23 53s-7.5 40 -7.5 60c0 56.667 10.5 99.834 31.5 129.501s53.167 44.5 96.5 44.5c20 0 38 -4.16699 54 -12.5s29.667 -20.166 41 -35.499s20 -33.666 26 -54.999s9 -45 9 -71
c0 -27.333 -3.5 -51.333 -10.5 -72s-16.5 -37.834 -28.5 -51.501s-26 -24 -42 -31s-33 -10.5 -51 -10.5z" />
    <glyph glyph-name="seven" unicode="7" horiz-adv-x="481" 
d="M440 646c3.33301 7.33301 6.16895 14.998 8.50195 22.998s3.5 15 3.5 21c0 14.667 -11.667 22 -35 22h-350c-11.333 0 -20.5 -3.16699 -27.5 -9.5s-10.5 -14.166 -10.5 -23.499s3.5 -17.166 10.5 -23.499s16.167 -9.5 27.5 -9.5h298l-248 -586
c-4.66699 -10 -7.83398 -17.833 -9.50098 -23.5s-2.5 -10.5 -2.5 -14.5c0 -8 3.16699 -14.667 9.5 -20s14.166 -8 23.499 -8c6 0 12.333 1.33301 19 4s12.667 10 18 22z" />
    <glyph glyph-name="eight" unicode="8" horiz-adv-x="536" 
d="M268 364c21.333 0 39.9961 -4.16699 55.9961 -12.5s29.333 -19.333 40 -33s18.834 -29.334 24.501 -47.001s8.5 -36.167 8.5 -55.5c0 -18 -2.66699 -36.167 -8 -54.5s-13.333 -35 -24 -50s-24.167 -27.333 -40.5 -37s-35.166 -14.5 -56.499 -14.5
s-40.166 4.83301 -56.499 14.5s-29.833 22 -40.5 37s-18.667 31.667 -24 50s-8 36.5 -8 54.5c0 19.333 2.83301 37.833 8.5 55.5s13.834 33.334 24.501 47.001s24.167 24.667 40.5 33s34.833 12.5 55.5 12.5zM267.996 -6c33.333 0 62.999 6 88.999 18s47.667 28 65 48
s30.5 43 39.5 69s13.5 53 13.5 81c0 44.667 -10.833 83.834 -32.5 117.501s-51.5 55.5 -89.5 65.5v2c27.333 16.667 49.833 38.5 67.5 65.5s26.5 57.833 26.5 92.5c0 21.333 -4.5 42 -13.5 62s-21.333 37.667 -37 53s-34.5 27.5 -56.5 36.5s-46 13.5 -72 13.5
s-50 -4.5 -72 -13.5s-40.833 -21.167 -56.5 -36.5s-28 -33 -37 -53s-13.5 -40.667 -13.5 -62c0 -34.667 8.83301 -65.5 26.5 -92.5s40.167 -48.833 67.5 -65.5v-2c-38 -10 -67.833 -31.833 -89.5 -65.5s-32.5 -72.834 -32.5 -117.501c0 -28 4.5 -55 13.5 -81
s22.333 -49 40 -69s39.334 -36 65.001 -48s55.167 -18 88.5 -18zM267.995 430c-36.667 0 -63.667 11.167 -81 33.5s-26 49.833 -26 82.5c0 30 9.66699 55.167 29 75.5s45.333 30.5 78 30.5c31.333 0 57 -10.333 77 -31s30 -46.334 30 -77.001
c0 -31.333 -8.66699 -58.166 -26 -80.499s-44.333 -33.5 -81 -33.5z" />
    <glyph glyph-name="nine" unicode="9" horiz-adv-x="536" 
d="M265 718c-35.333 0 -65.8359 -7.16992 -91.5029 -21.5029s-46.834 -32.833 -63.501 -55.5s-29 -48.167 -37 -76.5s-12 -56.166 -12 -83.499c0 -34.667 4.5 -66 13.5 -94s21.833 -52 38.5 -72s36.834 -35.333 60.501 -46s50.167 -16 79.5 -16c18 0 36.167 2.33301 54.5 7
s34.5 11.667 48.5 21h2c-24.667 -50 -48.667 -90.167 -72 -120.5s-43.666 -54.333 -60.999 -72s-31.333 -31.167 -42 -40.5s-16 -18 -16 -26c0 -11.333 3 -20.5 9 -27.5s13.667 -10.5 23 -10.5c6.66699 0 12.834 1.66699 18.501 5s12.167 8.33301 19.5 15
c31.333 29.333 61.333 61.833 90 97.5s54 73.667 76 114s39.5 82.833 52.5 127.5s19.5 90.667 19.5 138c0 24 -3.66699 49.833 -11 77.5s-19.166 53.334 -35.499 77.001s-37.833 43.334 -64.5 59.001s-59.667 23.5 -99 23.5zM270.997 651.997
c22 0 40.833 -4.83105 56.5 -14.498s28.667 -22.167 39 -37.5s18 -33 23 -53s7.5 -40 7.5 -60c0 -56.667 -10.5 -99.834 -31.5 -129.501s-53.167 -44.5 -96.5 -44.5c-20 0 -38 4.16699 -54 12.5s-29.667 20.166 -41 35.499s-20 33.666 -26 54.999s-9 45 -9 71
c0 27.333 3.5 51.333 10.5 72s16.5 37.834 28.5 51.501s26 24 42 31s33 10.5 51 10.5z" />
    <glyph glyph-name="colon" unicode=":" horiz-adv-x="240" 
d="M74 378c0 -12.667 4.5 -23.5 13.5 -32.5s19.833 -13.5 32.5 -13.5s23.5 4.5 32.5 13.5s13.5 19.833 13.5 32.5s-4.5 23.5 -13.5 32.5s-19.833 13.5 -32.5 13.5s-23.5 -4.5 -32.5 -13.5s-13.5 -19.833 -13.5 -32.5zM74 40c0 -12.667 4.5 -23.5 13.5 -32.5
s19.833 -13.5 32.5 -13.5s23.5 4.5 32.5 13.5s13.5 19.833 13.5 32.5s-4.5 23.5 -13.5 32.5s-19.833 13.5 -32.5 13.5s-23.5 -4.5 -32.5 -13.5s-13.5 -19.833 -13.5 -32.5z" />
    <glyph glyph-name="semicolon" unicode=";" horiz-adv-x="240" 
d="M40 -61c-5.33301 -12 -8 -22 -8 -30c0 -7.33301 3 -14.333 9 -21s14.667 -10 26 -10c16 0 27.333 7 34 21l57 126c5.33301 12 8 22 8 30c0 7.33301 -3 14.333 -9 21s-14.667 10 -26 10c-16 0 -27.333 -7 -34 -21zM166 378c0 12 -4.66699 22.667 -14 32s-20 14 -32 14
s-22.667 -4.66699 -32 -14s-14 -20 -14 -32s4.66699 -22.667 14 -32s20 -14 32 -14s22.667 4.66699 32 14s14 20 14 32z" />
    <glyph glyph-name="less" unicode="&#x3c;" horiz-adv-x="600" 
d="M138 253l391 190.997c10.667 5.33301 19 11.166 25 17.499s9 14.833 9 25.5c0 6.66699 -2.66699 12.5 -8 17.5s-12.333 7.5 -21 7.5s-19 -3 -31 -9l-439 -215c-11.333 -5.33301 -18.666 -11.166 -21.999 -17.499s-5 -12.166 -5 -17.499s1.66699 -11.166 5 -17.499
s10.666 -12.166 21.999 -17.499l439 -215c12 -6 22.333 -9 31 -9s15.667 2.83301 21 8.5s8 13.167 8 22.5c0 8.66699 -2.33301 15.5 -7 20.5s-12.667 10.167 -24 15.5z" />
    <glyph glyph-name="equal" unicode="=" horiz-adv-x="600" 
d="M85 386c-11.333 0 -20.5 -3.16699 -27.5 -9.5s-10.5 -14.166 -10.5 -23.499s3.5 -17.166 10.5 -23.499s16.167 -9.5 27.5 -9.5h430c11.333 0 20.5 3.16699 27.5 9.5s10.5 14.166 10.5 23.499s-3.5 17.166 -10.5 23.499s-16.167 9.5 -27.5 9.5h-430zM85 186
c-11.333 0 -20.5 -3.16699 -27.5 -9.5s-10.5 -14.166 -10.5 -23.499s3.5 -17.166 10.5 -23.499s16.167 -9.5 27.5 -9.5h430c11.333 0 20.5 3.16699 27.5 9.5s10.5 14.166 10.5 23.499s-3.5 17.166 -10.5 23.499s-16.167 9.5 -27.5 9.5h-430z" />
    <glyph glyph-name="greater" unicode="&#x3e;" horiz-adv-x="600" 
d="M462 253l-394 -191.997c-11.333 -5.33301 -19.333 -10.5 -24 -15.5s-7 -11.833 -7 -20.5c0 -9.33301 2.66699 -16.833 8 -22.5s12.333 -8.5 21 -8.5s19 3 31 9l439 215c11.333 5.33301 18.666 11.166 21.999 17.499s5 12.166 5 17.499s-1.66699 11.166 -5 17.499
s-10.666 12.166 -21.999 17.499l-439 215c-12 6 -22.333 9 -31 9s-15.667 -2.5 -21 -7.5s-8 -10.833 -8 -17.5c0 -10.667 3 -19.167 9 -25.5s14.333 -12.166 25 -17.499z" />
    <glyph glyph-name="question" unicode="?" horiz-adv-x="444" 
d="M175 246c0 -30.667 11.999 -46 35.999 -46s36 15.333 36 46v106c22 5.33301 43.333 12.5 64 21.5s38.834 21 54.501 36s28.167 33.167 37.5 54.5s14 47.333 14 78c0 26 -4.83301 49.833 -14.5 71.5s-23.334 40.167 -41.001 55.5s-38.667 27.333 -63 36
s-51.166 13 -80.499 13c-25.333 0 -49.5 -3.5 -72.5 -10.5s-43.333 -17 -61 -30s-31.667 -28.667 -42 -47s-15.5 -38.5 -15.5 -60.5c0 -10 2.66699 -18.833 8 -26.5s13.666 -11.5 24.999 -11.5s19.833 2.66699 25.5 8s10.167 16.333 13.5 33
c2.66699 13.333 8 24.833 16 34.5s17.5 17.834 28.5 24.501s23 11.667 36 15s25.833 5 38.5 5c14 0 28.167 -2.33301 42.5 -7s27.333 -11.667 39 -21s21.167 -21 28.5 -35s11 -30.333 11 -49c0 -31.333 -10.167 -57.833 -30.5 -79.5s-51.833 -36.834 -94.5 -45.501
c-17.333 -3.33301 -28.166 -7.83301 -32.499 -13.5s-6.5 -15.167 -6.5 -28.5v-127zM164.999 40c0 -12.667 4.5 -23.5 13.5 -32.5s19.833 -13.5 32.5 -13.5s23.5 4.5 32.5 13.5s13.5 19.833 13.5 32.5s-4.5 23.5 -13.5 32.5s-19.833 13.5 -32.5 13.5s-23.5 -4.5 -32.5 -13.5
s-13.5 -19.833 -13.5 -32.5z" />
    <glyph glyph-name="at" unicode="@" horiz-adv-x="800" 
d="M262 297c0 21.333 3.83301 43.833 11.5 67.5s18.5 45.5 32.5 65.5s30.5 36.667 49.5 50s39.833 20 62.5 20c28 0 48.5 -7.83301 61.5 -23.5s19.5 -37.5 19.5 -65.5c0 -16.667 -4 -36.834 -12 -60.501s-19 -46.167 -33 -67.5s-30.5 -39.666 -49.5 -54.999
s-39.5 -23 -61.5 -23c-26 0 -46 8.5 -60 25.5s-21 39.167 -21 66.5zM530 488c-12 27.333 -28.8291 47.1738 -50.4961 59.5068s-44.167 18.5 -67.5 18.5c-34 0 -65 -8 -93 -24s-52 -37 -72 -63s-35.5 -55.333 -46.5 -88s-16.5 -65.667 -16.5 -99
c0 -20.667 3 -40.334 9 -59.001s15 -35 27 -49s26.667 -25 44 -33s37.333 -12 60 -12c16 0 30.167 1.83301 42.5 5.5s23.333 8.5 33 14.5s18.167 12.667 25.5 20s14 15 20 23h2c8 -42 34.667 -63 80 -63c21.333 0 45.5 6.83301 72.5 20.5s52.5 32.834 76.5 57.501
s44.333 54.167 61 88.5s25 72.5 25 114.5c0 44 -9.16699 84.167 -27.5 120.5s-43.166 67.666 -74.499 93.999s-68.333 46.833 -111 61.5s-88.667 22 -138 22c-50.667 0 -98.667 -9.33301 -144 -28s-85 -44.334 -119 -77.001s-60.833 -70.834 -80.5 -114.501
s-29.5 -90.5 -29.5 -140.5c0 -50.667 9.66699 -98.167 29 -142.5s45.666 -82.833 78.999 -115.5s72.5 -58.5 117.5 -77.5s93.167 -28.5 144.5 -28.5c44 0 84.667 6.33301 122 19s69.333 27.167 96 43.5s47.5 32.833 62.5 49.5s22.5 29 22.5 37
c0 6 -1.83301 11.167 -5.5 15.5s-9.16699 6.5 -16.5 6.5c-6 0 -12.5 -2.83301 -19.5 -8.5s-15.333 -12.834 -25 -21.501s-21.334 -18.167 -35.001 -28.5s-30 -19.833 -49 -28.5s-41.333 -15.834 -67 -21.501s-55.5 -8.5 -89.5 -8.5c-40.667 0 -79.5 7.83301 -116.5 23.5
s-69.5 37.167 -97.5 64.5s-50.333 59.666 -67 96.999s-25 77.333 -25 120s7.83301 82.834 23.5 120.501s37.5 70.667 65.5 99s61.167 50.666 99.5 66.999s80.166 24.5 125.499 24.5c40 0 77.667 -5.66699 113 -17s66 -27.833 92 -49.5s46.667 -47.834 62 -78.501
s23 -65.334 23 -104.001c0 -26 -4.33301 -52.167 -13 -78.5s-20.334 -50.166 -35.001 -71.499s-31.334 -38.666 -50.001 -51.999s-38 -20 -58 -20c-8.66699 0 -15.334 2.66699 -20.001 8s-7 12.666 -7 21.999c0 7.33301 1 15.333 3 24s4.33301 17 7 25l72 229
c2.66699 7.33301 4.33398 12.5 5.00098 15.5s1 5.83301 1 8.5c0 7.33301 -2.66699 13 -8 17s-12.333 6 -21 6c-7.33301 0 -14 -1.66699 -20 -5s-11 -10.333 -15 -21z" />
    <glyph glyph-name="A" unicode="A" horiz-adv-x="612" 
d="M133 155h345.999l47 -128c3.33301 -9.33301 7.66602 -17.166 12.999 -23.499s14.333 -9.5 27 -9.5c10.667 0 18.667 2.83301 24 8.5s8 12.167 8 19.5c0 8.66699 -2.33301 18.667 -7 30l-229 614c-2 6 -4.5 12 -7.5 18s-6.5 11.5 -10.5 16.5s-9 9.16699 -15 12.5
s-13.667 5 -23 5c-8.66699 0 -16.167 -1.66699 -22.5 -5s-11.5 -7.5 -15.5 -12.5s-7.5 -10.5 -10.5 -16.5s-5.5 -12 -7.5 -18l-229 -614c-4.66699 -11.333 -7 -21.333 -7 -30c0 -7.33301 2.66699 -13.833 8 -19.5s13.333 -8.5 24 -8.5c12.667 0 21.334 3.16699 26.001 9.5
s9.33398 14.166 14.001 23.499zM454.999 221h-298l148 403h2z" />
    <glyph glyph-name="B" unicode="B" horiz-adv-x="537" 
d="M66 38c0 -12.667 3.33203 -22.1689 9.99902 -28.502s18 -9.5 34 -9.5h164c39.333 0 73.166 5.66699 101.499 17s51.833 26.333 70.5 45s32.334 40.334 41.001 65.001s13 50.334 13 77.001c0 50.667 -13.667 91.167 -41 121.5s-65.666 49.5 -114.999 57.5v2
c30.667 12.667 55.167 30.167 73.5 52.5s27.5 54.5 27.5 96.5c0 20 -3.5 40.5 -10.5 61.5s-18.5 40.167 -34.5 57.5s-37.167 31.5 -63.5 42.5s-58.833 16.5 -97.5 16.5h-129c-16 0 -27.333 -3.16699 -34 -9.5s-10 -15.833 -10 -28.5v-636zM137.999 645.998
l107.003 0.00292969c21.333 0 39.833 -3.33301 55.5 -10s29 -15.334 40 -26.001s19.167 -22.834 24.5 -36.501s8 -27.834 8 -42.501c0 -18 -3.33301 -34.5 -10 -49.5s-15.834 -28 -27.501 -39s-25.334 -19.667 -41.001 -26s-32.834 -9.5 -51.501 -9.5h-105v239z
M138.002 347.001h127.001c49.333 0 88.833 -13 118.5 -39s44.5 -60 44.5 -102c0 -46 -14.333 -80.833 -43 -104.5s-68.334 -35.5 -119.001 -35.5h-128v281z" />
    <glyph glyph-name="C" unicode="C" horiz-adv-x="593" 
d="M350 718c-52.667 0 -98.332 -10.665 -136.999 -31.998s-70.834 -49.333 -96.501 -84s-44.834 -74.334 -57.501 -119.001s-19 -90.334 -19 -137.001c0 -47.333 6.33301 -92.333 19 -135s32 -80 58 -112s59 -57.5 99 -76.5s87.333 -28.5 142 -28.5
c32.667 0 62.667 3.83301 90 11.5s50.833 16.667 70.5 27s35 21.166 46 32.499s16.5 21 16.5 29c0 12.667 -2.66699 21.834 -8 27.501s-12.666 8.5 -21.999 8.5c-6.66699 0 -14.334 -3.66699 -23.001 -11s-20.167 -15.333 -34.5 -24s-32 -16.667 -53 -24
s-47.167 -11 -78.5 -11c-42.667 0 -79.5 8 -110.5 24s-56.333 37.333 -76 64s-34.167 57.167 -43.5 91.5s-14 69.833 -14 106.5c0 36 5 72.333 15 109s24.833 69.5 44.5 98.5s43.834 52.667 72.501 71s61.667 27.5 99 27.5c29.333 0 54.166 -4.16699 74.499 -12.5
s37.333 -17.333 51 -27s25.167 -18.667 34.5 -27s17.666 -12.5 24.999 -12.5s14.5 3.16699 21.5 9.5s10.5 15.833 10.5 28.5c0 8.66699 -5.66699 19.167 -17 31.5s-26.666 24 -45.999 35s-42.166 20.5 -68.499 28.5s-54.5 12 -84.5 12z" />
    <glyph glyph-name="D" unicode="D" horiz-adv-x="630" 
d="M66 38c0 -12.667 3.33398 -22.166 10.001 -28.499s18 -9.5 34 -9.5h172c43.333 0 83.666 8 120.999 24s69.833 39.167 97.5 69.5s49.5 67.166 65.5 110.499s24 92.333 24 147c0 41.333 -5.66699 83.5 -17 126.5s-29 81.833 -53 116.5s-55.167 63 -93.5 85
s-84.5 33 -138.5 33h-178c-16 0 -27.333 -3.16699 -34 -9.5s-10 -15.833 -10 -28.5v-636zM138.001 646.001l144.001 0.00195312c42.667 0 78.667 -8.33301 108 -25s53 -38.334 71 -65.001s31 -56.834 39 -90.501s12 -67.5 12 -101.5c0 -42 -4 -81 -12 -117
s-21.333 -67.5 -40 -94.5s-42.834 -48.167 -72.501 -63.5s-66.167 -23 -109.5 -23h-140v580z" />
    <glyph glyph-name="E" unicode="E" horiz-adv-x="444" 
d="M138 322l199 0.00585938c11.333 0 20.5 3.16699 27.5 9.5s10.5 14.166 10.5 23.499s-3.5 17.166 -10.5 23.499s-16.167 9.5 -27.5 9.5h-198v258h207c11.333 0 20.5 3.16699 27.5 9.5s10.5 14.166 10.5 23.499s-3.5 17.166 -10.5 23.499s-16.167 9.5 -27.5 9.5h-236
c-16 0 -27.333 -3.16699 -34 -9.5s-10 -15.833 -10 -28.5v-636c0 -12.667 3.33301 -22.167 10 -28.5s18 -9.5 34 -9.5h246c11.333 0 20.5 3.16699 27.5 9.5s10.5 14.166 10.5 23.499s-3.5 17.166 -10.5 23.499s-16.167 9.5 -27.5 9.5h-218v256z" />
    <glyph glyph-name="F" unicode="F" horiz-adv-x="407" 
d="M138 322l192 0.00488281c11.333 0 20.5 3.16699 27.5 9.5s10.5 14.166 10.5 23.499s-3.5 17.166 -10.5 23.499s-16.167 9.5 -27.5 9.5h-192v258h217c11.333 0 20.5 3.16699 27.5 9.5s10.5 14.166 10.5 23.499s-3.5 17.166 -10.5 23.499s-16.167 9.5 -27.5 9.5h-253
c-10 -0.666992 -18.5 -4.33398 -25.5 -11.001s-10.5 -15 -10.5 -25v-636c0 -30.667 12 -46 36 -46s36 15.333 36 46v282z" />
    <glyph glyph-name="G" unicode="G" horiz-adv-x="667" 
d="M444 401c-11.333 0 -20.4971 -3.1709 -27.4971 -9.50391s-10.5 -14.166 -10.5 -23.499s3.5 -17.166 10.5 -23.499s16.167 -9.5 27.5 -9.5h126c0 -36 -3.83301 -70.5 -11.5 -103.5s-19.834 -62.167 -36.501 -87.5s-38.5 -45.666 -65.5 -60.999s-59.833 -23 -98.5 -23
c-40.667 0 -76 7.83301 -106 23.5s-55 37 -75 64s-34.833 58.5 -44.5 94.5s-14.5 74 -14.5 114c0 34 4.5 68.667 13.5 104s23 67.166 42 95.499s43.5 51.5 73.5 69.5s65.667 27 107 27c30.667 0 57 -4.16699 79 -12.5s40.833 -17.666 56.5 -27.999s29 -19.666 40 -27.999
s20.5 -12.5 28.5 -12.5c9.33301 0 17.5 3 24.5 9s10.5 15.667 10.5 29c0 7.33301 -6.16699 17.166 -18.5 29.499s-29.166 24.333 -50.499 36s-46.833 21.834 -76.5 30.501s-62.167 13 -97.5 13c-52.667 0 -98.334 -10.5 -137.001 -31.5s-70.834 -48.667 -96.501 -83
s-44.834 -73.166 -57.501 -116.499s-19 -87 -19 -131c0 -46 5.83301 -90.667 17.5 -134s30 -81.833 55 -115.5s57.333 -60.834 97 -81.501s87.167 -31 142.5 -31c39.333 0 76.5 5.33301 111.5 16s65.667 29.5 92 56.5s47.333 63.167 63 108.5s23.5 102.333 23.5 171
c0 7.33301 -0.833008 14.333 -2.5 21s-4.66699 12.5 -9 17.5s-10.5 9 -18.5 12s-18.333 4.5 -31 4.5h-137z" />
    <glyph glyph-name="H" unicode="H" horiz-adv-x="667" 
d="M138 332h391v-292c0 -30.667 12 -46 36 -46s36 15.333 36 46v632c0 30.667 -12 46 -36 46s-36 -15.333 -36 -46v-274h-391v274c0 30.667 -12 46 -36 46s-36 -15.333 -36 -46v-632c0 -30.667 12 -46 36 -46s36 15.333 36 46v292z" />
    <glyph glyph-name="I" unicode="I" 
d="M138 672c0 30.667 -12 46 -36 46s-36 -15.333 -36 -46v-632c0 -30.667 12 -46 36 -46s36 15.333 36 46v632z" />
    <glyph glyph-name="J" unicode="J" horiz-adv-x="352" 
d="M286 672c0 30.667 -11.999 45.999 -35.999 45.999s-36 -15.333 -36 -46v-508c0 -15.333 -1.33301 -29.666 -4 -42.999s-7.16699 -25 -13.5 -35s-15.166 -17.833 -26.499 -23.5s-26 -8.5 -44 -8.5c-18.667 0 -33.834 2.16699 -45.501 6.5s-21.667 9.33301 -30 15
s-15.333 10.667 -21 15s-11.834 6.5 -18.501 6.5c-8 0 -14.667 -2.83301 -20 -8.5s-8 -13.5 -8 -23.5c0 -6.66699 3.66699 -14.167 11 -22.5s17.5 -16 30.5 -23s28.5 -13 46.5 -18s37.333 -7.5 58 -7.5c48 0 86.167 15.333 114.5 46s42.5 72 42.5 124v508z" />
    <glyph glyph-name="K" unicode="K" horiz-adv-x="556" 
d="M138 345l343 -327.002c7.33301 -7.33301 14.333 -13.166 21 -17.499s14 -6.5 22 -6.5c10 0 17.833 3.16699 23.5 9.5s8.5 13.5 8.5 21.5c0 4.66699 -1.33301 9.83398 -4 15.501s-6.66699 11.167 -12 16.5l-336 320l312 280c7.33301 6 11.833 11.333 13.5 16
s2.5 9.66699 2.5 15c0 7.33301 -2.5 14.166 -7.5 20.499s-12.833 9.5 -23.5 9.5c-8 0 -15.333 -2.16699 -22 -6.5s-14 -10.166 -22 -17.499l-319 -287v265c0 30.667 -12 46 -36 46s-36 -15.333 -36 -46v-632c0 -30.667 12 -46 36 -46s36 15.333 36 46v305z" />
    <glyph glyph-name="L" unicode="L" horiz-adv-x="370" 
d="M138 672c0 30.667 -12 46.002 -36 46.002s-36 -15.333 -36 -46v-636c0 -10 3.5 -18.5 10.5 -25.5s15.5 -10.5 25.5 -10.5h224c11.333 0 20.5 3.16699 27.5 9.5s10.5 14.166 10.5 23.499s-3.5 17.166 -10.5 23.499s-16.167 9.5 -27.5 9.5h-188v606z" />
    <glyph glyph-name="M" unicode="M" horiz-adv-x="834" 
d="M417 119h-1.99902l-158 552c-9.33301 31.333 -27.666 47 -54.999 47c-8 0 -16 -0.833008 -24 -2.5s-15.333 -4.5 -22 -8.5s-12.334 -9.66699 -17.001 -17s-8 -16.666 -10 -27.999l-85 -570c-0.666992 -4.66699 -1.66699 -10.167 -3 -16.5s-2.5 -12.833 -3.5 -19.5
s-1.83301 -12.667 -2.5 -18s-1 -9 -1 -11c0 -13.333 3.83301 -22.166 11.5 -26.499s15.167 -6.5 22.5 -6.5c13.333 0 22.5 3.83301 27.5 11.5s8.5 18.167 10.5 31.5l89 601h2l183 -607c3.33301 -11.333 7.5 -20.333 12.5 -27s12.833 -10 23.5 -10c11.333 0 20 3.5 26 10.5
s11.667 19.5 17 37.5l178 598h2l89 -603c2 -13.333 5.5 -23.833 10.5 -31.5s14.167 -11.5 27.5 -11.5c7.33301 0 14.833 2.16699 22.5 6.5s11.5 13.166 11.5 26.499c0 2 -0.333008 5.66699 -1 11s-1.5 11.333 -2.5 18s-2.16699 13.167 -3.5 19.5s-2.33301 11.833 -3 16.5
l-85 570c-2 11.333 -5.33301 20.666 -10 27.999s-10.334 13 -17.001 17s-14 6.83301 -22 8.5s-16 2.5 -24 2.5c-14.667 0 -26 -4 -34 -12s-14.333 -19.667 -19 -35z" />
    <glyph glyph-name="N" unicode="N" horiz-adv-x="666" 
d="M138 586h2l387 -566c6 -8.66699 11.667 -15.167 17 -19.5s12.666 -6.5 21.999 -6.5c10 0 18.167 3 24.5 9s9.5 17.667 9.5 35v634c0 30.667 -12 46 -36 46s-36 -15.333 -36 -46v-539h-2l-382 559c-5.33301 7.33301 -11.166 13.5 -17.499 18.5s-14.5 7.5 -24.5 7.5
s-18.5 -3.5 -25.5 -10.5s-10.5 -17.5 -10.5 -31.5v-636c0 -30.667 12 -46 36 -46s36 15.333 36 46v546z" />
    <glyph glyph-name="O" unicode="O" horiz-adv-x="684" 
d="M40 356c0 -45.333 6.33301 -89.666 19 -132.999s31.5 -82 56.5 -116s56.5 -61.333 94.5 -82s82 -31 132 -31s94 10.333 132 31s69.5 48 94.5 82s43.833 72.667 56.5 116s19 87.666 19 132.999s-6.33301 89.666 -19 132.999s-31.5 82 -56.5 116s-56.5 61.333 -94.5 82
s-82 31 -132 31s-94 -10.333 -132 -31s-69.5 -48 -94.5 -82s-43.833 -72.667 -56.5 -116s-19 -87.666 -19 -132.999zM342 60c-42 0 -77.167 9.16699 -105.5 27.5s-51.333 41.833 -69 70.5s-30.334 60.5 -38.001 95.5s-11.5 69.167 -11.5 102.5s3.83301 67.5 11.5 102.5
s20.334 66.833 38.001 95.5s40.667 52.167 69 70.5s63.5 27.5 105.5 27.5s77.167 -9.16699 105.5 -27.5s51.333 -41.833 69 -70.5s30.334 -60.5 38.001 -95.5s11.5 -69.167 11.5 -102.5s-3.83301 -67.5 -11.5 -102.5s-20.334 -66.833 -38.001 -95.5
s-40.667 -52.167 -69 -70.5s-63.5 -27.5 -105.5 -27.5z" />
    <glyph glyph-name="P" unicode="P" horiz-adv-x="519" 
d="M138 272l125.998 0.000976562c41.333 0 76.833 6.16699 106.5 18.5s54.334 29 74.001 50s34.167 45.167 43.5 72.5s14 55.666 14 84.999c0 22 -3.83301 45.5 -11.5 70.5s-20.167 48.167 -37.5 69.5s-40 39 -68 53s-62.333 21 -103 21h-171
c-17.333 0 -29.166 -3.33301 -35.499 -10s-9.5 -16 -9.5 -28v-634c0 -30.667 12 -46 36 -46s36 15.333 36 46v232zM137.998 646.001h132c28.667 0 53 -4.66699 73 -14s36.5 -21.333 49.5 -36s22.5 -31.167 28.5 -49.5s9 -36.5 9 -54.5s-3 -36.167 -9 -54.5
s-15.5 -34.833 -28.5 -49.5s-29.5 -26.667 -49.5 -36s-44.333 -14 -73 -14h-132v308z" />
    <glyph glyph-name="Q" unicode="Q" horiz-adv-x="684" 
d="M585 130c20 32.667 34.832 68.168 44.499 106.501s14.5 78.166 14.5 119.499c0 45.333 -6.33301 89.666 -19 132.999s-31.5 82 -56.5 116s-56.5 61.333 -94.5 82s-82 31 -132 31s-94 -10.333 -132 -31s-69.5 -48 -94.5 -82s-43.833 -72.667 -56.5 -116
s-19 -87.666 -19 -132.999s6.33301 -89.666 19 -132.999s31.5 -82 56.5 -116s56.5 -61.333 94.5 -82s82 -31 132 -31c44 0 82.833 7.66699 116.5 23s62.834 36.333 87.501 63l66 -70c10 -10.667 20.333 -16 31 -16c7.33301 0 14.333 2.66699 21 8s10 11.666 10 18.999
c0 11.333 -5 22 -15 32zM499.999 128.001c-17.333 -22 -39.002 -39.834 -65.002 -53.501s-57 -20.5 -93 -20.5c-42 0 -77.167 9.16699 -105.5 27.5s-51.333 42 -69 71s-30.334 61.5 -38.001 97.5s-11.5 71.333 -11.5 106c0 35.333 3.83301 70.833 11.5 106.5
s20.334 68 38.001 97s40.667 52.667 69 71s63.5 27.5 105.5 27.5s77.167 -9.16699 105.5 -27.5s51.333 -42 69 -71s30.334 -61.333 38.001 -97s11.5 -71.167 11.5 -106.5c0 -30 -2.5 -59.667 -7.5 -89s-13.167 -56.666 -24.5 -81.999l-49 52
c-5.33301 6 -10.666 10 -15.999 12s-10 3 -14 3c-10 0 -18.167 -2.83301 -24.5 -8.5s-9.5 -12.5 -9.5 -20.5c0 -7.33301 4.66699 -16.333 14 -27z" />
    <glyph glyph-name="R" unicode="R" horiz-adv-x="519" 
d="M138 316l284.999 -305.999c10 -10.667 20.667 -16 32 -16c8 0 15.333 2.66699 22 8s10 12.666 10 21.999c0 7.33301 -1 13 -3 17s-5.66699 8.66699 -11 14l-246 263h66c28.667 0 54.667 5.16699 78 15.5s43.333 24.5 60 42.5s29.5 39.167 38.5 63.5
s13.5 50.833 13.5 79.5c0 24.667 -4.66699 48.667 -14 72s-23 44 -41 62s-40.333 32.333 -67 43s-57.667 16 -93 16h-157c-17.333 0 -29.166 -3.33301 -35.499 -10s-9.5 -16 -9.5 -28v-634c0 -30.667 12 -46 36 -46s36 15.333 36 46v276zM137.999 646.001h125
c98.667 0 148 -46.667 148 -140c0 -42 -12.833 -73.833 -38.5 -95.5s-62.167 -32.5 -109.5 -32.5h-125v268z" />
    <glyph glyph-name="S" unicode="S" horiz-adv-x="462" 
d="M216 -6c34 0 64.9961 5.66992 92.9961 17.0029s51.833 27.166 71.5 47.499s34.834 44.333 45.501 72s16 57.5 16 89.5c0 38 -8.33301 68.667 -25 92s-37.5 42.5 -62.5 57.5s-52.167 27.5 -81.5 37.5s-56.5 20.5 -81.5 31.5s-45.833 24.333 -62.5 40s-25 36.5 -25 62.5
c0 14.667 3.16699 28.667 9.5 42s15.333 25.166 27 35.499s25.334 18.5 41.001 24.5s32.834 9 51.501 9c19.333 0 35.5 -2.66699 48.5 -8s24.5 -11 34.5 -17l27.5 -17c8.33301 -5.33301 17.166 -8 26.499 -8c6.66699 0 13.334 3.5 20.001 10.5s10 16.167 10 27.5
c0 8.66699 -4.83301 17.5 -14.5 26.5s-22.167 17.333 -37.5 25s-32.666 14 -51.999 19s-38.666 7.5 -57.999 7.5c-26.667 -0.666992 -52.5 -5.16699 -77.5 -13.5s-47 -20.166 -66 -35.499s-34.167 -34.166 -45.5 -56.499s-17 -47.833 -17 -76.5c0 -36 8.33301 -65 25 -87
s37.5 -40.167 62.5 -54.5s52.167 -26.333 81.5 -36s56.5 -20.334 81.5 -32.001s45.833 -26 62.5 -43s25 -39.833 25 -68.5c0 -18.667 -3.83301 -37.334 -11.5 -56.001s-18.667 -35.334 -33 -50.001s-31.5 -26.5 -51.5 -35.5s-42.667 -13.5 -68 -13.5
c-12.667 0 -25.667 1.66699 -39 5s-25.5 7 -36.5 11s-20.333 8 -28 12s-12.5 7 -14.5 9c-4 3.33301 -9.66699 7 -17 11s-13 6 -17 6c-9.33301 0 -17.333 -3.5 -24 -10.5s-10 -15.167 -10 -24.5c0 -10 4.66699 -20 14 -30s22.5 -19 39.5 -27s37.667 -14.667 62 -20
s51.166 -8 80.499 -8z" />
    <glyph glyph-name="T" unicode="T" horiz-adv-x="426" 
d="M249 646h138c11.333 0 20.5 3.16699 27.5 9.5s10.5 14.166 10.5 23.499s-3.5 17.166 -10.5 23.499s-16.167 9.5 -27.5 9.5h-348c-11.333 0 -20.5 -3.16699 -27.5 -9.5s-10.5 -14.166 -10.5 -23.499s3.5 -17.166 10.5 -23.499s16.167 -9.5 27.5 -9.5h138v-606
c0 -30.667 12 -46 36 -46s36 15.333 36 46v606z" />
    <glyph glyph-name="U" unicode="U" horiz-adv-x="666" 
d="M66 242c0 -40.667 7.5 -76.5 22.5 -107.5s34.833 -57 59.5 -78s53 -36.667 85 -47s65.333 -15.5 100 -15.5s68 5.16699 100 15.5s60.333 26 85 47s44.5 47 59.5 78s22.5 66.833 22.5 107.5v430c0 30.667 -12 46 -36 46s-36 -15.333 -36 -46v-421
c0 -32.667 -5.5 -61 -16.5 -85s-25.5 -43.833 -43.5 -59.5s-38.667 -27.334 -62 -35.001s-47.666 -11.5 -72.999 -11.5c-24.667 0 -48.834 3.83301 -72.501 11.5s-44.5 19.334 -62.5 35.001s-32.5 35.5 -43.5 59.5s-16.5 52.333 -16.5 85v421c0 30.667 -12 46 -36 46
s-36 -15.333 -36 -46v-430z" />
    <glyph glyph-name="V" unicode="V" horiz-adv-x="556" 
d="M279 113h-2l-196 575c-6 20 -17.667 30 -35 30c-11.333 0 -20.166 -3.16699 -26.499 -9.5s-9.5 -14.5 -9.5 -24.5c0 -8 4.66699 -24.667 14 -50l211 -596c3.33301 -10 8.16602 -19.833 14.499 -29.5s15.833 -14.5 28.5 -14.5s22.167 4.83301 28.5 14.5
s11.166 19.5 14.499 29.5l211 596c9.33301 25.333 14 42 14 50c0 10 -3.16699 18.167 -9.5 24.5s-15.166 9.5 -26.499 9.5c-17.333 0 -29 -10 -35 -30z" />
    <glyph glyph-name="W" unicode="W" horiz-adv-x="816" 
d="M198 78h-2.00293l-96 604c-2.66699 14.667 -7.66699 24.334 -15 29.001s-15.333 7 -24 7c-9.33301 0 -17.166 -2.5 -23.499 -7.5s-9.5 -12.5 -9.5 -22.5c0 -2 0.166992 -4.33301 0.5 -7l1.5 -11.5c0.666992 -5 1.83398 -11.833 3.50098 -20.5l6.5 -35l101 -580
c2.66699 -13.333 9.33398 -23.333 20.001 -30s21.667 -10 33 -10c13.333 0 24.666 3 33.999 9s16 16.333 20 31l159 571h2l155 -571c4 -14.667 10.667 -25 20 -31s20.666 -9 33.999 -9c11.333 0 22.333 3.33301 33 10s17.334 16.667 20.001 30l105 580l8.5 48
c2.33301 13.333 3.5 22 3.5 26c0 10 -3.16699 17.5 -9.5 22.5s-14.166 7.5 -23.499 7.5c-8.66699 0 -16.667 -2.33301 -24 -7s-12.333 -14.334 -15 -29.001l-96 -604h-2l-172 606c-2.66699 8.66699 -6.66699 16.5 -12 23.5s-14 10.5 -26 10.5s-20.667 -3.5 -26 -10.5
s-9.33301 -14.833 -12 -23.5z" />
    <glyph glyph-name="X" unicode="X" horiz-adv-x="594" 
d="M297 439l-174 253c-6 9.33301 -11.5 16 -16.5 20s-12.167 6 -21.5 6s-17.333 -2.83301 -24 -8.5s-10 -12.167 -10 -19.5c0 -5.33301 1 -10.333 3 -15s5.66699 -10.667 11 -18l192 -275l-231 -327c-5.33301 -7.33301 -9 -13.333 -11 -18s-3 -9.66699 -3 -15
c0 -7.33301 3.33301 -13.833 10 -19.5s14.667 -8.5 24 -8.5s16.5 2 21.5 6s10.5 10.667 16.5 20l213 304l213 -304c6 -9.33301 11.5 -16 16.5 -20s12.167 -6 21.5 -6s17.333 2.83301 24 8.5s10 12.167 10 19.5c0 5.33301 -1 10.333 -3 15s-5.66699 10.667 -11 18l-231 327
l192 275c5.33301 7.33301 9 13.333 11 18s3 9.66699 3 15c0 7.33301 -3.33301 13.833 -10 19.5s-14.667 8.5 -24 8.5s-16.5 -2 -21.5 -6s-10.5 -10.667 -16.5 -20z" />
    <glyph glyph-name="Y" unicode="Y" horiz-adv-x="482" 
d="M241 407l-173.998 290c-4.66699 8 -9.83398 13.5 -15.501 16.5s-12.5 4.5 -20.5 4.5c-10 0 -17.5 -2.83301 -22.5 -8.5s-7.5 -12.167 -7.5 -19.5c0 -4.66699 1.33301 -10.334 4 -17.001s8.66699 -17.667 18 -33l182 -303v-297c0 -30.667 12 -46 36 -46s36 15.333 36 46
v297l182 303c9.33301 15.333 15.333 26.333 18 33s4 12.334 4 17.001c0 7.33301 -2.5 13.833 -7.5 19.5s-12.5 8.5 -22.5 8.5c-8 0 -14.833 -1.5 -20.5 -4.5s-10.834 -8.5 -15.501 -16.5z" />
    <glyph glyph-name="Z" unicode="Z" horiz-adv-x="556" 
d="M118 66l382.999 582.997c9.33301 13.333 14 25.333 14 36c0 6.66699 -2.5 12.834 -7.5 18.501s-13.833 8.5 -26.5 8.5h-401c-11.333 0 -20.5 -3.16699 -27.5 -9.5s-10.5 -14.166 -10.5 -23.499s3.5 -17.166 10.5 -23.499s16.167 -9.5 27.5 -9.5h334l-357 -544
c-10 -15.333 -17.333 -27.666 -22 -36.999s-7 -17.666 -7 -24.999c0 -11.333 4.83301 -20.833 14.5 -28.5s24.834 -11.5 45.501 -11.5h402c11.333 0 20.5 3.16699 27.5 9.5s10.5 14.166 10.5 23.499s-3.5 17.166 -10.5 23.499s-16.167 9.5 -27.5 9.5h-372z" />
    <glyph glyph-name="bracketleft" unicode="[" horiz-adv-x="222" 
d="M74 -22c0 -10 3.5 -18.5 10.5 -25.5s15.5 -10.5 25.5 -10.5h68c12 0 20.167 3.5 24.5 10.5s6.5 13.5 6.5 19.5s-2.16699 12.5 -6.5 19.5s-12.5 10.5 -24.5 10.5h-32v656h32c12 0 20.167 3.5 24.5 10.5s6.5 13.5 6.5 19.5s-2.16699 12.5 -6.5 19.5s-12.5 10.5 -24.5 10.5
h-68c-10 0 -18.5 -3.5 -25.5 -10.5s-10.5 -15.5 -10.5 -25.5v-704z" />
    <glyph glyph-name="backslash" unicode="\" horiz-adv-x="407" 
d="M105 692c-3.33301 8.66699 -7.5 15.167 -12.5 19.5s-12.167 6.5 -21.5 6.5s-16.833 -2.5 -22.5 -7.5s-8.5 -11.167 -8.5 -18.5c0 -3.33301 0.666992 -7.33301 2 -12s3 -9.66699 5 -15l255 -645c3.33301 -8.66699 7.5 -15.167 12.5 -19.5s12.167 -6.5 21.5 -6.5
s16.833 2.5 22.5 7.5s8.5 11.167 8.5 18.5c0 6.66699 -2.33301 15.667 -7 27z" />
    <glyph glyph-name="bracketright" unicode="]" horiz-adv-x="222" 
d="M148 682c0 10 -3.5 18.5 -10.5 25.5s-15.5 10.5 -25.5 10.5h-68c-12 0 -20.167 -3.5 -24.5 -10.5s-6.5 -13.5 -6.5 -19.5s2.16699 -12.5 6.5 -19.5s12.5 -10.5 24.5 -10.5h32v-656h-32c-12 0 -20.167 -3.5 -24.5 -10.5s-6.5 -13.5 -6.5 -19.5s2.16699 -12.5 6.5 -19.5
s12.5 -10.5 24.5 -10.5h68c10 0 18.5 3.5 25.5 10.5s10.5 15.5 10.5 25.5v704z" />
    <glyph glyph-name="asciicircum" unicode="^" horiz-adv-x="600" 
d="M57 316c-3.33301 -6 -5.66602 -11.167 -6.99902 -15.5s-2 -8.5 -2 -12.5c0 -9.33301 3.66699 -16 11 -20s14.666 -6 21.999 -6c10 0.666992 17.833 3.83398 23.5 9.50098s11.5 14.167 17.5 25.5l178 323l178 -323c6 -11.333 11.833 -19.833 17.5 -25.5
s13.5 -8.83398 23.5 -9.50098c7.33301 0 14.666 2 21.999 6s11 10.667 11 20c0 4 -0.666992 8.16699 -2 12.5s-3.66602 9.5 -6.99902 15.5l-211 380c-5.33301 9.33301 -10.5 15.333 -15.5 18s-10.5 4 -16.5 4s-11.5 -1.33301 -16.5 -4s-10.167 -8.66699 -15.5 -18z" />
    <glyph glyph-name="underscore" unicode="_" horiz-adv-x="500" 
d="M500 -125c8 0 14.833 2.16699 20.5 6.5s8.5 10.5 8.5 18.5s-2.83301 14.167 -8.5 18.5s-12.5 6.5 -20.5 6.5h-500c-8 0 -14.833 -2.16699 -20.5 -6.5s-8.5 -10.5 -8.5 -18.5s2.83301 -14.167 8.5 -18.5s12.5 -6.5 20.5 -6.5h500z" />
    <glyph glyph-name="grave" unicode="`" 
d="M158 608c6 -2.66699 11 -4.33398 15 -5.00098s7.66699 -1 11 -1c8.66699 0 15.5 3.83301 20.5 11.5s7.5 15.167 7.5 22.5c0 5.33301 -1.16699 10.833 -3.5 16.5s-10.5 11.167 -24.5 16.5l-138 53c-6 2.66699 -11 4.33398 -15 5.00098s-7.66699 1 -11 1
c-8.66699 0 -15.5 -3.83301 -20.5 -11.5s-7.5 -15.167 -7.5 -22.5c0 -5.33301 1.16699 -10.833 3.5 -16.5s10.5 -11.167 24.5 -16.5z" />
    <glyph glyph-name="a" unicode="a" horiz-adv-x="556" 
d="M418 459l-2.99805 0.00195312c-20.667 26.667 -42.834 46.5 -66.501 59.5s-51.167 19.5 -82.5 19.5c-38.667 0 -72.167 -7.83301 -100.5 -23.5s-51.833 -36.334 -70.5 -62.001s-32.667 -54.834 -42 -87.501s-14 -65.667 -14 -99c0 -37.333 4.83301 -72.5 14.5 -105.5
s24 -61.833 43 -86.5s42.833 -44.167 71.5 -58.5s62 -21.5 100 -21.5c31.333 0 59.666 6.66699 84.999 20s46 33 62 59h3v-33c0 -30.667 12 -46 36 -46s36 15.333 36 46v452c0 30.667 -12 46 -36 46s-36 -15.333 -36 -46v-33zM117.002 266.002c0 24 2.83301 48.667 8.5 74
s14.5 48.166 26.5 68.499s27.5 37 46.5 50s42.167 19.5 69.5 19.5c28 0 51.5 -6.5 70.5 -19.5s34.5 -29.667 46.5 -50s20.5 -43.166 25.5 -68.499s7.5 -50 7.5 -74s-2.5 -48.667 -7.5 -74s-13.5 -48.166 -25.5 -68.499s-27.5 -37 -46.5 -50s-42.5 -19.5 -70.5 -19.5
s-51.667 6.5 -71 19.5s-34.833 29.667 -46.5 50s-20.167 43.166 -25.5 68.499s-8 50 -8 74z" />
    <glyph glyph-name="b" unicode="b" horiz-adv-x="556" 
d="M66 40c0 -30.667 12.002 -46.002 36.002 -46.002s36 15.333 36 46v33h3c16 -26 36.667 -45.667 62 -59s53.666 -20 84.999 -20c38 0 71.333 7.16699 100 21.5s52.5 33.833 71.5 58.5s33.333 53.5 43 86.5s14.5 68.167 14.5 105.5c0 33.333 -4.66699 66.333 -14 99
s-23.333 61.834 -42 87.501s-42.167 46.334 -70.5 62.001s-61.833 23.5 -100.5 23.5c-31.333 0 -58.833 -6.5 -82.5 -19.5s-45.834 -32.833 -66.501 -59.5h-3v267c0 30.667 -12 46 -36 46s-36 -15.333 -36 -46v-686zM137.002 265.998c0 24 2.66699 48.667 8 74
s13.833 48.166 25.5 68.499s27.167 37 46.5 50s43 19.5 71 19.5s51.667 -6.5 71 -19.5s34.833 -29.667 46.5 -50s20.167 -43.166 25.5 -68.499s8 -50 8 -74s-2.66699 -48.667 -8 -74s-13.833 -48.166 -25.5 -68.499s-27.167 -37 -46.5 -50s-43 -19.5 -71 -19.5
s-51.667 6.5 -71 19.5s-34.833 29.667 -46.5 50s-20.167 43.166 -25.5 68.499s-8 50 -8 74z" />
    <glyph glyph-name="c" unicode="c" horiz-adv-x="444" 
d="M268 60c-23.333 0 -44.333 5.83887 -63 17.5059s-34.5 27.167 -47.5 46.5s-23 41.833 -30 67.5s-10.5 52.5 -10.5 80.5c0 21.333 3.16699 43.666 9.5 66.999s15.666 44.833 27.999 64.5s28 36 47 49s41.167 19.5 66.5 19.5c16 0 29.5 -1.5 40.5 -4.5
s20.167 -6.5 27.5 -10.5s13.5 -7.5 18.5 -10.5s9.83301 -4.5 14.5 -4.5c14 0 24.167 3.83301 30.5 11.5s9.5 17.167 9.5 28.5c0 7.33301 -3.66699 14.5 -11 21.5s-17.166 13 -29.499 18s-26.333 9 -42 12s-32.167 4.5 -49.5 4.5c-38 0 -71.667 -7.83301 -101 -23.5
s-54.166 -36.334 -74.499 -62.001s-35.833 -54.834 -46.5 -87.501s-16 -65.667 -16 -99s4.83301 -66.333 14.5 -99s24.167 -61.834 43.5 -87.501s43.333 -46.334 72 -62.001s61.667 -23.5 99 -23.5c18 0 35.167 1.33301 51.5 4s31 6.66699 44 12s23.333 12.166 31 20.499
s11.5 17.833 11.5 28.5c0 8.66699 -3.33301 15.667 -10 21s-13.334 8 -20.001 8c-4.66699 0 -10 -1.5 -16 -4.5s-13 -6.16699 -21 -9.5s-17.833 -6.5 -29.5 -9.5s-25.5 -4.5 -41.5 -4.5z" />
    <glyph glyph-name="d" unicode="d" horiz-adv-x="556" 
d="M418 459l-2.99805 0.00195312c-20.667 26.667 -42.834 46.5 -66.501 59.5s-51.167 19.5 -82.5 19.5c-38.667 0 -72.167 -7.83301 -100.5 -23.5s-51.833 -36.334 -70.5 -62.001s-32.667 -54.834 -42 -87.501s-14 -65.667 -14 -99c0 -37.333 4.83301 -72.5 14.5 -105.5
s24 -61.833 43 -86.5s42.833 -44.167 71.5 -58.5s62 -21.5 100 -21.5c31.333 0 59.666 6.66699 84.999 20s46 33 62 59h3v-33c0 -30.667 12 -46 36 -46s36 15.333 36 46v686c0 30.667 -12 46 -36 46s-36 -15.333 -36 -46v-267zM117.002 266.002c0 24 2.83301 48.667 8.5 74
s14.5 48.166 26.5 68.499s27.5 37 46.5 50s42.167 19.5 69.5 19.5c28 0 51.5 -6.5 70.5 -19.5s34.5 -29.667 46.5 -50s20.5 -43.166 25.5 -68.499s7.5 -50 7.5 -74s-2.5 -48.667 -7.5 -74s-13.5 -48.166 -25.5 -68.499s-27.5 -37 -46.5 -50s-42.5 -19.5 -70.5 -19.5
s-51.667 6.5 -71 19.5s-34.833 29.667 -46.5 50s-20.167 43.166 -25.5 68.499s-8 50 -8 74z" />
    <glyph glyph-name="e" unicode="e" horiz-adv-x="519" 
d="M446 234c10.667 0 19.1699 1.33789 25.5029 4.00488s11.333 6.16699 15 10.5s6 9.16602 7 14.499s1.5 10.333 1.5 15c0 33.333 -4.83301 65.666 -14.5 96.999s-24 59 -43 83s-42.667 43.333 -71 58s-61.166 22 -98.499 22s-70.333 -7.83301 -99 -23.5
s-52.667 -36.334 -72 -62.001s-33.833 -54.834 -43.5 -87.501s-14.5 -65.667 -14.5 -99s4.66699 -66.333 14 -99s23.666 -61.834 42.999 -87.501s44.166 -46.334 74.499 -62.001s66.833 -23.5 109.5 -23.5c31.333 0 59.666 4 84.999 12s47 17.833 65 29.5s32 23.5 42 35.5
s15 22 15 30c0 14 -3.16699 23.333 -9.5 28s-14.5 7 -24.5 7c-8.66699 0 -17.334 -4.33301 -26.001 -13s-19.5 -18 -32.5 -28s-29 -19.333 -48 -28s-42.833 -13 -71.5 -13c-22.667 0 -43.667 5 -63 15s-35.833 23.333 -49.5 40s-24.5 35.834 -32.5 57.501
s-12.333 44.167 -13 67.5h329zM117.003 294.005c0.666992 22 4.33105 44 10.998 66s16.334 41.833 29.001 59.5s28.167 31.834 46.5 42.501s39.5 16 63.5 16s45.333 -5.33301 64 -16s34.167 -24.834 46.5 -42.501s21.833 -37.5 28.5 -59.5s10.334 -44 11.001 -66h-300z" />
    <glyph glyph-name="f" unicode="f" horiz-adv-x="241" 
d="M156 472l64 0.00292969c12 0 20.167 3.5 24.5 10.5s6.5 13.5 6.5 19.5s-2.16699 12.5 -6.5 19.5s-12.5 10.5 -24.5 10.5h-64v141c0 9.33301 3.5 17.166 10.5 23.499s16.167 9.5 27.5 9.5h33c14.667 0 24.667 3.16699 30 9.5s8 14.166 8 23.499
s-3.83301 17.166 -11.5 23.499s-20.167 9.5 -37.5 9.5h-37c-26.667 0 -49.167 -8.16699 -67.5 -24.5s-27.5 -42.5 -27.5 -78.5v-137h-47c-12 0 -20.167 -3.5 -24.5 -10.5s-6.5 -13.5 -6.5 -19.5s2.16699 -12.5 6.5 -19.5s12.5 -10.5 24.5 -10.5h47v-432
c0 -30.667 12 -46 36 -46s36 15.333 36 46v432z" />
    <glyph glyph-name="g" unicode="g" horiz-adv-x="556" 
d="M418 460l-2.00098 0.00488281c-15.333 21.333 -36.166 39.666 -62.499 54.999s-55.5 23 -87.5 23c-38.667 0 -72.167 -7.83301 -100.5 -23.5s-51.833 -36.334 -70.5 -62.001s-32.667 -54.834 -42 -87.501s-14 -65.667 -14 -99c0 -37.333 4.83301 -72.5 14.5 -105.5
s24 -61.833 43 -86.5s42.833 -44.167 71.5 -58.5s62 -21.5 100 -21.5c32 0 60.833 6.66699 86.5 20s46.167 33.666 61.5 60.999h2v-56c0 -30 -4.66699 -55.667 -14 -77s-21.833 -38.833 -37.5 -52.5s-33.5 -23.667 -53.5 -30s-40.667 -9.5 -62 -9.5
c-20.667 0 -39.5 3.5 -56.5 10.5s-32 14.667 -45 23s-24.333 16 -34 23s-18.167 10.5 -25.5 10.5c-12.667 0 -21.834 -3.5 -27.501 -10.5s-8.5 -15.833 -8.5 -26.5c0 -9.33301 5.66699 -19.5 17 -30.5s26.5 -21.333 45.5 -31s40.667 -17.834 65 -24.501s49.833 -10 76.5 -10
c29.333 0 57.833 4.83301 85.5 14.5s52.334 24.334 74.001 44.001s39.167 44.667 52.5 75s20 66.166 20 107.499v467c0 30.667 -12 46 -36 46s-36 -15.333 -36 -46v-32zM116.999 266.005c0 24 2.66699 48.6699 8 74.0029s13.833 48.166 25.5 68.499s27.167 37 46.5 50
s43 19.5 71 19.5c24 0 45.5 -4.83301 64.5 -14.5s34.833 -22.334 47.5 -38.001s22.334 -33 29.001 -52s10 -37.833 10 -56.5v-102c0 -18.667 -3.33301 -37.5 -10 -56.5s-16.334 -36.167 -29.001 -51.5s-28.5 -28 -47.5 -38s-40.5 -15 -64.5 -15c-28 0 -51.667 6.5 -71 19.5
s-34.833 29.667 -46.5 50s-20.167 43.166 -25.5 68.499s-8 50 -8 74z" />
    <glyph glyph-name="h" unicode="h" horiz-adv-x="536" 
d="M138 333c0 22.667 3.66602 42.665 10.999 59.998s17 31.833 29 43.5s25.833 20.5 41.5 26.5s31.834 9 48.501 9c40 0 71.667 -11 95 -33s35 -51.667 35 -89v-310c0 -30.667 12 -46 36 -46s36 15.333 36 46v308c0 32 -5.5 59.833 -16.5 83.5s-25.5 43.334 -43.5 59.001
s-38.5 27.5 -61.5 35.5s-46.167 12 -69.5 12c-34 0 -62.333 -7.16699 -85 -21.5s-40.667 -31.166 -54 -50.499h-2v260c0 30.667 -12 46 -36 46s-36 -15.333 -36 -46v-686c0 -30.667 12 -46 36 -46s36 15.333 36 46v293z" />
    <glyph glyph-name="i" unicode="i" 
d="M138 492c0 30.667 -12 46 -36 46s-36 -15.333 -36 -46v-452c0 -30.667 12 -46 36 -46s36 15.333 36 46v452zM53 669c0 -13.333 4.83301 -24.833 14.5 -34.5s21.167 -14.5 34.5 -14.5s24.833 4.83301 34.5 14.5s14.5 21.167 14.5 34.5s-4.83301 24.833 -14.5 34.5
s-21.167 14.5 -34.5 14.5s-24.833 -4.83301 -34.5 -14.5s-14.5 -21.167 -14.5 -34.5z" />
    <glyph glyph-name="j" unicode="j" 
d="M138 491c0 31.333 -12 47 -36 47s-36 -15.667 -36 -47v-661c0 -30.667 12 -46 36 -46s36 15.333 36 46v661zM53 669c0 -13.333 4.83301 -24.833 14.5 -34.5s21.167 -14.5 34.5 -14.5s24.833 4.83301 34.5 14.5s14.5 21.167 14.5 34.5s-4.83301 24.833 -14.5 34.5
s-21.167 14.5 -34.5 14.5s-24.833 -4.83301 -34.5 -14.5s-14.5 -21.167 -14.5 -34.5z" />
    <glyph glyph-name="k" unicode="k" horiz-adv-x="444" 
d="M138 254l218.001 -220c14.667 -14.667 26.167 -25 34.5 -31s18.166 -9 29.499 -9c7.33301 0 14 2.83301 20 8.5s9 12.834 9 21.501c0 8 -2.16699 15.333 -6.5 22s-11.166 14.667 -20.499 24l-239 233l216 167c7.33301 5.33301 12.666 10.666 15.999 15.999s5 12.333 5 21
s-3 16 -9 22s-13 9 -21 9c-5.33301 0 -10.5 -1.5 -15.5 -4.5s-12.167 -8.16699 -21.5 -15.5l-215 -174v382c0 30.667 -12 46 -36 46s-36 -15.333 -36 -46v-686c0 -30.667 12 -46 36 -46s36 15.333 36 46v214z" />
    <glyph glyph-name="l" unicode="l" 
d="M138 726c0 30.667 -12 46 -36 46s-36 -15.333 -36 -46v-686c0 -30.667 12 -46 36 -46s36 15.333 36 46v686z" />
    <glyph glyph-name="m" unicode="m" horiz-adv-x="832" 
d="M452 333c0 22.667 3.67188 42.667 11.0049 60s16.833 31.833 28.5 43.5s24.667 20.5 39 26.5s28.833 9 43.5 9c14 0 28.167 -1.83301 42.5 -5.5s27.166 -10.5 38.499 -20.5s20.666 -24 27.999 -42s11 -41.667 11 -71v-293c0 -30.667 12 -46 36 -46s36 15.333 36 46v308
c0 32 -5.5 59.833 -16.5 83.5s-25.5 43.334 -43.5 59.001s-38.5 27.5 -61.5 35.5s-46.167 12 -69.5 12c-28.667 0 -57.334 -7.83301 -86.001 -23.5s-52 -38.834 -70 -69.501c-12 29.333 -30.5 52.166 -55.5 68.499s-53.167 24.5 -84.5 24.5
c-34 0 -62.333 -7.16699 -85 -21.5s-40.667 -31.166 -54 -50.499h-2v26c0 30.667 -12 46 -36 46s-36 -15.333 -36 -46v-452c0 -30.667 12 -46 36 -46s36 15.333 36 46v293c0 22.667 3.66699 42.667 11 60s16.833 31.833 28.5 43.5s24.667 20.5 39 26.5s28.833 9 43.5 9
c14 0 28.167 -1.83301 42.5 -5.5s27.166 -10.5 38.499 -20.5s20.666 -24 27.999 -42s11 -41.667 11 -71v-293c0 -30.667 12 -46 36 -46s36 15.333 36 46v293z" />
    <glyph glyph-name="n" unicode="n" horiz-adv-x="536" 
d="M138 333c0 22.667 3.66602 42.665 10.999 59.998s17 31.833 29 43.5s25.833 20.5 41.5 26.5s31.834 9 48.501 9c40 0 71.667 -11 95 -33s35 -51.667 35 -89v-310c0 -30.667 12 -46 36 -46s36 15.333 36 46v308c0 32 -5.5 59.833 -16.5 83.5s-25.5 43.334 -43.5 59.001
s-38.5 27.5 -61.5 35.5s-46.167 12 -69.5 12c-34 0 -62.333 -7.16699 -85 -21.5s-40.667 -31.166 -54 -50.499h-2v26c0 30.667 -12 46 -36 46s-36 -15.333 -36 -46v-452c0 -30.667 12 -46 36 -46s36 15.333 36 46v293z" />
    <glyph glyph-name="o" unicode="o" horiz-adv-x="536" 
d="M117 266c0 24 2.66699 48.667 8 74s13.833 48.166 25.5 68.499s27.167 37 46.5 50s43 19.5 71 19.5s51.667 -6.5 71 -19.5s34.833 -29.667 46.5 -50s20.167 -43.166 25.5 -68.499s8 -50 8 -74s-2.66699 -48.667 -8 -74s-13.833 -48.166 -25.5 -68.499
s-27.167 -37 -46.5 -50s-43 -19.5 -71 -19.5s-51.667 6.5 -71 19.5s-34.833 29.667 -46.5 50s-20.167 43.166 -25.5 68.499s-8 50 -8 74zM497 266c0 33.333 -4.5 66.333 -13.5 99s-23 61.834 -42 87.501s-42.833 46.334 -71.5 62.001s-62.667 23.5 -102 23.5
c-38.667 0 -72.5 -7.83301 -101.5 -23.5s-52.833 -36.334 -71.5 -62.001s-32.667 -54.834 -42 -87.501s-14 -65.667 -14 -99c0 -37.333 4.83301 -72.5 14.5 -105.5s24 -61.833 43 -86.5s42.833 -44.167 71.5 -58.5s62 -21.5 100 -21.5s71.333 7.16699 100 21.5
s52.5 33.833 71.5 58.5s33.333 53.5 43 86.5s14.5 68.167 14.5 105.5z" />
    <glyph glyph-name="p" unicode="p" horiz-adv-x="556" 
d="M66 -170c0 -30.667 11.998 -46.002 35.998 -46.002s36 15.333 36 46v243h3c20.667 -26.667 42.834 -46.5 66.501 -59.5s51.167 -19.5 82.5 -19.5c38.667 0 72.167 7.83301 100.5 23.5s51.833 36.334 70.5 62.001s32.667 54.834 42 87.501s14 65.667 14 99
c0 37.333 -4.83301 72.5 -14.5 105.5s-24 61.833 -43 86.5s-42.833 44.167 -71.5 58.5s-62 21.5 -100 21.5c-31.333 0 -59.666 -6.66699 -84.999 -20s-46 -33 -62 -59h-3v33c0 30.667 -12 46 -36 46s-36 -15.333 -36 -46v-662zM136.998 265.998c0 24 2.66699 48.667 8 74
s13.833 48.166 25.5 68.499s27.167 37 46.5 50s43 19.5 71 19.5s51.667 -6.5 71 -19.5s34.833 -29.667 46.5 -50s20.167 -43.166 25.5 -68.499s8 -50 8 -74s-2.66699 -48.667 -8 -74s-13.833 -48.166 -25.5 -68.499s-27.167 -37 -46.5 -50s-43 -19.5 -71 -19.5
s-51.667 6.5 -71 19.5s-34.833 29.667 -46.5 50s-20.167 43.166 -25.5 68.499s-8 50 -8 74z" />
    <glyph glyph-name="q" unicode="q" horiz-adv-x="556" 
d="M39 266c0 -33.333 4.66504 -66.3311 13.998 -98.998s23.333 -61.834 42 -87.501s42.167 -46.334 70.5 -62.001s61.833 -23.5 100.5 -23.5c31.333 0 58.833 6.5 82.5 19.5s45.834 32.833 66.501 59.5h3v-243c0 -30.667 12 -46 36 -46s36 15.333 36 46v662
c0 30.667 -12 46 -36 46s-36 -15.333 -36 -46v-33h-3c-16 26 -36.667 45.667 -62 59s-53.666 20 -84.999 20c-38 0 -71.333 -7.16699 -100 -21.5s-52.5 -33.833 -71.5 -58.5s-33.333 -53.5 -43 -86.5s-14.5 -68.167 -14.5 -105.5zM418.998 266.002
c0 -24 -2.66699 -48.667 -8 -74s-13.833 -48.166 -25.5 -68.499s-27.167 -37 -46.5 -50s-43 -19.5 -71 -19.5s-51.667 6.5 -71 19.5s-34.833 29.667 -46.5 50s-20.167 43.166 -25.5 68.499s-8 50 -8 74s2.66699 48.667 8 74s13.833 48.166 25.5 68.499s27.167 37 46.5 50
s43 19.5 71 19.5s51.667 -6.5 71 -19.5s34.833 -29.667 46.5 -50s20.167 -43.166 25.5 -68.499s8 -50 8 -74z" />
    <glyph glyph-name="r" unicode="r" horiz-adv-x="315" 
d="M138 299c0 29.333 4.33203 53.833 12.999 73.5s19 35.667 31 48s24.833 21.5 38.5 27.5s25.5 10 35.5 12c17.333 4 29.833 9 37.5 15s11.5 14 11.5 24s-3.66699 19 -11 27s-19.666 12 -36.999 12c-22.667 0 -44.5 -8.5 -65.5 -25.5s-38.167 -40.5 -51.5 -70.5h-2v50
c0 30.667 -12 46 -36 46s-36 -15.333 -36 -46v-452c0 -30.667 12 -46 36 -46s36 15.333 36 46v259z" />
    <glyph glyph-name="s" unicode="s" horiz-adv-x="444" 
d="M211 538c-20 0 -40 -3.16406 -60 -9.49707s-38 -15.5 -54 -27.5s-28.833 -26.667 -38.5 -44s-14.5 -37 -14.5 -59c0 -33.333 8.66699 -58.833 26 -76.5s39.666 -32.167 66.999 -43.5l124 -51c10 -4 19.333 -8.33301 28 -13s16.5 -10.167 23.5 -16.5
s12.5 -13.666 16.5 -21.999s6 -18.5 6 -30.5c0 -25.333 -10.5 -46.833 -31.5 -64.5s-48.833 -26.5 -83.5 -26.5c-23.333 0 -43.333 4 -60 12s-31 16.667 -43 26s-22.5 18 -31.5 26s-17.833 12 -26.5 12s-16.5 -4.5 -23.5 -13.5s-10.5 -16.167 -10.5 -21.5
c0 -8.66699 4.5 -18.667 13.5 -30s22 -22.333 39 -33s37.333 -19.667 61 -27s49.834 -11 78.501 -11c28 0 54 3.66699 78 11s44.667 17.666 62 30.999s31 29.5 41 48.5s15 40.167 15 63.5c0 21.333 -3.5 39.5 -10.5 54.5s-16.667 28.333 -29 40s-26.5 21.667 -42.5 30
s-33 16.166 -51 23.499l-109 44c-18 7.33301 -30.667 16.666 -38 27.999s-11 23 -11 35c0 12.667 3 23.667 9 33s14 17.166 24 23.499s21.167 11 33.5 14s24.833 4.5 37.5 4.5c18 0 34 -3 48 -9s26.333 -12.5 37 -19.5l29 -19.5c8.66699 -6 16.334 -9 23.001 -9
c15.333 0 25.166 3.83301 29.499 11.5s6.5 15.5 6.5 23.5c0.666992 9.33301 -4 18.833 -14 28.5s-23.5 18.5 -40.5 26.5s-37 14.5 -60 19.5s-47.5 7.5 -73.5 7.5z" />
    <glyph glyph-name="t" unicode="t" horiz-adv-x="240" 
d="M156 472h47c12 0 20.167 3.5 24.5 10.5s6.5 13.5 6.5 19.5s-2.16699 12.5 -6.5 19.5s-12.5 10.5 -24.5 10.5h-47v117c0 31.333 -12 47 -36 47s-36 -15.667 -36 -47v-117h-47c-12 0 -20.167 -3.5 -24.5 -10.5s-6.5 -13.5 -6.5 -19.5s2.16699 -12.5 6.5 -19.5
s12.5 -10.5 24.5 -10.5h47v-432c0 -30.667 12 -46 36 -46s36 15.333 36 46v432z" />
    <glyph glyph-name="u" unicode="u" horiz-adv-x="536" 
d="M66 175c0 -28.667 5.16504 -54.167 15.498 -76.5s24.5 -41.333 42.5 -57s39.333 -27.5 64 -35.5s51.334 -12 80.001 -12s55.334 4 80.001 12s46 19.833 64 35.5s32.167 34.667 42.5 57s15.5 47.833 15.5 76.5v317c0 30.667 -12 46 -36 46s-36 -15.333 -36 -46v-299
c0 -46 -11.5 -80.667 -34.5 -104s-54.833 -35 -95.5 -35s-72.5 11.667 -95.5 35s-34.5 58 -34.5 104v299c0 30.667 -12 46 -36 46s-36 -15.333 -36 -46v-317z" />
    <glyph glyph-name="v" unicode="v" horiz-adv-x="426" 
d="M214 119h-1.99805l-129 386c-3.33301 10.667 -8 18.834 -14 24.501s-14 8.5 -24 8.5s-18 -3.33301 -24 -10s-9 -14.334 -9 -23.001c0 -6.66699 1.33301 -13.667 4 -21l160 -463c3.33301 -10.667 8.66602 -17.834 15.999 -21.501s14.333 -5.5 21 -5.5
s13.667 1.83301 21 5.5s12.666 10.834 15.999 21.501l160 463c2.66699 7.33301 4 14.333 4 21c0 8.66699 -3 16.334 -9 23.001s-14 10 -24 10s-18 -2.83301 -24 -8.5s-10.667 -13.834 -14 -24.501z" />
    <glyph glyph-name="w" unicode="w" horiz-adv-x="740" 
d="M206 110h-1.99609l-124 395c-3.33301 10.667 -8 18.834 -14 24.501s-14.667 8.5 -26 8.5c-10.667 0 -19 -3.33301 -25 -10s-9 -14.334 -9 -23.001c0 -4.66699 2 -13.667 6 -27l152 -452c3.33301 -11.333 9.33301 -19.5 18 -24.5s16 -7.5 22 -7.5
c7.33301 0 14.833 2 22.5 6s13.5 12.667 17.5 26l125 400h2l121 -387c5.33301 -18 11.666 -30 18.999 -36s15.666 -9 24.999 -9c4.66699 0 11.167 1.66699 19.5 5s15.166 12.333 20.499 27l152 452c4 13.333 6 22.333 6 27c0 8.66699 -3 16.334 -9 23.001s-14.333 10 -25 10
c-11.333 0 -20 -2.83301 -26 -8.5s-10.667 -13.834 -14 -24.501l-124 -395h-2l-123 395c-6.66699 22 -20.334 33 -41.001 33c-20 0 -33.667 -11 -41 -33z" />
    <glyph glyph-name="x" unicode="x" horiz-adv-x="462" 
d="M231 230l150 -211c12 -16.667 25 -25 39 -25c9.33301 0 17 3.16699 23 9.5s9 14.166 9 23.499c0 4.66699 -0.833008 9 -2.5 13s-5.16699 9.66699 -10.5 17l-166 227l144 191c5.33301 7.33301 8.83301 13 10.5 17s2.5 8.33301 2.5 13c0 9.33301 -3 17.166 -9 23.499
s-13.667 9.5 -23 9.5c-14 0 -27 -8.33301 -39 -25l-128 -175l-128 175c-12 16.667 -25 25 -39 25c-9.33301 0 -17 -3.16699 -23 -9.5s-9 -14.166 -9 -23.499c0 -4.66699 0.833008 -9 2.5 -13s5.16699 -9.66699 10.5 -17l144 -191l-166 -227
c-5.33301 -7.33301 -8.83301 -13 -10.5 -17s-2.5 -8.33301 -2.5 -13c0 -9.33301 3 -17.166 9 -23.499s13.667 -9.5 23 -9.5c14 0 27 8.33301 39 25z" />
    <glyph glyph-name="y" unicode="y" horiz-adv-x="426" 
d="M179 14l-64.999 -171.001c-4 -10 -6 -19.667 -6 -29c0 -7.33301 2.66699 -14.166 8 -20.499s13.666 -9.5 24.999 -9.5c10 0 18 3 24 9s11 15 15 27l230 664c2.66699 7.33301 4 14.333 4 21c0 8.66699 -3 16.334 -9 23.001s-14 10 -24 10s-18 -2.83301 -24 -8.5
s-10.667 -13.834 -14 -24.501l-129 -386h-2l-129 386c-3.33301 10.667 -8 18.834 -14 24.501s-14 8.5 -24 8.5s-18 -3.33301 -24 -10s-9 -14.334 -9 -23.001c0 -6.66699 1.33301 -13.667 4 -21z" />
    <glyph glyph-name="z" unicode="z" horiz-adv-x="444" 
d="M388 461c5.33301 8 9.33301 15.168 12 21.501s4 13.833 4 22.5c0 8 -3 14.5 -9 19.5s-16.333 7.5 -31 7.5h-287c-11.333 0 -20.5 -3.16699 -27.5 -9.5s-10.5 -14.166 -10.5 -23.499s3.5 -17.166 10.5 -23.499s16.167 -9.5 27.5 -9.5h234l-267 -395
c-5.33301 -8 -9.33301 -14.833 -12 -20.5s-4 -12.834 -4 -21.501c0 -5.33301 2.5 -11.5 7.5 -18.5s16.5 -10.5 34.5 -10.5h309c11.333 0 20.5 3.16699 27.5 9.5s10.5 14.166 10.5 23.499s-3.5 17.166 -10.5 23.499s-16.167 9.5 -27.5 9.5h-258z" />
    <glyph glyph-name="braceleft" unicode="{" horiz-adv-x="258" 
d="M95 493c0 -46.667 -4.66699 -80.999 -14 -102.999s-26.666 -33 -51.999 -33c-6.66699 0 -12.5 -2.66699 -17.5 -8s-7.5 -11.666 -7.5 -18.999s2.5 -13.666 7.5 -18.999s10.833 -8 17.5 -8c25.333 0 42.666 -11 51.999 -33s14 -56.333 14 -103v-117
c0 -21.333 2.33301 -39 7 -53s11.334 -25 20.001 -33s19 -13.667 31 -17s25.333 -5 40 -5h29c12 0 20.333 3.16699 25 9.5s7 12.166 7 17.499s-2.33301 11.166 -7 17.499s-13 9.5 -25 9.5h-21c-8 0 -14.5 2.33301 -19.5 7s-9 10.667 -12 18s-5.16699 15.5 -6.5 24.5
s-2 18.167 -2 27.5v110c0 25.333 -3.33301 46.833 -10 64.5s-14.334 32.334 -23.001 44.001s-17.334 20.5 -26.001 26.5s-15.334 9.66699 -20.001 11v2c4.66699 1.33301 11.334 5 20.001 11s17.334 14.833 26.001 26.5s16.334 26.5 23.001 44.5s10 39.333 10 64v110
c0 9.33301 0.666992 18.5 2 27.5s3.5 17.167 6.5 24.5s7 13.333 12 18s11.5 7 19.5 7h21c12 0 20.333 3.16699 25 9.5s7 12.166 7 17.499s-2.33301 11.166 -7 17.499s-13 9.5 -25 9.5h-29c-14.667 0 -28 -1.66699 -40 -5s-22.333 -9 -31 -17s-15.334 -19 -20.001 -33
s-7 -31.667 -7 -53v-117z" />
    <glyph glyph-name="bar" unicode="|" horiz-adv-x="222" 
d="M78 -250c0 -11.333 3.16699 -20.5 9.5 -27.5s14.166 -10.5 23.499 -10.5s17.166 3.5 23.499 10.5s9.5 16.167 9.5 27.5v1000c0 11.333 -3.16699 20.5 -9.5 27.5s-14.166 10.5 -23.499 10.5s-17.166 -3.5 -23.499 -10.5s-9.5 -16.167 -9.5 -27.5v-1000z" />
    <glyph glyph-name="braceright" unicode="}" horiz-adv-x="258" 
d="M97 477c0 -24.667 3.33301 -46.001 10 -64.001s14.334 -32.833 23.001 -44.5s17.334 -20.5 26.001 -26.5s15.334 -9.66699 20.001 -11v-2c-4.66699 -1.33301 -11.334 -5 -20.001 -11s-17.334 -14.833 -26.001 -26.5s-16.334 -26.334 -23.001 -44.001
s-10 -39.167 -10 -64.5v-110c0 -9.33301 -0.5 -18.5 -1.5 -27.5s-3 -17.167 -6 -24.5s-7.16699 -13.333 -12.5 -18s-12 -7 -20 -7h-21c-12 0 -20.333 -3.16699 -25 -9.5s-7 -12.166 -7 -17.499s2.33301 -11.166 7 -17.499s13 -9.5 25 -9.5h29c14.667 0 28 1.66699 40 5
s22.333 9 31 17s15.334 19 20.001 33s7 31.667 7 53v117c0 46.667 4.66699 81 14 103s26.666 33 51.999 33c6.66699 0 12.5 2.66699 17.5 8s7.5 11.666 7.5 18.999s-2.5 13.666 -7.5 18.999s-10.833 8 -17.5 8c-25.333 0 -42.666 11 -51.999 33s-14 56.333 -14 103v117
c0 21.333 -2.33301 39 -7 53s-11.334 25 -20.001 33s-19 13.667 -31 17s-25.333 5 -40 5h-29c-12 0 -20.333 -3.16699 -25 -9.5s-7 -12.166 -7 -17.499s2.33301 -11.166 7 -17.499s13 -9.5 25 -9.5h21c8 0 14.667 -2.33301 20 -7s9.5 -10.667 12.5 -18s5 -15.5 6 -24.5
s1.5 -18.167 1.5 -27.5v-110z" />
    <glyph glyph-name="asciitilde" unicode="~" horiz-adv-x="600" 
d="M531 295c0 11.333 -3.16699 19.666 -9.5 24.999s-13.5 7.33301 -21.5 6c-11.333 -0.666992 -20 -5 -26 -13s-12 -16.667 -18 -26s-13 -17.666 -21 -24.999s-19.667 -11 -35 -11c-17.333 0 -33.5 4 -48.5 12s-30.167 16.667 -45.5 26s-31.333 17.833 -48 25.5
s-34.667 11.5 -54 11.5c-18.667 0 -36.167 -3.33301 -52.5 -10s-30.666 -15.334 -42.999 -26.001s-22 -22.5 -29 -35.5s-10.5 -25.833 -10.5 -38.5c0 -11.333 3.16699 -19.666 9.5 -24.999s13.5 -7.33301 21.5 -6c11.333 1.33301 20 5.83301 26 13.5s12 16.167 18 25.5
s13.167 17.666 21.5 24.999s19.833 11 34.5 11c17.333 0 33.5 -3.83301 48.5 -11.5s30.167 -16.167 45.5 -25.5s31.333 -18 48 -26s34.667 -12 54 -12c18.667 0 36.167 3.33301 52.5 10s30.666 15.334 42.999 26.001s22 22.5 29 35.5s10.5 25.833 10.5 38.5z" />
    <glyph glyph-name="Adieresis" horiz-adv-x="612" 
d="M133 155h345.999l47 -128c3.33301 -9.33301 7.66602 -17.166 12.999 -23.499s14.333 -9.5 27 -9.5c10.667 0 18.667 2.83301 24 8.5s8 12.167 8 19.5c0 8.66699 -2.33301 18.667 -7 30l-229 614c-2 6 -4.5 12 -7.5 18s-6.5 11.5 -10.5 16.5s-9 9.16699 -15 12.5
s-13.667 5 -23 5c-8.66699 0 -16.167 -1.66699 -22.5 -5s-11.5 -7.5 -15.5 -12.5s-7.5 -10.5 -10.5 -16.5s-5.5 -12 -7.5 -18l-229 -614c-4.66699 -11.333 -7 -21.333 -7 -30c0 -7.33301 2.66699 -13.833 8 -19.5s13.333 -8.5 24 -8.5c12.667 0 21.334 3.16699 26.001 9.5
s9.33398 14.166 14.001 23.499zM454.999 221h-298l148 403h2zM167.999 800c0 -13.333 4.83301 -24.833 14.5 -34.5s21.167 -14.5 34.5 -14.5s24.833 4.83301 34.5 14.5s14.5 21.167 14.5 34.5s-4.83301 24.833 -14.5 34.5s-21.167 14.5 -34.5 14.5
s-24.833 -4.83301 -34.5 -14.5s-14.5 -21.167 -14.5 -34.5zM345.999 800c0 -13.333 4.83301 -24.833 14.5 -34.5s21.167 -14.5 34.5 -14.5s24.833 4.83301 34.5 14.5s14.5 21.167 14.5 34.5s-4.83301 24.833 -14.5 34.5s-21.167 14.5 -34.5 14.5
s-24.833 -4.83301 -34.5 -14.5s-14.5 -21.167 -14.5 -34.5z" />
    <glyph glyph-name="Aring" horiz-adv-x="612" 
d="M133 155h345.999l47 -128c3.33301 -9.33301 7.66602 -17.166 12.999 -23.499s14.333 -9.5 27 -9.5c10.667 0 18.667 2.83301 24 8.5s8 12.167 8 19.5c0 8.66699 -2.33301 18.667 -7 30l-229 614c-2 6 -4.5 12 -7.5 18s-6.5 11.5 -10.5 16.5s-9 9.16699 -15 12.5
s-13.667 5 -23 5c-8.66699 0 -16.167 -1.66699 -22.5 -5s-11.5 -7.5 -15.5 -12.5s-7.5 -10.5 -10.5 -16.5s-5.5 -12 -7.5 -18l-229 -614c-4.66699 -11.333 -7 -21.333 -7 -30c0 -7.33301 2.66699 -13.833 8 -19.5s13.333 -8.5 24 -8.5c12.667 0 21.334 3.16699 26.001 9.5
s9.33398 14.166 14.001 23.499zM454.999 221h-298l148 403h2zM212.999 829c0 -12.667 2.5 -24.667 7.5 -36s11.667 -21.166 20 -29.499s18.166 -15 29.499 -20s23.333 -7.5 36 -7.5s24.667 2.5 36 7.5s21.166 11.667 29.499 20s15 18.166 20 29.499s7.5 23.333 7.5 36
s-2.5 24.667 -7.5 36s-11.667 21.166 -20 29.499s-18.166 15 -29.499 20s-23.333 7.5 -36 7.5s-24.667 -2.5 -36 -7.5s-21.166 -11.667 -29.499 -20s-15 -18.166 -20 -29.499s-7.5 -23.333 -7.5 -36zM254.999 829c0 14 5 26 15 36s22 15 36 15s26 -5 36 -15s15 -22 15 -36
s-5 -26 -15 -36s-22 -15 -36 -15s-26 5 -36 15s-15 22 -15 36z" />
    <glyph glyph-name="ccedilla" horiz-adv-x="444" 
d="M292 -4c15.333 0.666992 30 2.50488 44 5.50488s26.167 7.16699 36.5 12.5s18.5 11.666 24.5 18.999s9 16 9 26c0 8.66699 -3.33301 15.667 -10 21s-13.334 8 -20.001 8c-4.66699 0 -10 -1.5 -16 -4.5s-13 -6.16699 -21 -9.5s-17.833 -6.5 -29.5 -9.5
s-25.5 -4.5 -41.5 -4.5c-23.333 0 -44.333 5.83301 -63 17.5s-34.5 27.167 -47.5 46.5s-23 41.833 -30 67.5s-10.5 52.5 -10.5 80.5c0 21.333 3.16699 43.666 9.5 66.999s15.666 44.833 27.999 64.5s28 36 47 49s41.167 19.5 66.5 19.5c16 0 29.5 -1.5 40.5 -4.5
s20.167 -6.5 27.5 -10.5s13.5 -7.5 18.5 -10.5s9.83301 -4.5 14.5 -4.5c14 0 24.167 3.83301 30.5 11.5s9.5 17.167 9.5 28.5c0 7.33301 -3.66699 14.5 -11 21.5s-17.166 13 -29.499 18s-26.333 9 -42 12s-32.167 4.5 -49.5 4.5c-38 0 -71.667 -7.83301 -101 -23.5
s-54.166 -36.334 -74.499 -62.001s-35.833 -54.834 -46.5 -87.501s-16 -65.667 -16 -99c0 -32 4.33301 -63.5 13 -94.5s21.834 -59 39.501 -84s39.5 -45.833 65.5 -62.5s56 -26.667 90 -30l-17 -26c-4.66699 -7.33301 -8.33398 -13.833 -11.001 -19.5s-4 -10.834 -4 -15.501
c0 -5.33301 3 -8.66602 9 -9.99902s15.667 -2 29 -2c11.333 0 21.5 -1.33301 30.5 -4s13.5 -10 13.5 -22c0 -6.66699 -2.16699 -12.5 -6.5 -17.5s-11.166 -7.5 -20.499 -7.5c-10 0 -17.833 0.666992 -23.5 2s-10.5 2.66602 -14.5 3.99902l-11.5 4
c-3.66699 1.33301 -8.16699 2 -13.5 2c-10 0 -16.833 -2.5 -20.5 -7.5s-5.5 -10.5 -5.5 -16.5c0 -12 6.66699 -21 20 -27s31.666 -9 54.999 -9c30 0 54.333 7.66699 73 23s28 35.333 28 60c0 14.667 -5.5 27.667 -16.5 39s-26.167 17 -45.5 17c-8.66699 0 -16.667 -1 -24 -3
l-2 2z" />
    <glyph glyph-name="eacute" horiz-adv-x="519" 
d="M446 234c10.667 0 19.1699 1.33789 25.5029 4.00488s11.333 6.16699 15 10.5s6 9.16602 7 14.499s1.5 10.333 1.5 15c0 33.333 -4.83301 65.666 -14.5 96.999s-24 59 -43 83s-42.667 43.333 -71 58s-61.166 22 -98.499 22s-70.333 -7.83301 -99 -23.5
s-52.667 -36.334 -72 -62.001s-33.833 -54.834 -43.5 -87.501s-14.5 -65.667 -14.5 -99s4.66699 -66.333 14 -99s23.666 -61.834 42.999 -87.501s44.166 -46.334 74.499 -62.001s66.833 -23.5 109.5 -23.5c31.333 0 59.666 4 84.999 12s47 17.833 65 29.5s32 23.5 42 35.5
s15 22 15 30c0 14 -3.16699 23.333 -9.5 28s-14.5 7 -24.5 7c-8.66699 0 -17.334 -4.33301 -26.001 -13s-19.5 -18 -32.5 -28s-29 -19.333 -48 -28s-42.833 -13 -71.5 -13c-22.667 0 -43.667 5 -63 15s-35.833 23.333 -49.5 40s-24.5 35.834 -32.5 57.501
s-12.333 44.167 -13 67.5h329zM117.003 294.005c0.666992 22 4.33105 44 10.998 66s16.334 41.833 29.001 59.5s28.167 31.834 46.5 42.501s39.5 16 63.5 16s45.333 -5.33301 64 -16s34.167 -24.834 46.5 -42.501s21.833 -37.5 28.5 -59.5s10.334 -44 11.001 -66h-300z
M178 669.005c-14 -5.33301 -22.167 -10.833 -24.5 -16.5s-3.5 -11.167 -3.5 -16.5c0 -7.33301 2.5 -14.833 7.5 -22.5s11.833 -11.5 20.5 -11.5c3.33301 0 7 0.333008 11 1s9 2.33398 15 5.00098l138 53c14 5.33301 22.167 10.833 24.5 16.5s3.5 11.167 3.5 16.5
c0 7.33301 -2.5 14.833 -7.5 22.5s-11.833 11.5 -20.5 11.5c-3.33301 0 -7 -0.333008 -11 -1s-9 -2.33398 -15 -5.00098z" />
    <glyph glyph-name="egrave" horiz-adv-x="519" 
d="M446 234c10.667 0 19.1699 1.33789 25.5029 4.00488s11.333 6.16699 15 10.5s6 9.16602 7 14.499s1.5 10.333 1.5 15c0 33.333 -4.83301 65.666 -14.5 96.999s-24 59 -43 83s-42.667 43.333 -71 58s-61.166 22 -98.499 22s-70.333 -7.83301 -99 -23.5
s-52.667 -36.334 -72 -62.001s-33.833 -54.834 -43.5 -87.501s-14.5 -65.667 -14.5 -99s4.66699 -66.333 14 -99s23.666 -61.834 42.999 -87.501s44.166 -46.334 74.499 -62.001s66.833 -23.5 109.5 -23.5c31.333 0 59.666 4 84.999 12s47 17.833 65 29.5s32 23.5 42 35.5
s15 22 15 30c0 14 -3.16699 23.333 -9.5 28s-14.5 7 -24.5 7c-8.66699 0 -17.334 -4.33301 -26.001 -13s-19.5 -18 -32.5 -28s-29 -19.333 -48 -28s-42.833 -13 -71.5 -13c-22.667 0 -43.667 5 -63 15s-35.833 23.333 -49.5 40s-24.5 35.834 -32.5 57.501
s-12.333 44.167 -13 67.5h329zM117.003 294.005c0.666992 22 4.33105 44 10.998 66s16.334 41.833 29.001 59.5s28.167 31.834 46.5 42.501s39.5 16 63.5 16s45.333 -5.33301 64 -16s34.167 -24.834 46.5 -42.501s21.833 -37.5 28.5 -59.5s10.334 -44 11.001 -66h-300z
M316 608.005c6 -2.66699 11 -4.33398 15 -5.00098s7.66699 -1 11 -1c8.66699 0 15.5 3.83301 20.5 11.5s7.5 15.167 7.5 22.5c0 5.33301 -1.16699 10.833 -3.5 16.5s-10.5 11.167 -24.5 16.5l-138 53c-6 2.66699 -11 4.33398 -15 5.00098s-7.66699 1 -11 1
c-8.66699 0 -15.5 -3.83301 -20.5 -11.5s-7.5 -15.167 -7.5 -22.5c0 -5.33301 1.16699 -10.833 3.5 -16.5s10.5 -11.167 24.5 -16.5z" />
    <glyph glyph-name="ecircumflex" horiz-adv-x="519" 
d="M446 234c10.667 0 19.1699 1.33789 25.5029 4.00488s11.333 6.16699 15 10.5s6 9.16602 7 14.499s1.5 10.333 1.5 15c0 33.333 -4.83301 65.666 -14.5 96.999s-24 59 -43 83s-42.667 43.333 -71 58s-61.166 22 -98.499 22s-70.333 -7.83301 -99 -23.5
s-52.667 -36.334 -72 -62.001s-33.833 -54.834 -43.5 -87.501s-14.5 -65.667 -14.5 -99s4.66699 -66.333 14 -99s23.666 -61.834 42.999 -87.501s44.166 -46.334 74.499 -62.001s66.833 -23.5 109.5 -23.5c31.333 0 59.666 4 84.999 12s47 17.833 65 29.5s32 23.5 42 35.5
s15 22 15 30c0 14 -3.16699 23.333 -9.5 28s-14.5 7 -24.5 7c-8.66699 0 -17.334 -4.33301 -26.001 -13s-19.5 -18 -32.5 -28s-29 -19.333 -48 -28s-42.833 -13 -71.5 -13c-22.667 0 -43.667 5 -63 15s-35.833 23.333 -49.5 40s-24.5 35.834 -32.5 57.501
s-12.333 44.167 -13 67.5h329zM117.003 294.005c0.666992 22 4.33105 44 10.998 66s16.334 41.833 29.001 59.5s28.167 31.834 46.5 42.501s39.5 16 63.5 16s45.333 -5.33301 64 -16s34.167 -24.834 46.5 -42.501s21.833 -37.5 28.5 -59.5s10.334 -44 11.001 -66h-300z
M260 714.005l-126.994 -49c-14 -5.33301 -22.333 -11.5 -25 -18.5s-4 -13.167 -4 -18.5c0 -7.33301 2.66699 -14.166 8 -20.499s12.666 -9.5 21.999 -9.5c5.33301 0 10.166 0.5 14.499 1.5s8.16602 2.16699 11.499 3.5l100 45l100 -45
c3.33301 -1.33301 7.16602 -2.5 11.499 -3.5s9.16602 -1.5 14.499 -1.5c9.33301 0 16.666 3.16699 21.999 9.5s8 13.166 8 20.499c0 5.33301 -1.33301 11.5 -4 18.5s-11 13.167 -25 18.5z" />
    <glyph glyph-name="ugrave" horiz-adv-x="536" 
d="M66 175c0 -28.667 5.16504 -54.167 15.498 -76.5s24.5 -41.333 42.5 -57s39.333 -27.5 64 -35.5s51.334 -12 80.001 -12s55.334 4 80.001 12s46 19.833 64 35.5s32.167 34.667 42.5 57s15.5 47.833 15.5 76.5v317c0 30.667 -12 46 -36 46s-36 -15.333 -36 -46v-299
c0 -46 -11.5 -80.667 -34.5 -104s-54.833 -35 -95.5 -35s-72.5 11.667 -95.5 35s-34.5 58 -34.5 104v299c0 30.667 -12 46 -36 46s-36 -15.333 -36 -46v-317zM323.998 608c6 -2.66699 11 -4.33398 15 -5.00098s7.66699 -1 11 -1c8.66699 0 15.5 3.83301 20.5 11.5
s7.5 15.167 7.5 22.5c0 5.33301 -1.16699 10.833 -3.5 16.5s-10.5 11.167 -24.5 16.5l-138 53c-6 2.66699 -11 4.33398 -15 5.00098s-7.66699 1 -11 1c-8.66699 0 -15.5 -3.83301 -20.5 -11.5s-7.5 -15.167 -7.5 -22.5c0 -5.33301 1.16699 -10.833 3.5 -16.5
s10.5 -11.167 24.5 -16.5z" />
    <glyph glyph-name="ucircumflex" horiz-adv-x="536" 
d="M66 175c0 -28.667 5.16504 -54.167 15.498 -76.5s24.5 -41.333 42.5 -57s39.333 -27.5 64 -35.5s51.334 -12 80.001 -12s55.334 4 80.001 12s46 19.833 64 35.5s32.167 34.667 42.5 57s15.5 47.833 15.5 76.5v317c0 30.667 -12 46 -36 46s-36 -15.333 -36 -46v-299
c0 -46 -11.5 -80.667 -34.5 -104s-54.833 -35 -95.5 -35s-72.5 11.667 -95.5 35s-34.5 58 -34.5 104v299c0 30.667 -12 46 -36 46s-36 -15.333 -36 -46v-317zM267.998 714l-126.994 -49c-14 -5.33301 -22.333 -11.5 -25 -18.5s-4 -13.167 -4 -18.5
c0 -7.33301 2.66699 -14.166 8 -20.499s12.666 -9.5 21.999 -9.5c5.33301 0 10.166 0.5 14.499 1.5s8.16602 2.16699 11.499 3.5l100 45l100 -45c3.33301 -1.33301 7.16602 -2.5 11.499 -3.5s9.16602 -1.5 14.499 -1.5c9.33301 0 16.666 3.16699 21.999 9.5
s8 13.166 8 20.499c0 5.33301 -1.33301 11.5 -4 18.5s-11 13.167 -25 18.5z" />
    <glyph glyph-name="dagger" unicode="&#xa0;" horiz-adv-x="610" 
d="M338 391h199c15.333 0 26.833 3 34.5 9s11.5 14 11.5 24s-3.83301 18 -11.5 24s-19.167 9 -34.5 9h-199v215c0 15.333 -3 26.833 -9 34.5s-14 11.5 -24 11.5s-18 -3.83301 -24 -11.5s-9 -19.167 -9 -34.5v-215h-199c-15.333 0 -26.833 -3 -34.5 -9s-11.5 -14 -11.5 -24
s3.83301 -18 11.5 -24s19.167 -9 34.5 -9h199v-561c0 -15.333 3 -26.833 9 -34.5s14 -11.5 24 -11.5s18 3.83301 24 11.5s9 19.167 9 34.5v561z" />
    <glyph glyph-name="degree" unicode="&#xa1;" horiz-adv-x="400" 
d="M57 575c0 -20 3.66699 -38.667 11 -56s17.5 -32.5 30.5 -45.5s28.167 -23.167 45.5 -30.5s36 -11 56 -11s38.667 3.66699 56 11s32.5 17.5 45.5 30.5s23.167 28.167 30.5 45.5s11 36 11 56s-3.66699 38.667 -11 56s-17.5 32.5 -30.5 45.5s-28.167 23.167 -45.5 30.5
s-36 11 -56 11s-38.667 -3.66699 -56 -11s-32.5 -17.5 -45.5 -30.5s-23.167 -28.167 -30.5 -45.5s-11 -36 -11 -56zM105 575c0 13.333 2.5 25.666 7.5 36.999s11.833 21.333 20.5 30s18.834 15.5 30.501 20.5s23.834 7.5 36.501 7.5c13.333 0 25.666 -2.5 36.999 -7.5
s21.333 -11.833 30 -20.5s15.5 -18.667 20.5 -30s7.5 -23.666 7.5 -36.999c0 -12.667 -2.5 -24.834 -7.5 -36.501s-11.833 -21.834 -20.5 -30.501s-18.667 -15.5 -30 -20.5s-23.666 -7.5 -36.999 -7.5c-12.667 0 -24.834 2.5 -36.501 7.5s-21.834 11.833 -30.501 20.5
s-15.5 18.834 -20.5 30.501s-7.5 23.834 -7.5 36.501z" />
    <glyph glyph-name="cent" unicode="&#xa2;" horiz-adv-x="444" 
d="M235 57c-22 5.33301 -40.667 15.167 -56 29.5s-27.833 31.166 -37.5 50.499s-16.5 40.333 -20.5 63s-6 45 -6 67c0 21.333 2 43.333 6 66s10.833 44 20.5 64s22.167 37.333 37.5 52s34 24.334 56 29.001v-421zM235 -60.999c0 -13.333 5.99805 -20.002 17.998 -20.002
s18 6.66699 18 20v55c14 0 28.833 1.5 44.5 4.5s30 7.33301 43 13s23.833 12 32.5 19s13 14.5 13 22.5c0 8.66699 -2.16699 15.667 -6.5 21s-11.166 8 -20.499 8c-5.33301 0 -11 -1.5 -17 -4.5s-13 -6.16699 -21 -9.5s-17.5 -6.5 -28.5 -9.5s-24.167 -4.5 -39.5 -4.5v423
c12.667 0 24 -1.66699 34 -5s19.167 -6.83301 27.5 -10.5s15.833 -7.16699 22.5 -10.5s13.334 -5 20.001 -5c21.333 0 32 10.333 32 31c0 17.333 -12.167 31.666 -36.5 42.999s-57.5 17.333 -99.5 18v55c0 13.333 -6 20 -18 20s-18 -6.66699 -18 -20v-55
c-32.667 -4.66699 -61.334 -15.667 -86.001 -33s-45.334 -38.666 -62.001 -63.999s-29.167 -53.166 -37.5 -83.499s-12.5 -61.166 -12.5 -92.499c0 -30.667 4.16699 -61 12.5 -91s20.833 -57.5 37.5 -82.5s37.334 -46.167 62.001 -63.5s53.334 -28.333 86.001 -33v-56z" />
    <glyph glyph-name="sterling" unicode="&#xa3;" horiz-adv-x="593" 
d="M171 66c34 34.667 58.3291 66.333 72.9961 95s22 58.334 22 89.001c0 14.667 -0.833008 28.167 -2.5 40.5s-4.5 25.166 -8.5 38.499h102c11.333 0 20.5 3.16699 27.5 9.5s10.5 14.166 10.5 23.499s-3.5 17.166 -10.5 23.499s-16.167 9.5 -27.5 9.5h-122
c-9.33301 17.333 -17.166 32.666 -23.499 45.999s-11.5 25.166 -15.5 35.499s-6.83301 20 -8.5 29s-2.5 17.833 -2.5 26.5c0 21.333 3.5 39.5 10.5 54.5s16.333 27.333 28 37s25.334 16.834 41.001 21.501s32.167 7 49.5 7c44.667 0 79.667 -11.167 105 -33.5
s44.666 -53.166 57.999 -92.499c2.66699 -7.33301 6.33398 -13.333 11.001 -18s11.667 -7 21 -7c10.667 0 18.667 3.16699 24 9.5s8 14.833 8 25.5c0 17.333 -5 36.5 -15 57.5s-24.667 40.667 -44 59s-43 33.833 -71 46.5s-60 19 -96 19c-30.667 0 -58.667 -4.33301 -84 -13
s-47.166 -20.667 -65.499 -36s-32.666 -34 -42.999 -56s-15.5 -46 -15.5 -72c0 -11.333 1.16699 -22.333 3.5 -33s5.66602 -21.5 9.99902 -32.5s10 -23 17 -36l24.5 -44.5h-88c-11.333 0 -20.5 -3.16699 -27.5 -9.5s-10.5 -14.166 -10.5 -23.499s3.5 -17.166 10.5 -23.499
s16.167 -9.5 27.5 -9.5h109c4.66699 -16 7.66699 -30.167 9 -42.5s2 -23.166 2 -32.499c0 -20.667 -3 -39.667 -9 -57s-13.667 -33.666 -23 -48.999s-19.833 -29.5 -31.5 -42.5s-23.5 -25.167 -35.5 -36.5c-9.33301 -9.33301 -15.166 -16.5 -17.499 -21.5
s-3.5 -10.167 -3.5 -15.5c0 -8.66699 3 -16.167 9 -22.5s15.667 -9.5 29 -9.5h407c11.333 0 20.5 3.16699 27.5 9.5s10.5 14.166 10.5 23.499s-3.5 17.166 -10.5 23.499s-16.167 9.5 -27.5 9.5h-348z" />
    <glyph glyph-name="section" unicode="&#xa4;" horiz-adv-x="556" 
d="M218 490c-21.333 11.333 -36.665 23.998 -45.998 37.998s-14 26 -14 36c-0.666992 14 2.33301 26.333 9 37s15.834 19.834 27.501 27.501s25.167 13.5 40.5 17.5s31.666 6 48.999 6c39.333 0 70.333 -8.33301 93 -25s35 -35.667 37 -57
c1.33301 -17.333 5.83301 -29.5 13.5 -36.5s16.167 -10.5 25.5 -10.5s17.166 4.5 23.499 13.5s9.5 21.167 9.5 36.5c0 24.667 -5.83301 46.167 -17.5 64.5s-27 33.5 -46 45.5s-40.333 20.833 -64 26.5s-47.167 8.5 -70.5 8.5c-22 0 -44.833 -2.83301 -68.5 -8.5
s-45.5 -14.834 -65.5 -27.501s-36.333 -29 -49 -49s-19 -44.667 -19 -74c0 -25.333 6.66699 -47.166 20 -65.499s32.666 -35.5 57.999 -51.5c-18 -8.66699 -34.833 -17.667 -50.5 -27s-29.334 -20.166 -41.001 -32.499s-20.834 -27.166 -27.501 -44.499s-10 -38 -10 -62
c0 -40 11.833 -73.5 35.5 -100.5s56.167 -51.167 97.5 -72.5l149 -76c16 -8 29.167 -15.333 39.5 -22s18.5 -13.334 24.5 -20.001s10.167 -14 12.5 -22s3.5 -17.333 3.5 -28c0 -16 -4 -29.5 -12 -40.5s-18.333 -19.833 -31 -26.5s-26.667 -11.334 -42 -14.001s-30 -4 -44 -4
c-22 0 -41 2.5 -57 7.5s-29.5 11.167 -40.5 18.5s-19.167 15.666 -24.5 24.999s-8.66602 18.666 -9.99902 27.999c-1.33301 12.667 -5 23.334 -11 32.001s-15 13 -27 13c-9.33301 0 -18.333 -3.16699 -27 -9.5s-13 -14.166 -13 -23.499c0 -11.333 2.66699 -25.833 8 -43.5
s15.833 -35 31.5 -52s37.167 -31.5 64.5 -43.5s63 -18 107 -18c26.667 0 52.5 3.33301 77.5 10s47 16.167 66 28.5s34.167 27.833 45.5 46.5s17 40 17 64c0 28.667 -5.83301 53.334 -17.5 74.001s-28.167 38.334 -49.5 53.001c23.333 14.667 42.333 29.5 57 44.5
s26.167 29.667 34.5 44s14 28.166 17 41.499s4.5 25.333 4.5 36c0.666992 25.333 -2.66602 47.333 -9.99902 66s-17.5 35 -30.5 49s-28.167 26.5 -45.5 37.5s-35.333 21.167 -54 30.5zM182.001 175.998c-28 14.667 -47.501 30.168 -58.501 46.501s-16.5 38.166 -16.5 65.499
c0 17.333 3.83301 32.666 11.5 45.999s17.5 25 29.5 35s25 18.333 39 25s27.333 12 40 16l152 -78c23.333 -12.667 40.833 -27.167 52.5 -43.5s17.5 -37.5 17.5 -63.5c0 -14.667 -3 -29.167 -9 -43.5s-13.5 -27.5 -22.5 -39.5s-19.167 -22.667 -30.5 -32
s-22.666 -16.666 -33.999 -21.999z" />
    <glyph glyph-name="bullet" unicode="&#xa5;" horiz-adv-x="500" 
d="M72 356c0 -24.667 4.66699 -47.834 14 -69.501s22 -40.5 38 -56.5s34.833 -28.667 56.5 -38s44.834 -14 69.501 -14s47.834 4.66699 69.501 14s40.5 22 56.5 38s28.667 34.833 38 56.5s14 44.834 14 69.501s-4.66699 47.834 -14 69.501s-22 40.5 -38 56.5
s-34.833 28.667 -56.5 38s-44.834 14 -69.501 14s-47.834 -4.66699 -69.501 -14s-40.5 -22 -56.5 -38s-28.667 -34.833 -38 -56.5s-14 -44.834 -14 -69.501z" />
    <glyph glyph-name="paragraph" unicode="&#xa6;" horiz-adv-x="600" 
d="M258 -178c0 -11.333 3.16895 -20.499 9.50195 -27.499s14.166 -10.5 23.499 -10.5s17.166 3.5 23.499 10.5s9.5 16.167 9.5 27.5v830h124v-830c0 -11.333 3.16699 -20.5 9.5 -27.5s14.166 -10.5 23.499 -10.5s17.166 3.5 23.499 10.5s9.5 16.167 9.5 27.5v838
c0 21.333 -3.66699 35.333 -11 42s-22 10 -44 10h-183c-70 0 -125.5 -15.667 -166.5 -47s-61.5 -79.666 -61.5 -144.999c0 -26 5.16699 -50.333 15.5 -73s24.833 -42.334 43.5 -59.001s40.834 -29.834 66.501 -39.501s53.834 -14.5 84.501 -14.5v-512z" />
    <glyph glyph-name="germandbls" unicode="&#xa7;" horiz-adv-x="556" 
d="M138 558c0 18.667 1.83203 36.8311 5.49902 54.498s9.83398 33.5 18.501 47.5s20.334 25.167 35.001 33.5s33 12.5 55 12.5c21.333 0 39.666 -4 54.999 -12s27.833 -18.167 37.5 -30.5s16.667 -26 21 -41s6.5 -29.833 6.5 -44.5c0 -23.333 -2.16699 -42.833 -6.5 -58.5
s-10.166 -28.5 -17.499 -38.5s-16 -17.833 -26 -23.5s-21 -10.167 -33 -13.5c-14.667 -4.66699 -23.334 -9.5 -26.001 -14.5s-4 -11.167 -4 -18.5c0 -4 0.333008 -7.66699 1 -11s2.66699 -6.5 6 -9.5s8.5 -5.66699 15.5 -8s16.833 -4.16602 29.5 -5.49902
c40 -4.66699 69 -20.834 87 -48.501s27 -62.167 27 -103.5c0 -20 -1.83301 -39.5 -5.5 -58.5s-10 -36 -19 -51s-21 -27 -36 -36s-34.167 -13.5 -57.5 -13.5c-11.333 0 -20.166 -1.16699 -26.499 -3.5s-11 -5.16602 -14 -8.49902s-4.66699 -7 -5 -11s-0.5 -8 -0.5 -12
c0.666992 -10.667 5.83398 -19.5 15.501 -26.5s24.167 -10.5 43.5 -10.5c31.333 0 58.333 6.66699 81 20s41.667 30.5 57 51.5s26.666 44.833 33.999 71.5s11 53 11 79c0 21.333 -2.33301 42.833 -7 64.5s-12.334 41.834 -23.001 60.501s-24.667 35.167 -42 49.5
s-38.666 24.833 -63.999 31.5c28.667 18.667 48.667 41.334 60 68.001s17 56.667 17 90c0 27.333 -4.5 52.666 -13.5 75.999s-21.833 43.5 -38.5 60.5s-36.834 30.5 -60.501 40.5s-50.167 15 -79.5 15c-25.333 0 -49.333 -4.33301 -72 -13s-42.5 -21.667 -59.5 -39
s-30.333 -38.833 -40 -64.5s-14.5 -55.5 -14.5 -89.5v-526c0 -30.667 12 -46 36 -46s36 15.333 36 46v518z" />
    <glyph glyph-name="registered" unicode="&#xa8;" horiz-adv-x="800" 
d="M324 325l78.0029 -0.000976562l102 -167c5.33301 -9.33301 11 -15.666 17 -18.999s12 -5 18 -5c9.33301 0 16.666 2.66699 21.999 8s8 11 8 17c0 5.33301 -1.33301 10.5 -4 15.5s-5.66699 10.167 -9 15.5l-88 137c13.333 2 26 5.5 38 10.5s22.667 12 32 21
s16.833 20.5 22.5 34.5s8.5 30.333 8.5 49c0 78.667 -48.333 118 -145 118h-141c-7.33301 0 -12.333 -1.5 -15 -4.5s-4 -7.16699 -4 -12.5v-368c0 -11.333 2.66699 -21 8 -29s12.666 -12 21.999 -12s16.666 4 21.999 12s8 17.667 8 29v150zM324.003 511.999
l89.999 0.000976562c12 0 23.667 -0.833008 35 -2.5s21.5 -5 30.5 -10s16.167 -11.833 21.5 -20.5s8 -20 8 -34c0 -16.667 -3 -29.834 -9 -39.501s-14.167 -17 -24.5 -22s-22.166 -8 -35.499 -9s-27.333 -1.5 -42 -1.5h-74v139zM38.002 356c0 -50 9.5 -97 28.5 -141
s44.833 -82.333 77.5 -115s71 -58.5 115 -77.5s91 -28.5 141 -28.5s97 9.5 141 28.5s82.333 44.833 115 77.5s58.5 71 77.5 115s28.5 91 28.5 141s-9.5 97 -28.5 141s-44.833 82.333 -77.5 115s-71 58.5 -115 77.5s-91 28.5 -141 28.5s-97 -9.5 -141 -28.5
s-82.333 -44.833 -115 -77.5s-58.5 -71 -77.5 -115s-28.5 -91 -28.5 -141zM104.002 356c0 42 7.83301 81.333 23.5 118s37 68.667 64 96s58.5 48.833 94.5 64.5s74 23.5 114 23.5s78 -7.83301 114 -23.5s67.5 -37.167 94.5 -64.5s48.333 -59.333 64 -96s23.5 -76 23.5 -118
s-7.83301 -81.333 -23.5 -118s-37 -68.667 -64 -96s-58.5 -48.833 -94.5 -64.5s-74 -23.5 -114 -23.5s-78 7.83301 -114 23.5s-67.5 37.167 -94.5 64.5s-48.333 59.333 -64 96s-23.5 76 -23.5 118z" />
    <glyph glyph-name="copyright" unicode="&#xa9;" horiz-adv-x="800" 
d="M257 353c0 23.333 3.16797 44.8379 9.50098 64.5049s15.5 36.667 27.5 51s26.833 25.666 44.5 33.999s37.5 12.5 59.5 12.5c20 0 36.5 -2.5 49.5 -7.5s23.833 -11 32.5 -18s15.667 -14.833 21 -23.5l15 -23.5c4.66699 -7 9.83398 -13 15.501 -18s13.167 -7.5 22.5 -7.5
s16.666 2.5 21.999 7.5s8 12.833 8 23.5c0 8.66699 -3.83301 20.167 -11.5 34.5s-19.167 28.333 -34.5 42s-34.5 25.5 -57.5 35.5s-49.833 15 -80.5 15c-32 0 -61 -5.66699 -87 -17s-48 -27 -66 -47s-31.833 -43.667 -41.5 -71s-14.5 -57 -14.5 -89
c0 -31.333 5.16699 -60.666 15.5 -87.999s24.833 -51 43.5 -71s41.167 -35.833 67.5 -47.5s55.833 -17.5 88.5 -17.5c29.333 0 54.666 5.33301 75.999 16s39.166 23.167 53.499 37.5s25 29.166 32 44.499s10.5 27.666 10.5 36.999c0 7.33301 -1.83301 13.666 -5.5 18.999
s-10.167 8 -19.5 8c-12 0 -21.333 -5.33301 -28 -16s-14.5 -22.334 -23.5 -35.001s-20.667 -24.334 -35 -35.001s-34.5 -16 -60.5 -16c-23.333 0 -44.166 4.16699 -62.499 12.5s-34 20 -47 35s-22.833 32.5 -29.5 52.5s-10 42 -10 66zM38.001 356.005
c0 -50 9.5 -97 28.5 -141s44.833 -82.333 77.5 -115s71 -58.5 115 -77.5s91 -28.5 141 -28.5s97 9.5 141 28.5s82.333 44.833 115 77.5s58.5 71 77.5 115s28.5 91 28.5 141s-9.5 97 -28.5 141s-44.833 82.333 -77.5 115s-71 58.5 -115 77.5s-91 28.5 -141 28.5
s-97 -9.5 -141 -28.5s-82.333 -44.833 -115 -77.5s-58.5 -71 -77.5 -115s-28.5 -91 -28.5 -141zM104.001 356.005c0 42 7.83301 81.333 23.5 118s37 68.667 64 96s58.5 48.833 94.5 64.5s74 23.5 114 23.5s78 -7.83301 114 -23.5s67.5 -37.167 94.5 -64.5
s48.333 -59.333 64 -96s23.5 -76 23.5 -118s-7.83301 -81.333 -23.5 -118s-37 -68.667 -64 -96s-58.5 -48.833 -94.5 -64.5s-74 -23.5 -114 -23.5s-78 7.83301 -114 23.5s-67.5 37.167 -94.5 64.5s-48.333 59.333 -64 96s-23.5 76 -23.5 118z" />
    <glyph glyph-name="trademark" unicode="&#xaa;" horiz-adv-x="990" 
d="M194 338c0 -11.333 3.16895 -20.5 9.50195 -27.5s14.166 -10.5 23.499 -10.5s17.166 3.5 23.499 10.5s9.5 16.167 9.5 27.5v314h99c12 0 20.167 3.5 24.5 10.5s6.5 13.5 6.5 19.5s-2.16699 12.5 -6.5 19.5s-12.5 10.5 -24.5 10.5h-264c-12 0 -20.167 -3.5 -24.5 -10.5
s-6.5 -13.5 -6.5 -19.5s2.16699 -12.5 6.5 -19.5s12.5 -10.5 24.5 -10.5h99v-314zM475.002 336c0 -11.333 3.17285 -20.5 9.50586 -27.5s14.166 -10.5 23.499 -10.5s17.166 3.5 23.499 10.5s9.5 16.167 9.5 27.5v310h2l124 -315c5.33301 -14 10.666 -23 15.999 -27
s11.333 -6 18 -6s12.667 2 18 6s10.666 13 15.999 27l123 315h2v-310c0 -11.333 3.16699 -20.5 9.5 -27.5s14.166 -10.5 23.499 -10.5s17.166 3.5 23.499 10.5s9.5 16.167 9.5 27.5v320c0 20 -5 35.333 -15 46s-23 16 -39 16c-12.667 0 -25 -3.5 -37 -10.5
s-22.333 -21.167 -31 -42.5l-102 -265l-105 265c-8.66699 21.333 -19 35.5 -31 42.5s-24.333 10.5 -37 10.5c-16 0 -29 -5.33301 -39 -16s-15 -26 -15 -46v-320z" />
    <glyph glyph-name="acute" unicode="&#xab;" 
d="M20 669c-14 -5.33301 -22.167 -10.833 -24.5 -16.5s-3.5 -11.167 -3.5 -16.5c0 -7.33301 2.5 -14.833 7.5 -22.5s11.833 -11.5 20.5 -11.5c3.33301 0 7 0.333008 11 1s9 2.33398 15 5.00098l138 53c14 5.33301 22.167 10.833 24.5 16.5s3.5 11.167 3.5 16.5
c0 7.33301 -2.5 14.833 -7.5 22.5s-11.833 11.5 -20.5 11.5c-3.33301 0 -7 -0.333008 -11 -1s-9 -2.33398 -15 -5.00098z" />
    <glyph glyph-name="dieresis" unicode="&#xac;" 
d="M-36 640c0 -13.333 4.83301 -24.833 14.5 -34.5s21.167 -14.5 34.5 -14.5s24.833 4.83301 34.5 14.5s14.5 21.167 14.5 34.5s-4.83301 24.833 -14.5 34.5s-21.167 14.5 -34.5 14.5s-24.833 -4.83301 -34.5 -14.5s-14.5 -21.167 -14.5 -34.5zM142 640
c0 -13.333 4.83301 -24.833 14.5 -34.5s21.167 -14.5 34.5 -14.5s24.833 4.83301 34.5 14.5s14.5 21.167 14.5 34.5s-4.83301 24.833 -14.5 34.5s-21.167 14.5 -34.5 14.5s-24.833 -4.83301 -34.5 -14.5s-14.5 -21.167 -14.5 -34.5z" />
    <glyph glyph-name="AE" unicode="&#xae;" horiz-adv-x="741" 
d="M453 322l198.999 0.00585938c11.333 0 20.5 3.16699 27.5 9.5s10.5 14.166 10.5 23.499s-3.5 17.166 -10.5 23.499s-16.167 9.5 -27.5 9.5h-198v258h207c11.333 0 20.5 3.16699 27.5 9.5s10.5 14.166 10.5 23.499s-3.5 17.166 -10.5 23.499s-16.167 9.5 -27.5 9.5h-296
c-11.333 0 -20 -6 -26 -18l-310 -623c-7.33301 -14 -12.166 -24 -14.499 -30s-3.5 -12.667 -3.5 -20c0 -8 2.83301 -14.5 8.5 -19.5s12.167 -7.5 19.5 -7.5c11.333 0 21 4.83301 29 14.5s14.667 19.5 20 29.5l60 122h233v-119c0 -12.667 3.5 -22.667 10.5 -30
s15.5 -11 25.5 -11h254c11.333 0 20.5 3.16699 27.5 9.5s10.5 14.166 10.5 23.499s-3.5 17.166 -10.5 23.499s-16.167 9.5 -27.5 9.5h-218v256zM380.999 220.006h-204l202 408h2v-408z" />
    <glyph glyph-name="Oslash" unicode="&#xaf;" horiz-adv-x="684" 
d="M526 536c14 -26.667 24.168 -55.834 30.501 -87.501s9.5 -62.5 9.5 -92.5c0 -33.333 -3.83301 -67.5 -11.5 -102.5s-20.334 -66.833 -38.001 -95.5s-40.667 -52.167 -69 -70.5s-63.5 -27.5 -105.5 -27.5c-34.667 0 -64.5 6.33301 -89.5 19s-46.167 29.334 -63.5 50.001z
M156.001 179c-13.333 26.667 -23.001 55.333 -29.001 86s-9 61 -9 91c0 33.333 3.83301 67.5 11.5 102.5s20.334 66.833 38.001 95.5s40.667 52.167 69 70.5s63.5 27.5 105.5 27.5c34 0 63.333 -6 88 -18s45.667 -28.333 63 -49zM52 51.999
c-7.33301 -8.66699 -13.002 -15.998 -17.002 -21.998s-6 -12.667 -6 -20c0 -6.66699 2.5 -12.667 7.5 -18s11.167 -8 18.5 -8c6.66699 0 12 1.66699 16 5s8.33301 7.66602 13 12.999l60 73c24 -25.333 52.5 -45.166 85.5 -59.499s70.5 -21.5 112.5 -21.5
c50 0 94 10.333 132 31s69.5 48 94.5 82s43.833 72.667 56.5 116s19 87.666 19 132.999c0 43.333 -5.66699 85.666 -17 126.999s-28.666 78.666 -51.999 111.999l58 69c14 16.667 21 30 21 40c0 6.66699 -2.16699 12.334 -6.5 17.001s-11.166 7 -20.499 7
c-6 0 -11.5 -1.66699 -16.5 -5s-10.167 -8.33301 -15.5 -15l-57 -69c-24 24.667 -52.333 44 -85 58s-69.667 21 -111 21c-50 0 -94 -10.333 -132 -31s-69.5 -48 -94.5 -82s-43.833 -72.667 -56.5 -116s-19 -87.666 -19 -132.999c0 -43.333 5.66699 -85.333 17 -126
s28.333 -77.334 51 -110.001z" />
    <glyph glyph-name="plusminus" unicode="&#xb1;" horiz-adv-x="600" 
d="M267 338h-182c-11.333 0 -20.5 -3.16699 -27.5 -9.5s-10.5 -14.166 -10.5 -23.499s3.5 -17.166 10.5 -23.499s16.167 -9.5 27.5 -9.5h182v-130c0 -11.333 3.16699 -20.5 9.5 -27.5s14.166 -10.5 23.499 -10.5s17.166 3.5 23.499 10.5s9.5 16.167 9.5 27.5v130h182
c11.333 0 20.5 3.16699 27.5 9.5s10.5 14.166 10.5 23.499s-3.5 17.166 -10.5 23.499s-16.167 9.5 -27.5 9.5h-182v130c0 11.333 -3.16699 20.5 -9.5 27.5s-14.166 10.5 -23.499 10.5s-17.166 -3.5 -23.499 -10.5s-9.5 -16.167 -9.5 -27.5v-130zM515 0
c11.333 0 20.5 3.16699 27.5 9.5s10.5 14.166 10.5 23.499s-3.5 17.166 -10.5 23.499s-16.167 9.5 -27.5 9.5h-430c-11.333 0 -20.5 -3.16699 -27.5 -9.5s-10.5 -14.166 -10.5 -23.499s3.5 -17.166 10.5 -23.499s16.167 -9.5 27.5 -9.5h430z" />
    <glyph glyph-name="yen" unicode="&#xb4;" horiz-adv-x="536" 
d="M235 30c0 -10 3.33105 -18.5 9.99805 -25.5s14.334 -10.5 23.001 -10.5s16.334 3.5 23.001 10.5s10 15.5 10 25.5v160h141c12 0 20.167 3.5 24.5 10.5s6.5 13.5 6.5 19.5s-2.16699 12.5 -6.5 19.5s-12.5 10.5 -24.5 10.5h-141v76h141c12 0 20.167 3.5 24.5 10.5
s6.5 13.5 6.5 19.5s-2.16699 12.5 -6.5 19.5s-12.5 10.5 -24.5 10.5h-110l151 254c9.33301 15.333 15.333 26.333 18 33s4 12.334 4 17.001c0 7.33301 -2.5 13.833 -7.5 19.5s-12.5 8.5 -22.5 8.5c-6.66699 0 -12.667 -1.5 -18 -4.5s-10.333 -8.5 -15 -16.5l-174 -292
l-174 292c-4.66699 8 -9.66699 13.5 -15 16.5s-11.333 4.5 -18 4.5c-10 0 -17.5 -2.83301 -22.5 -8.5s-7.5 -12.167 -7.5 -19.5c0 -4.66699 1.33301 -10.334 4 -17.001s8.66699 -17.667 18 -33l152 -254h-111c-12 0 -20.167 -3.5 -24.5 -10.5s-6.5 -13.5 -6.5 -19.5
s2.16699 -12.5 6.5 -19.5s12.5 -10.5 24.5 -10.5h141v-76h-141c-12 0 -20.167 -3.5 -24.5 -10.5s-6.5 -13.5 -6.5 -19.5s2.16699 -12.5 6.5 -19.5s12.5 -10.5 24.5 -10.5h141v-160z" />
    <glyph glyph-name="mu" unicode="&#xb5;" horiz-adv-x="536" 
d="M66 -170c0 -30.667 12.001 -45.999 36.001 -45.999s36 15.333 36 46v220h2c18 -19.333 37.667 -33.5 59 -42.5s44.333 -13.5 69 -13.5c25.333 0 49.166 3.16699 71.499 9.5s41.833 15.166 58.5 26.499c0 -10 3.5 -18.5 10.5 -25.5s15.5 -10.5 25.5 -10.5
s18.5 3.5 25.5 10.5s10.5 15.5 10.5 25.5v462c0 30.667 -12 46 -36 46s-36 -15.333 -36 -46v-299c0 -46 -11.5 -80.667 -34.5 -104s-54.833 -35 -95.5 -35s-72.5 11.667 -95.5 35s-34.5 58 -34.5 104v299c0 30.667 -12 46 -36 46s-36 -15.333 -36 -46v-662z" />
    <glyph glyph-name="ordfeminine" unicode="&#xbb;" horiz-adv-x="361" 
d="M322 690c0 8 -2.66699 14.666 -8 19.999s-12.666 8 -21.999 8s-16.666 -2.66699 -21.999 -8s-8 -12 -8 -20v-15h-2c-22 28.667 -53 43 -93 43c-22.667 0 -42.834 -4.66699 -60.501 -14s-32.834 -21.666 -45.501 -36.999s-22.334 -32.833 -29.001 -52.5
s-10 -39.834 -10 -60.501c0 -20 3.33301 -39.833 10 -59.5s16.334 -37.167 29.001 -52.5s27.834 -27.666 45.501 -36.999s37.834 -14 60.501 -14c19.333 0 37.333 4.5 54 13.5s29.667 21.5 39 37.5h2v-23c0 -8 2.66699 -14.667 8 -20s12.666 -8 21.999 -8
s16.666 2.66699 21.999 8s8 12 8 20v271zM262 554.999c0 -35.333 -6.83203 -63.5 -20.499 -84.5s-36.834 -31.5 -69.501 -31.5c-14.667 0 -27.334 3.5 -38.001 10.5s-19.334 16.167 -26.001 27.5s-11.667 23.833 -15 37.5s-5 27.167 -5 40.5s1.5 26.833 4.5 40.5
s7.83301 26 14.5 37s15.334 20 26.001 27s23.667 10.5 39 10.5c32.667 0 55.834 -10.5 69.501 -31.5s20.5 -48.833 20.5 -83.5z" />
    <glyph glyph-name="ordmasculine" unicode="&#xbc;" horiz-adv-x="348" 
d="M88 555c0 13.333 1.66699 26.834 5 40.501s8.5 26 15.5 37s15.833 20 26.5 27s23.667 10.5 39 10.5s28.333 -3.5 39 -10.5s19.5 -16.167 26.5 -27.5s12.167 -23.833 15.5 -37.5s5 -27.5 5 -41.5c0 -12.667 -1.66699 -25.834 -5 -39.501s-8.5 -26 -15.5 -37
s-15.833 -20 -26.5 -27s-23.667 -10.5 -39 -10.5s-28.333 3.5 -39 10.5s-19.5 16.167 -26.5 27.5s-12.167 23.833 -15.5 37.5s-5 27.167 -5 40.5zM22 555.001c0 -20.667 3.16699 -40.835 9.5 -60.502s16 -37.167 29 -52.5s29 -27.666 48 -36.999s40.833 -14 65.5 -14
c25.333 0 47.5 4.66699 66.5 14s34.833 21.666 47.5 36.999s22.167 32.666 28.5 51.999s9.5 39 9.5 59c0 20.667 -3.16699 40.834 -9.5 60.501s-15.833 37.334 -28.5 53.001s-28.5 28.167 -47.5 37.5s-41.167 14 -66.5 14c-24.667 0 -46.5 -4.66699 -65.5 -14
s-35 -21.666 -48 -36.999s-22.667 -32.833 -29 -52.5s-9.5 -39.5 -9.5 -59.5z" />
    <glyph glyph-name="ae" unicode="&#xbe;" horiz-adv-x="889" 
d="M117 266c0 24 2.83301 48.667 8.5 74s14.5 48.166 26.5 68.499s27.5 37 46.5 50s42.167 19.5 69.5 19.5c28 0 51.5 -6.5 70.5 -19.5s34.5 -29.667 46.5 -50s20.5 -43.166 25.5 -68.499s7.5 -50 7.5 -74s-2.5 -48.667 -7.5 -74s-13.5 -48.166 -25.5 -68.499
s-27.5 -37 -46.5 -50s-42.5 -19.5 -70.5 -19.5s-51.667 6.5 -71 19.5s-34.833 29.667 -46.5 50s-20.167 43.166 -25.5 68.499s-8 50 -8 74zM418 40c0 -15.333 2.99707 -26.8291 8.99707 -34.4961s14 -11.5 24 -11.5s18 3.83301 24 11.5s9 19.167 9 34.5v28h2
c15.333 -20.667 36.666 -38.167 63.999 -52.5s63.666 -21.5 108.999 -21.5c27.333 0 52.5 4 75.5 12s43.167 17.833 60.5 29.5s30.833 23.5 40.5 35.5s14.5 22 14.5 30c0 14 -3.16699 23.333 -9.5 28s-14.5 7 -24.5 7c-8.66699 0 -17.334 -4.33301 -26.001 -13
s-19.5 -18 -32.5 -28s-28.667 -19.333 -47 -28s-41.166 -13 -68.499 -13c-22.667 0 -43.667 5 -63 15s-35.833 23.333 -49.5 40s-24.5 35.834 -32.5 57.501s-12.333 44.167 -13 67.5h325c10.667 0 19.167 1.33301 25.5 4s11.333 6.16699 15 10.5s6 9.16602 7 14.499
s1.5 10.333 1.5 15c0 33.333 -4.83301 65.666 -14.5 96.999s-24 59 -43 83s-42.667 43.333 -71 58s-61.166 22 -98.499 22c-13.333 0 -27.166 -2 -41.499 -6s-27.666 -9.33301 -39.999 -16s-23.666 -14.334 -33.999 -23.001s-18.166 -18 -23.499 -28h-8v27
c0 15.333 -3 26.833 -9 34.5s-14 11.5 -24 11.5s-18 -3.83301 -24 -11.5s-9 -19.167 -9 -34.5v-31h-2c-21.333 25.333 -43.333 44.5 -66 57.5s-50.667 19.5 -84 19.5c-38.667 0 -72.167 -7.83301 -100.5 -23.5s-51.833 -36.334 -70.5 -62.001s-32.667 -54.834 -42 -87.501
s-14 -65.667 -14 -99c0 -37.333 4.83301 -72.5 14.5 -105.5s24 -61.833 43 -86.5s42.833 -44.167 71.5 -58.5s62 -21.5 100 -21.5c30 0 58.167 6.5 84.5 19.5s47.5 33.5 63.5 61.5h2v-35zM483.997 294.004c0.666992 22 4.33203 44 10.999 66s16.167 41.833 28.5 59.5
s27.333 31.834 45 42.501s38.167 16 61.5 16c24 0 45.333 -5.33301 64 -16s34.167 -24.834 46.5 -42.501s21.833 -37.5 28.5 -59.5s10.334 -44 11.001 -66h-296z" />
    <glyph glyph-name="oslash" unicode="&#xbf;" horiz-adv-x="536" 
d="M139 149c-8 18.667 -13.667 38.001 -17 58.001s-5 39.667 -5 59c0 24 2.66699 48.667 8 74s13.833 48.166 25.5 68.499s27.167 37 46.5 50s43 19.5 71 19.5c22 0 41 -4 57 -12s29.667 -18.667 41 -32zM408 487.001c-17.333 16 -37.6699 28.502 -61.0029 37.502
s-49.666 13.5 -78.999 13.5c-38.667 0 -72.5 -7.83301 -101.5 -23.5s-52.833 -36.334 -71.5 -62.001s-32.667 -54.834 -42 -87.501s-14 -65.667 -14 -99c0 -34.667 4 -67.5 12 -98.5s20.667 -58.167 38 -81.5l-41 -51c-5.33301 -6.66699 -9.5 -12.667 -12.5 -18
s-4.5 -10.666 -4.5 -15.999c0 -7.33301 2.66699 -13.666 8 -18.999s11.333 -8 18 -8c10.667 0 20.334 6 29.001 18l41 51c17.333 -15.333 37.833 -27.333 61.5 -36s50.167 -13 79.5 -13c38 0 71.333 7.16699 100 21.5s52.5 33.833 71.5 58.5s33.333 53.5 43 86.5
s14.5 68.167 14.5 105.5c0 32 -4.16699 63.5 -12.5 94.5s-21.166 58.833 -38.499 83.5l42 53c5.33301 6.66699 9.5 12.667 12.5 18s4.5 10.666 4.5 15.999c0 7.33301 -2.66699 13.666 -8 18.999s-11.333 8 -18 8c-10 0 -19.667 -6 -29 -18zM396.996 383.003
c8 -17.333 13.665 -36.334 16.998 -57.001s5 -40.667 5 -60c0 -24 -2.66699 -48.667 -8 -74s-13.833 -48.166 -25.5 -68.499s-27.167 -37 -46.5 -50s-43 -19.5 -71 -19.5c-21.333 0 -40.166 4 -56.499 12s-30.166 18.667 -41.499 32z" />
    <glyph glyph-name="questiondown" unicode="&#xc0;" horiz-adv-x="444" 
d="M269 286c0 30.667 -11.999 46 -35.999 46s-36 -15.333 -36 -46v-106c-22 -5.33301 -43.333 -12.5 -64 -21.5s-38.834 -21 -54.501 -36s-28.167 -33.167 -37.5 -54.5s-14 -47.333 -14 -78c0 -26 4.83301 -49.833 14.5 -71.5s23.334 -40.167 41.001 -55.5
s38.667 -27.333 63 -36s51.166 -13 80.499 -13c25.333 0 49.5 3.5 72.5 10.5s43.333 17 61 30s31.667 28.667 42 47s15.5 38.5 15.5 60.5c0 10 -2.66699 18.833 -8 26.5s-13.666 11.5 -24.999 11.5s-19.833 -2.66699 -25.5 -8s-10.167 -16.333 -13.5 -33
c-2.66699 -13.333 -8 -24.833 -16 -34.5s-17.5 -17.834 -28.5 -24.501s-22.833 -11.667 -35.5 -15s-25.667 -5 -39 -5c-14 0 -28.167 2.33301 -42.5 7s-27.333 11.667 -39 21s-21.167 21 -28.5 35s-11 30.333 -11 49c0 31.333 10.167 57.833 30.5 79.5
s51.833 36.834 94.5 45.501c17.333 3.33301 28.166 7.83301 32.499 13.5s6.5 15.167 6.5 28.5v127zM279.001 492c0 12.667 -4.5 23.5 -13.5 32.5s-19.833 13.5 -32.5 13.5s-23.5 -4.5 -32.5 -13.5s-13.5 -19.833 -13.5 -32.5s4.5 -23.5 13.5 -32.5s19.833 -13.5 32.5 -13.5
s23.5 4.5 32.5 13.5s13.5 19.833 13.5 32.5z" />
    <glyph glyph-name="exclamdown" unicode="&#xc1;" horiz-adv-x="278" 
d="M185 492c0 12.667 -4.66699 23.5 -14 32.5s-20 13.5 -32 13.5s-22.667 -4.5 -32 -13.5s-14 -19.833 -14 -32.5c0 -12 4.66699 -22.667 14 -32s20 -14 32 -14s22.667 4.66699 32 14s14 20 14 32zM175 284c0 30.667 -12 46 -36 46s-36 -15.333 -36 -46v-424
c0 -30.667 12 -46 36 -46s36 15.333 36 46v424z" />
    <glyph glyph-name="logicalnot" unicode="&#xc2;" horiz-adv-x="600" 
d="M487 145c0 -11.333 3.16895 -20.502 9.50195 -27.502s14.166 -10.5 23.499 -10.5s17.166 3.5 23.499 10.5s9.5 16.167 9.5 27.5v194c0 15.333 -3.5 27 -10.5 35s-20.167 12 -39.5 12h-418c-11.333 0 -20.5 -3.16699 -27.5 -9.5s-10.5 -14.166 -10.5 -23.499
s3.5 -17.166 10.5 -23.499s16.167 -9.5 27.5 -9.5h402v-175z" />
    <glyph glyph-name="florin" unicode="&#xc4;" horiz-adv-x="536" 
d="M152 488c-11.333 0 -20.998 -2.66895 -28.998 -8.00195s-12 -12.666 -12 -21.999s4 -16.666 12 -21.999s17.667 -8 29 -8h49l-66 -384c-4.66699 -29.333 -10.334 -53 -17.001 -71s-14 -32 -22 -42s-16.667 -16.667 -26 -20s-19.333 -5 -30 -5h-26
c-11.333 0 -20.5 -3.16699 -27.5 -9.5s-10.5 -14.166 -10.5 -23.499s3.5 -17.166 10.5 -23.499s16.167 -9.5 27.5 -9.5h27c18 0 35.5 3.16699 52.5 9.5s32.5 17.5 46.5 33.5s26.667 37.5 38 64.5s20.666 61.167 27.999 102.5l67 378h64c11.333 0 21 2.66699 29 8
s12 12.666 12 21.999s-4 16.666 -12 21.999s-17.667 8 -29 8h-53l22 122c3.33301 19.333 7.83301 35.333 13.5 48s12 22.5 19 29.5s14.5 11.833 22.5 14.5s16.333 4 25 4h32c11.333 0 20.5 3.16699 27.5 9.5s10.5 14.166 10.5 23.499s-3.5 17.166 -10.5 23.499
s-16.167 9.5 -27.5 9.5h-41c-15.333 0 -30.5 -2.5 -45.5 -7.5s-29 -13.667 -42 -26s-24.5 -29.166 -34.5 -50.499s-17.667 -48.666 -23 -81.999l-20 -118h-60z" />
    <glyph glyph-name="guillemotleft" unicode="&#xc7;" horiz-adv-x="389" 
d="M282 94c5.33301 -8.66699 10.5 -15.502 15.5 -20.502s11.833 -7.5 20.5 -7.5c9.33301 0 16.666 2.83301 21.999 8.5s8 11.5 8 17.5c0 4.66699 -0.5 8.83398 -1.5 12.501s-3.83301 9.16699 -8.5 16.5l-84 145l84 145c4.66699 7.33301 7.5 12.833 8.5 16.5
s1.5 7.83398 1.5 12.501c0 6 -2.66699 11.833 -8 17.5s-12.666 8.5 -21.999 8.5c-8.66699 0 -15.5 -2.5 -20.5 -7.5s-10.167 -11.833 -15.5 -20.5l-81 -143c-7.33301 -14 -11 -23.667 -11 -29s3.66699 -15 11 -29zM133 93.998c5.33301 -8.66699 10.5 -15.502 15.5 -20.502
s11.833 -7.5 20.5 -7.5c9.33301 0 16.666 2.83301 21.999 8.5s8 11.5 8 17.5c0 4.66699 -0.5 8.83398 -1.5 12.501s-3.83301 9.16699 -8.5 16.5l-84 145l84 145c4.66699 7.33301 7.5 12.833 8.5 16.5s1.5 7.83398 1.5 12.501c0 6 -2.66699 11.833 -8 17.5
s-12.666 8.5 -21.999 8.5c-8.66699 0 -15.5 -2.5 -20.5 -7.5s-10.167 -11.833 -15.5 -20.5l-81 -143c-7.33301 -14 -11 -23.667 -11 -29s3.66699 -15 11 -29z" />
    <glyph glyph-name="guillemotright" unicode="&#xc8;" horiz-adv-x="389" 
d="M107 438c-5.33301 8.66699 -10.5 15.502 -15.5 20.502s-11.833 7.5 -20.5 7.5c-9.33301 0 -16.666 -2.83301 -21.999 -8.5s-8 -11.5 -8 -17.5c0 -4.66699 0.5 -8.83398 1.5 -12.501s3.83301 -9.16699 8.5 -16.5l84 -145l-84 -145
c-4.66699 -7.33301 -7.5 -12.833 -8.5 -16.5s-1.5 -7.83398 -1.5 -12.501c0 -6 2.66699 -11.833 8 -17.5s12.666 -8.5 21.999 -8.5c8.66699 0 15.5 2.5 20.5 7.5s10.167 11.833 15.5 20.5l81 143c7.33301 14 11 23.667 11 29s-3.66699 15 -11 29zM256 438.002
c-5.33301 8.66699 -10.5 15.502 -15.5 20.502s-11.833 7.5 -20.5 7.5c-9.33301 0 -16.666 -2.83301 -21.999 -8.5s-8 -11.5 -8 -17.5c0 -4.66699 0.5 -8.83398 1.5 -12.501s3.83301 -9.16699 8.5 -16.5l84 -145l-84 -145c-4.66699 -7.33301 -7.5 -12.833 -8.5 -16.5
s-1.5 -7.83398 -1.5 -12.501c0 -6 2.66699 -11.833 8 -17.5s12.666 -8.5 21.999 -8.5c8.66699 0 15.5 2.5 20.5 7.5s10.167 11.833 15.5 20.5l81 143c7.33301 14 11 23.667 11 29s-3.66699 15 -11 29z" />
    <glyph glyph-name="ellipsis" unicode="&#xc9;" horiz-adv-x="1000" 
d="M121 40c0 -12.667 4.5 -23.5 13.5 -32.5s19.833 -13.5 32.5 -13.5s23.5 4.5 32.5 13.5s13.5 19.833 13.5 32.5s-4.5 23.5 -13.5 32.5s-19.833 13.5 -32.5 13.5s-23.5 -4.5 -32.5 -13.5s-13.5 -19.833 -13.5 -32.5zM454 40c0 -12.667 4.5 -23.5 13.5 -32.5
s19.833 -13.5 32.5 -13.5s23.5 4.5 32.5 13.5s13.5 19.833 13.5 32.5s-4.5 23.5 -13.5 32.5s-19.833 13.5 -32.5 13.5s-23.5 -4.5 -32.5 -13.5s-13.5 -19.833 -13.5 -32.5zM787 40c0 -12.667 4.5 -23.5 13.5 -32.5s19.833 -13.5 32.5 -13.5s23.5 4.5 32.5 13.5
s13.5 19.833 13.5 32.5s-4.5 23.5 -13.5 32.5s-19.833 13.5 -32.5 13.5s-23.5 -4.5 -32.5 -13.5s-13.5 -19.833 -13.5 -32.5z" />
    <glyph glyph-name="Agrave" unicode="&#xcb;" horiz-adv-x="612" 
d="M133 155h345.999l47 -128c3.33301 -9.33301 7.66602 -17.166 12.999 -23.499s14.333 -9.5 27 -9.5c10.667 0 18.667 2.83301 24 8.5s8 12.167 8 19.5c0 8.66699 -2.33301 18.667 -7 30l-229 614c-2 6 -4.5 12 -7.5 18s-6.5 11.5 -10.5 16.5s-9 9.16699 -15 12.5
s-13.667 5 -23 5c-8.66699 0 -16.167 -1.66699 -22.5 -5s-11.5 -7.5 -15.5 -12.5s-7.5 -10.5 -10.5 -16.5s-5.5 -12 -7.5 -18l-229 -614c-4.66699 -11.333 -7 -21.333 -7 -30c0 -7.33301 2.66699 -13.833 8 -19.5s13.333 -8.5 24 -8.5c12.667 0 21.334 3.16699 26.001 9.5
s9.33398 14.166 14.001 23.499zM454.999 221h-298l148 403h2zM361.999 768c6 -2.66699 11 -4.33398 15 -5.00098s7.66699 -1 11 -1c8.66699 0 15.5 3.83301 20.5 11.5s7.5 15.167 7.5 22.5c0 5.33301 -1.16699 10.833 -3.5 16.5s-10.5 11.167 -24.5 16.5l-138 53
c-6 2.66699 -11 4.33398 -15 5.00098s-7.66699 1 -11 1c-8.66699 0 -15.5 -3.83301 -20.5 -11.5s-7.5 -15.167 -7.5 -22.5c0 -5.33301 1.16699 -10.833 3.5 -16.5s10.5 -11.167 24.5 -16.5z" />
    <glyph glyph-name="Atilde" unicode="&#xcc;" horiz-adv-x="612" 
d="M133 155h345.999l47 -128c3.33301 -9.33301 7.66602 -17.166 12.999 -23.499s14.333 -9.5 27 -9.5c10.667 0 18.667 2.83301 24 8.5s8 12.167 8 19.5c0 8.66699 -2.33301 18.667 -7 30l-229 614c-2 6 -4.5 12 -7.5 18s-6.5 11.5 -10.5 16.5s-9 9.16699 -15 12.5
s-13.667 5 -23 5c-8.66699 0 -16.167 -1.66699 -22.5 -5s-11.5 -7.5 -15.5 -12.5s-7.5 -10.5 -10.5 -16.5s-5.5 -12 -7.5 -18l-229 -614c-4.66699 -11.333 -7 -21.333 -7 -30c0 -7.33301 2.66699 -13.833 8 -19.5s13.333 -8.5 24 -8.5c12.667 0 21.334 3.16699 26.001 9.5
s9.33398 14.166 14.001 23.499zM454.999 221h-298l148 403h2zM245.999 800c10 0 20.167 -1.33398 30.5 -4.00098s20.666 -5.66699 30.999 -9s20.666 -6.33301 30.999 -9s20.833 -4 31.5 -4s20.834 1.83301 30.501 5.5s18.167 8.16699 25.5 13.5s13.166 11.333 17.499 18
s6.5 13.334 6.5 20.001c0 22 -9.66699 33 -29 33c-6 0 -11 -1.33301 -15 -4s-7.83301 -5.5 -11.5 -8.5s-7.66699 -5.83301 -12 -8.5s-9.83301 -4 -16.5 -4c-10 0 -20.167 1.33301 -30.5 4s-20.666 5.83398 -30.999 9.50098s-20.666 6.83398 -30.999 9.50098
s-20.833 4 -31.5 4s-20.834 -1.83301 -30.501 -5.5s-18.167 -8.33398 -25.5 -14.001s-13.166 -12.334 -17.499 -20.001s-6.5 -15.5 -6.5 -23.5c0 -18 9.66699 -27 29 -27c6 0 11 1.33301 15 4s7.83301 5.5 11.5 8.5s7.66699 5.66699 12 8s9.83301 3.5 16.5 3.5z" />
    <glyph glyph-name="Otilde" unicode="&#xcd;" horiz-adv-x="684" 
d="M40 356c0 -45.333 6.33301 -89.666 19 -132.999s31.5 -82 56.5 -116s56.5 -61.333 94.5 -82s82 -31 132 -31s94 10.333 132 31s69.5 48 94.5 82s43.833 72.667 56.5 116s19 87.666 19 132.999s-6.33301 89.666 -19 132.999s-31.5 82 -56.5 116s-56.5 61.333 -94.5 82
s-82 31 -132 31s-94 -10.333 -132 -31s-69.5 -48 -94.5 -82s-43.833 -72.667 -56.5 -116s-19 -87.666 -19 -132.999zM342 60c-42 0 -77.167 9.16699 -105.5 27.5s-51.333 41.833 -69 70.5s-30.334 60.5 -38.001 95.5s-11.5 69.167 -11.5 102.5s3.83301 67.5 11.5 102.5
s20.334 66.833 38.001 95.5s40.667 52.167 69 70.5s63.5 27.5 105.5 27.5s77.167 -9.16699 105.5 -27.5s51.333 -41.833 69 -70.5s30.334 -60.5 38.001 -95.5s11.5 -69.167 11.5 -102.5s-3.83301 -67.5 -11.5 -102.5s-20.334 -66.833 -38.001 -95.5
s-40.667 -52.167 -69 -70.5s-63.5 -27.5 -105.5 -27.5zM282 800c10 0 20.167 -1.33398 30.5 -4.00098s20.666 -5.66699 30.999 -9s20.666 -6.33301 30.999 -9s20.833 -4 31.5 -4s20.834 1.83301 30.501 5.5s18.167 8.16699 25.5 13.5s13.166 11.333 17.499 18
s6.5 13.334 6.5 20.001c0 22 -9.66699 33 -29 33c-6 0 -11 -1.33301 -15 -4s-7.83301 -5.5 -11.5 -8.5s-7.66699 -5.83301 -12 -8.5s-9.83301 -4 -16.5 -4c-10 0 -20.167 1.33301 -30.5 4s-20.666 5.83398 -30.999 9.50098s-20.666 6.83398 -30.999 9.50098
s-20.833 4 -31.5 4s-20.834 -1.83301 -30.501 -5.5s-18.167 -8.33398 -25.5 -14.001s-13.166 -12.334 -17.499 -20.001s-6.5 -15.5 -6.5 -23.5c0 -18 9.66699 -27 29 -27c6 0 11 1.33301 15 4s7.83301 5.5 11.5 8.5s7.66699 5.66699 12 8s9.83301 3.5 16.5 3.5z" />
    <glyph glyph-name="OE" unicode="&#xce;" horiz-adv-x="926" 
d="M40 356c0 -44.667 6.33203 -88.6621 18.999 -131.995s31.5 -82 56.5 -116s56.5 -61.5 94.5 -82.5s82 -31.5 132 -31.5c48 0 90.667 11 128 33s68.666 53.667 93.999 95h2v-86c0 -10 3.5 -18.5 10.5 -25.5s15.5 -10.5 25.5 -10.5h254c11.333 0 20.5 3.16699 27.5 9.5
s10.5 14.166 10.5 23.499s-3.5 17.166 -10.5 23.499s-16.167 9.5 -27.5 9.5h-218v256h199c11.333 0 20.5 3.16699 27.5 9.5s10.5 14.166 10.5 23.499s-3.5 17.166 -10.5 23.499s-16.167 9.5 -27.5 9.5h-198v258h207c11.333 0 20.5 3.16699 27.5 9.5s10.5 14.166 10.5 23.499
s-3.5 17.166 -10.5 23.499s-16.167 9.5 -27.5 9.5h-231c-18 0 -30.667 -3.5 -38 -10.5s-11 -15.5 -11 -25.5v-81h-2c-10 20 -22.667 37.5 -38 52.5s-32.666 27.833 -51.999 38.5s-40.166 18.667 -62.499 24s-45.5 8 -69.5 8c-50 0 -94 -10.333 -132 -31s-69.5 -48 -94.5 -82
s-43.833 -72.667 -56.5 -116s-19 -87.666 -19 -132.999zM565.999 356.005c0 -33.333 -3.83301 -67.5 -11.5 -102.5s-20.334 -66.833 -38.001 -95.5s-40.667 -52.167 -69 -70.5s-63.5 -27.5 -105.5 -27.5s-77.167 9.16699 -105.5 27.5s-51.333 41.833 -69 70.5
s-30.334 60.5 -38.001 95.5s-11.5 69.167 -11.5 102.5s3.83301 67.5 11.5 102.5s20.334 66.833 38.001 95.5s40.667 52.167 69 70.5s63.5 27.5 105.5 27.5s77.167 -9.16699 105.5 -27.5s51.333 -41.833 69 -70.5s30.334 -60.5 38.001 -95.5s11.5 -69.167 11.5 -102.5z" />
    <glyph glyph-name="oe" unicode="&#xcf;" horiz-adv-x="908" 
d="M117 266c0 24 2.66699 48.667 8 74s13.833 48.166 25.5 68.499s27.167 37 46.5 50s43 19.5 71 19.5s51.667 -6.5 71 -19.5s34.833 -29.667 46.5 -50s20.167 -43.166 25.5 -68.499s8 -50 8 -74s-2.66699 -48.667 -8 -74s-13.833 -48.166 -25.5 -68.499
s-27.167 -37 -46.5 -50s-43 -19.5 -71 -19.5s-51.667 6.5 -71 19.5s-34.833 29.667 -46.5 50s-20.167 43.166 -25.5 68.499s-8 50 -8 74zM268 538c-38.667 0 -72.502 -7.83008 -101.502 -23.4971s-52.833 -36.334 -71.5 -62.001s-32.667 -54.834 -42 -87.501
s-14 -65.667 -14 -99c0 -37.333 4.83301 -72.5 14.5 -105.5s24 -61.833 43 -86.5s42.833 -44.167 71.5 -58.5s62 -21.5 100 -21.5c24.667 0 46.834 2.83301 66.501 8.5s37.167 13.5 52.5 23.5s28.666 21.5 39.999 34.5s21 26.833 29 41.5
c20 -35.333 47.167 -62.5 81.5 -81.5s74.833 -27.833 121.5 -26.5c27.333 0 52.5 4 75.5 12s43.167 17.833 60.5 29.5s30.833 23.5 40.5 35.5s14.5 22 14.5 30c0 14 -3.16699 23.333 -9.5 28s-14.5 7 -24.5 7c-8.66699 0 -17.334 -4.33301 -26.001 -13
s-19.334 -18 -32.001 -28s-28.167 -19.333 -46.5 -28s-41.166 -13 -68.499 -13c-22.667 0 -43.167 5 -61.5 15s-34.166 23.333 -47.499 40s-23.666 35.834 -30.999 57.501s-11.333 44.167 -12 67.5h318c10.667 0 19.167 1.33301 25.5 4s11.333 6.16699 15 10.5
s6 9.16602 7 14.499s1.5 10.333 1.5 15c0 33.333 -4.83301 65.666 -14.5 96.999s-24 59 -43 83s-42.667 43.333 -71 58s-61.166 22 -98.499 22c-36 0 -69.333 -10.333 -100 -31s-55.667 -47.667 -75 -81c-19.333 35.333 -44.5 62.833 -75.5 82.5s-68.5 29.5 -112.5 29.5z
M490.998 294.003c0.666992 22 4.16602 44 10.499 66s15.5 41.833 27.5 59.5s26.5 31.834 43.5 42.501s36.167 16 57.5 16c24 0 45.333 -5.33301 64 -16s34.167 -24.834 46.5 -42.501s21.833 -37.5 28.5 -59.5s10.334 -44 11.001 -66h-289z" />
    <glyph glyph-name="endash" unicode="&#xd0;" horiz-adv-x="500" 
d="M469 236c12 0 20.167 3.5 24.5 10.5s6.5 13.5 6.5 19.5s-2.16699 12.5 -6.5 19.5s-12.5 10.5 -24.5 10.5h-438c-12 0 -20.167 -3.5 -24.5 -10.5s-6.5 -13.5 -6.5 -19.5s2.16699 -12.5 6.5 -19.5s12.5 -10.5 24.5 -10.5h438z" />
    <glyph glyph-name="emdash" unicode="&#xd1;" horiz-adv-x="1000" 
d="M1000 236c12 0 20.167 3.5 24.5 10.5s6.5 13.5 6.5 19.5s-2.16699 12.5 -6.5 19.5s-12.5 10.5 -24.5 10.5h-1000c-12 0 -20.167 -3.5 -24.5 -10.5s-6.5 -13.5 -6.5 -19.5s2.16699 -12.5 6.5 -19.5s12.5 -10.5 24.5 -10.5h1000z" />
    <glyph glyph-name="quotedblleft" unicode="&#xd2;" horiz-adv-x="315" 
d="M34 571c-5.33301 -12 -8 -22 -8 -30c0 -7.33301 3 -14.333 9 -21s14.667 -10 26 -10c16 0 27.333 7 34 21l57 126c5.33301 12 8 22 8 30c0 7.33301 -3 14.333 -9 21s-14.667 10 -26 10c-16 0 -27.333 -7 -34 -21zM163 571c-5.33301 -12 -8 -22 -8 -30
c0 -7.33301 3 -14.333 9 -21s14.667 -10 26 -10c16 0 27.333 7 34 21l57 126c5.33301 12 8 22 8 30c0 7.33301 -3 14.333 -9 21s-14.667 10 -26 10c-16 0 -27.333 -7 -34 -21z" />
    <glyph glyph-name="quotedblright" unicode="&#xd3;" horiz-adv-x="315" 
d="M34 571c-5.33301 -12 -8 -22 -8 -30c0 -7.33301 3 -14.333 9 -21s14.667 -10 26 -10c16 0 27.333 7 34 21l57 126c5.33301 12 8 22 8 30c0 7.33301 -3 14.333 -9 21s-14.667 10 -26 10c-16 0 -27.333 -7 -34 -21zM163 571c-5.33301 -12 -8 -22 -8 -30
c0 -7.33301 3 -14.333 9 -21s14.667 -10 26 -10c16 0 27.333 7 34 21l57 126c5.33301 12 8 22 8 30c0 7.33301 -3 14.333 -9 21s-14.667 10 -26 10c-16 0 -27.333 -7 -34 -21z" />
    <glyph glyph-name="quoteleft" unicode="&#xd4;" horiz-adv-x="186" 
d="M34 571c-5.33301 -12 -8 -22 -8 -30c0 -7.33301 3 -14.333 9 -21s14.667 -10 26 -10c16 0 27.333 7 34 21l57 126c5.33301 12 8 22 8 30c0 7.33301 -3 14.333 -9 21s-14.667 10 -26 10c-16 0 -27.333 -7 -34 -21z" />
    <glyph glyph-name="quoteright" unicode="&#xd5;" horiz-adv-x="186" 
d="M34 571c-5.33301 -12 -8 -22 -8 -30c0 -7.33301 3 -14.333 9 -21s14.667 -10 26 -10c16 0 27.333 7 34 21l57 126c5.33301 12 8 22 8 30c0 7.33301 -3 14.333 -9 21s-14.667 10 -26 10c-16 0 -27.333 -7 -34 -21z" />
    <glyph glyph-name="divide" unicode="&#xd6;" horiz-adv-x="600" 
d="M515 220c11.333 0 20.5 3.16699 27.5 9.5s10.5 14.166 10.5 23.499s-3.5 17.166 -10.5 23.499s-16.167 9.5 -27.5 9.5h-430c-11.333 0 -20.5 -3.16699 -27.5 -9.5s-10.5 -14.166 -10.5 -23.499s3.5 -17.166 10.5 -23.499s16.167 -9.5 27.5 -9.5h430zM237 43
c0 -17.333 6.16699 -32.166 18.5 -44.499s27.166 -18.5 44.499 -18.5s32.166 6.16699 44.499 18.5s18.5 27.166 18.5 44.499s-6.16699 32.166 -18.5 44.499s-27.166 18.5 -44.499 18.5s-32.166 -6.16699 -44.499 -18.5s-18.5 -27.166 -18.5 -44.499zM237 463
c0 -17.333 6.16699 -32.166 18.5 -44.499s27.166 -18.5 44.499 -18.5s32.166 6.16699 44.499 18.5s18.5 27.166 18.5 44.499s-6.16699 32.166 -18.5 44.499s-27.166 18.5 -44.499 18.5s-32.166 -6.16699 -44.499 -18.5s-18.5 -27.166 -18.5 -44.499z" />
    <glyph glyph-name="ydieresis" unicode="&#xd8;" horiz-adv-x="426" 
d="M179 14l-64.999 -171.001c-4 -10 -6 -19.667 -6 -29c0 -7.33301 2.66699 -14.166 8 -20.499s13.666 -9.5 24.999 -9.5c10 0 18 3 24 9s11 15 15 27l230 664c2.66699 7.33301 4 14.333 4 21c0 8.66699 -3 16.334 -9 23.001s-14 10 -24 10s-18 -2.83301 -24 -8.5
s-10.667 -13.834 -14 -24.501l-129 -386h-2l-129 386c-3.33301 10.667 -8 18.834 -14 24.501s-14 8.5 -24 8.5s-18 -3.33301 -24 -10s-9 -14.334 -9 -23.001c0 -6.66699 1.33301 -13.667 4 -21zM75.001 639.999c0 -13.333 4.83301 -24.833 14.5 -34.5
s21.167 -14.5 34.5 -14.5s24.833 4.83301 34.5 14.5s14.5 21.167 14.5 34.5s-4.83301 24.833 -14.5 34.5s-21.167 14.5 -34.5 14.5s-24.833 -4.83301 -34.5 -14.5s-14.5 -21.167 -14.5 -34.5zM253.001 639.999c0 -13.333 4.83301 -24.833 14.5 -34.5
s21.167 -14.5 34.5 -14.5s24.833 4.83301 34.5 14.5s14.5 21.167 14.5 34.5s-4.83301 24.833 -14.5 34.5s-21.167 14.5 -34.5 14.5s-24.833 -4.83301 -34.5 -14.5s-14.5 -21.167 -14.5 -34.5z" />
    <glyph glyph-name="Ydieresis" unicode="&#xd9;" horiz-adv-x="482" 
d="M241 407l-173.998 290c-4.66699 8 -9.83398 13.5 -15.501 16.5s-12.5 4.5 -20.5 4.5c-10 0 -17.5 -2.83301 -22.5 -8.5s-7.5 -12.167 -7.5 -19.5c0 -4.66699 1.33301 -10.334 4 -17.001s8.66699 -17.667 18 -33l182 -303v-297c0 -30.667 12 -46 36 -46s36 15.333 36 46
v297l182 303c9.33301 15.333 15.333 26.333 18 33s4 12.334 4 17.001c0 7.33301 -2.5 13.833 -7.5 19.5s-12.5 8.5 -22.5 8.5c-8 0 -14.833 -1.5 -20.5 -4.5s-10.834 -8.5 -15.501 -16.5zM103.002 800c0 -13.333 4.83301 -24.833 14.5 -34.5s21.167 -14.5 34.5 -14.5
s24.833 4.83301 34.5 14.5s14.5 21.167 14.5 34.5s-4.83301 24.833 -14.5 34.5s-21.167 14.5 -34.5 14.5s-24.833 -4.83301 -34.5 -14.5s-14.5 -21.167 -14.5 -34.5zM281.002 800c0 -13.333 4.83301 -24.833 14.5 -34.5s21.167 -14.5 34.5 -14.5s24.833 4.83301 34.5 14.5
s14.5 21.167 14.5 34.5s-4.83301 24.833 -14.5 34.5s-21.167 14.5 -34.5 14.5s-24.833 -4.83301 -34.5 -14.5s-14.5 -21.167 -14.5 -34.5z" />
    <glyph glyph-name="fraction" unicode="&#xda;" horiz-adv-x="166" 
d="M-72 38c-3.33301 -7.33301 -5.66602 -13.333 -6.99902 -18s-2 -9 -2 -13c0 -6.66699 2.5 -12.167 7.5 -16.5s11.833 -6.5 20.5 -6.5s15.167 2.33301 19.5 7s8.16602 10.667 11.499 18l260 665c3.33301 7.33301 5.66602 13.333 6.99902 18s2 9 2 13
c0 6.66699 -2.5 12.167 -7.5 16.5s-11.833 6.5 -20.5 6.5s-15.167 -2.33301 -19.5 -7s-8.16602 -10.667 -11.499 -18z" />
    <glyph glyph-name="currency" unicode="&#xdb;" horiz-adv-x="536" 
d="M39 172c-6.66699 -6.66699 -11 -12 -13 -16s-3 -8.66699 -3 -14c0 -7.33301 2.66699 -14.5 8 -21.5s12.666 -10.5 21.999 -10.5c5.33301 0 11 1.83301 17 5.5s11.333 7.83398 16 12.501l32 32c20 -17.333 43 -30.333 69 -39s53 -13 81 -13s55 4.33301 81 13
s49 21.667 69 39l32 -32c4.66699 -4.66699 10 -8.83398 16 -12.501s11.667 -5.5 17 -5.5c9.33301 0 16.666 3.5 21.999 10.5s8 14.167 8 21.5c0 5.33301 -1 10 -3 14s-6.33301 9.33301 -13 16l-32 32c17.333 20 30.166 43.333 38.499 70s12.5 54 12.5 82
s-4.16699 55.333 -12.5 82s-21.166 50 -38.499 70l32 32c6.66699 6.66699 11 12 13 16s3 8.66699 3 14c0 7.33301 -2.66699 14.5 -8 21.5s-12.666 10.5 -21.999 10.5c-5.33301 0 -11 -1.83301 -17 -5.5s-11.333 -7.83398 -16 -12.501l-32 -32c-20 17.333 -43 30.333 -69 39
s-53 13 -81 13s-55 -4.33301 -81 -13s-49 -21.667 -69 -39l-32 32c-4.66699 4.66699 -10 8.83398 -16 12.501s-11.667 5.5 -17 5.5c-9.33301 0 -16.666 -3.5 -21.999 -10.5s-8 -14.167 -8 -21.5c0 -5.33301 1 -10 3 -14s6.33301 -9.33301 13 -16l32 -32
c-17.333 -20 -30.166 -43.333 -38.499 -70s-12.5 -54 -12.5 -82s4.16699 -55.333 12.5 -82s21.166 -50 38.499 -70zM86 356c0 26 4.66699 50.5 14 73.5s22 43 38 60s35.167 30.333 57.5 40s46.5 14.5 72.5 14.5s50.167 -4.83301 72.5 -14.5s41.5 -23 57.5 -40
s28.667 -37 38 -60s14 -47.5 14 -73.5s-4.66699 -50.333 -14 -73s-22 -42.5 -38 -59.5s-35.167 -30.5 -57.5 -40.5s-46.5 -15 -72.5 -15s-50.167 5 -72.5 15s-41.5 23.5 -57.5 40.5s-28.667 36.833 -38 59.5s-14 47 -14 73z" />
    <glyph glyph-name="guilsinglleft" unicode="&#xdc;" horiz-adv-x="240" 
d="M133 94c5.33301 -8.66699 10.5 -15.502 15.5 -20.502s11.833 -7.5 20.5 -7.5c9.33301 0 16.666 2.83301 21.999 8.5s8 11.5 8 17.5c0 4.66699 -0.5 8.83398 -1.5 12.501s-3.83301 9.16699 -8.5 16.5l-84 145l84 145c4.66699 7.33301 7.5 12.833 8.5 16.5
s1.5 7.83398 1.5 12.501c0 6 -2.66699 11.833 -8 17.5s-12.666 8.5 -21.999 8.5c-8.66699 0 -15.5 -2.5 -20.5 -7.5s-10.167 -11.833 -15.5 -20.5l-81 -143c-7.33301 -14 -11 -23.667 -11 -29s3.66699 -15 11 -29z" />
    <glyph glyph-name="guilsinglright" unicode="&#xdd;" horiz-adv-x="240" 
d="M107 438c-5.33301 8.66699 -10.5 15.502 -15.5 20.502s-11.833 7.5 -20.5 7.5c-9.33301 0 -16.666 -2.83301 -21.999 -8.5s-8 -11.5 -8 -17.5c0 -4.66699 0.5 -8.83398 1.5 -12.501s3.83301 -9.16699 8.5 -16.5l84 -145l-84 -145
c-4.66699 -7.33301 -7.5 -12.833 -8.5 -16.5s-1.5 -7.83398 -1.5 -12.501c0 -6 2.66699 -11.833 8 -17.5s12.666 -8.5 21.999 -8.5c8.66699 0 15.5 2.5 20.5 7.5s10.167 11.833 15.5 20.5l81 143c7.33301 14 11 23.667 11 29s-3.66699 15 -11 29z" />
    <glyph glyph-name="fi" unicode="&#xde;" horiz-adv-x="444" 
d="M156 472l64 0.00292969c12 0 20.167 3.5 24.5 10.5s6.5 13.5 6.5 19.5s-2.16699 12.5 -6.5 19.5s-12.5 10.5 -24.5 10.5h-64v141c0 9.33301 3.5 17.166 10.5 23.499s16.167 9.5 27.5 9.5h33c14.667 0 24.667 3.16699 30 9.5s8 14.166 8 23.499
s-3.83301 17.166 -11.5 23.499s-20.167 9.5 -37.5 9.5h-37c-26.667 0 -49.167 -8.16699 -67.5 -24.5s-27.5 -42.5 -27.5 -78.5v-137h-47c-12 0 -20.167 -3.5 -24.5 -10.5s-6.5 -13.5 -6.5 -19.5s2.16699 -12.5 6.5 -19.5s12.5 -10.5 24.5 -10.5h47v-432
c0 -30.667 12 -46 36 -46s36 15.333 36 46v432zM378 492.003c0 30.667 -12 46 -36 46s-36 -15.333 -36 -46v-452c0 -30.667 12 -46 36 -46s36 15.333 36 46v452zM342 620.003c13.333 0 24.833 4.83301 34.5 14.5s14.5 21.167 14.5 34.5s-4.83301 24.833 -14.5 34.5
s-21.167 14.5 -34.5 14.5s-24.833 -4.83301 -34.5 -14.5s-14.5 -21.167 -14.5 -34.5s4.83301 -24.833 14.5 -34.5s21.167 -14.5 34.5 -14.5z" />
    <glyph glyph-name="fl" unicode="&#xdf;" horiz-adv-x="444" 
d="M156 472l64 0.00292969c12 0 20.167 3.5 24.5 10.5s6.5 13.5 6.5 19.5s-2.16699 12.5 -6.5 19.5s-12.5 10.5 -24.5 10.5h-64v141c0 9.33301 3.5 17.166 10.5 23.499s16.167 9.5 27.5 9.5h33c14.667 0 24.667 3.16699 30 9.5s8 14.166 8 23.499
s-3.83301 17.166 -11.5 23.499s-20.167 9.5 -37.5 9.5h-37c-26.667 0 -49.167 -8.16699 -67.5 -24.5s-27.5 -42.5 -27.5 -78.5v-137h-47c-12 0 -20.167 -3.5 -24.5 -10.5s-6.5 -13.5 -6.5 -19.5s2.16699 -12.5 6.5 -19.5s12.5 -10.5 24.5 -10.5h47v-432
c0 -30.667 12 -46 36 -46s36 15.333 36 46v432zM378 726.003c0 30.667 -12 46 -36 46s-36 -15.333 -36 -46v-686c0 -30.667 12 -46 36 -46s36 15.333 36 46v686z" />
    <glyph glyph-name="daggerdbl" unicode="&#xe0;" horiz-adv-x="610" 
d="M272 87h-207c-11.333 0 -20.5 -3.16699 -27.5 -9.5s-10.5 -14.166 -10.5 -23.499s3.5 -17.166 10.5 -23.499s16.167 -9.5 27.5 -9.5h207v-199c0 -11.333 3.16699 -20.5 9.5 -27.5s14.166 -10.5 23.499 -10.5s17.166 3.5 23.499 10.5s9.5 16.167 9.5 27.5v199h207
c11.333 0 20.5 3.16699 27.5 9.5s10.5 14.166 10.5 23.499s-3.5 17.166 -10.5 23.499s-16.167 9.5 -27.5 9.5h-207v332h207c11.333 0 20.5 3.16699 27.5 9.5s10.5 14.166 10.5 23.499s-3.5 17.166 -10.5 23.499s-16.167 9.5 -27.5 9.5h-207v199
c0 11.333 -3.16699 20.5 -9.5 27.5s-14.166 10.5 -23.499 10.5s-17.166 -3.5 -23.499 -10.5s-9.5 -16.167 -9.5 -27.5v-199h-207c-11.333 0 -20.5 -3.16699 -27.5 -9.5s-10.5 -14.166 -10.5 -23.499s3.5 -17.166 10.5 -23.499s16.167 -9.5 27.5 -9.5h207v-332z" />
    <glyph glyph-name="periodcentered" unicode="&#xe1;" horiz-adv-x="240" 
d="M74 319c0 -12 4.66699 -22.667 14 -32s20 -14 32 -14s22.667 4.66699 32 14s14 20 14 32s-4.66699 22.667 -14 32s-20 14 -32 14s-22.667 -4.66699 -32 -14s-14 -20 -14 -32z" />
    <glyph glyph-name="quotesinglbase" unicode="&#xe2;" horiz-adv-x="186" 
d="M34 -61c-5.33301 -12 -8 -22 -8 -30c0 -7.33301 3 -14.333 9 -21s14.667 -10 26 -10c16 0 27.333 7 34 21l57 126c5.33301 12 8 22 8 30c0 7.33301 -3 14.333 -9 21s-14.667 10 -26 10c-16 0 -27.333 -7 -34 -21z" />
    <glyph glyph-name="quotedblbase" unicode="&#xe3;" horiz-adv-x="315" 
d="M34 -61c-5.33301 -12 -8 -22 -8 -30c0 -7.33301 3 -14.333 9 -21s14.667 -10 26 -10c16 0 27.333 7 34 21l57 126c5.33301 12 8 22 8 30c0 7.33301 -3 14.333 -9 21s-14.667 10 -26 10c-16 0 -27.333 -7 -34 -21zM163 -61c-5.33301 -12 -8 -22 -8 -30
c0 -7.33301 3 -14.333 9 -21s14.667 -10 26 -10c16 0 27.333 7 34 21l57 126c5.33301 12 8 22 8 30c0 7.33301 -3 14.333 -9 21s-14.667 10 -26 10c-16 0 -27.333 -7 -34 -21z" />
    <glyph glyph-name="perthousand" unicode="&#xe4;" horiz-adv-x="1093" 
d="M899 -6c20.667 0 40.3301 4.16699 58.9971 12.5s35 19.833 49 34.5s25.167 32.5 33.5 53.5s12.5 43.833 12.5 68.5c0 27.333 -4.33301 51.833 -13 73.5s-20.167 40.167 -34.5 55.5s-30.666 27.166 -48.999 35.499s-37.5 12.5 -57.5 12.5s-39.167 -4.16699 -57.5 -12.5
s-34.666 -20.166 -48.999 -35.499s-25.833 -33.833 -34.5 -55.5s-13 -46.167 -13 -73.5c0 -24.667 4.16699 -47.5 12.5 -68.5s19.5 -38.833 33.5 -53.5s30.333 -26.167 49 -34.5s38.334 -12.5 59.001 -12.5zM898.996 42c-16.667 0 -30.8281 3.66699 -42.4951 11
s-21.334 16.666 -29.001 27.999s-13.334 24.333 -17.001 39s-5.5 29 -5.5 43c0 37.333 8.16699 68.166 24.5 92.499s39.5 36.5 69.5 36.5s53.167 -12.167 69.5 -36.5s24.5 -55.166 24.5 -92.499c0 -14 -1.83301 -28.333 -5.5 -43s-9.33398 -27.667 -17.001 -39
s-17.334 -20.666 -29.001 -27.999s-25.834 -11 -42.501 -11zM194.002 372c20.667 0 40.3301 4.16699 58.9971 12.5s35 19.833 49 34.5s25.167 32.5 33.5 53.5s12.5 43.833 12.5 68.5c0 27.333 -4.33301 51.833 -13 73.5s-20.167 40.167 -34.5 55.5
s-30.666 27.166 -48.999 35.499s-37.5 12.5 -57.5 12.5s-39.167 -4.16699 -57.5 -12.5s-34.666 -20.166 -48.999 -35.499s-25.833 -33.833 -34.5 -55.5s-13 -46.167 -13 -73.5c0 -24.667 4.16699 -47.5 12.5 -68.5s19.5 -38.833 33.5 -53.5s30.333 -26.167 49 -34.5
s38.334 -12.5 59.001 -12.5zM193.998 420c-16.667 0 -30.8281 3.66699 -42.4951 11s-21.334 16.666 -29.001 27.999s-13.334 24.333 -17.001 39s-5.5 29 -5.5 43c0 37.333 8.16699 68.166 24.5 92.499s39.5 36.5 69.5 36.5s53.167 -12.167 69.5 -36.5
s24.5 -55.166 24.5 -92.499c0 -14 -1.83301 -28.333 -5.5 -43s-9.33398 -27.667 -17.001 -39s-17.334 -20.666 -29.001 -27.999s-25.834 -11 -42.501 -11zM547.004 -6c20.667 0 40.3301 4.16699 58.9971 12.5s35 19.833 49 34.5s25.167 32.5 33.5 53.5
s12.5 43.833 12.5 68.5c0 27.333 -4.33301 51.833 -13 73.5s-20.167 40.167 -34.5 55.5s-30.666 27.166 -48.999 35.499s-37.5 12.5 -57.5 12.5s-39.167 -4.16699 -57.5 -12.5s-34.666 -20.166 -48.999 -35.499s-25.833 -33.833 -34.5 -55.5s-13 -46.167 -13 -73.5
c0 -24.667 4.16699 -47.5 12.5 -68.5s19.5 -38.833 33.5 -53.5s30.333 -26.167 49 -34.5s38.334 -12.5 59.001 -12.5zM547 42c-16.667 0 -30.8281 3.66699 -42.4951 11s-21.334 16.666 -29.001 27.999s-13.334 24.333 -17.001 39s-5.5 29 -5.5 43
c0 37.333 8.16699 68.166 24.5 92.499s39.5 36.5 69.5 36.5s53.167 -12.167 69.5 -36.5s24.5 -55.166 24.5 -92.499c0 -14 -1.83301 -28.333 -5.5 -43s-9.33398 -27.667 -17.001 -39s-17.334 -20.666 -29.001 -27.999s-25.834 -11 -42.501 -11zM214.006 38
c-3.33301 -7.33301 -5.66602 -13.333 -6.99902 -18s-2 -9 -2 -13c0 -6.66699 2.5 -12.167 7.5 -16.5s11.833 -6.5 20.5 -6.5s15.167 2.33301 19.5 7s8.16602 10.667 11.499 18l260 665c3.33301 7.33301 5.66602 13.333 6.99902 18s2 9 2 13c0 6.66699 -2.5 12.167 -7.5 16.5
s-11.833 6.5 -20.5 6.5s-15.167 -2.33301 -19.5 -7s-8.16602 -10.667 -11.499 -18z" />
    <glyph glyph-name="Acircumflex" unicode="&#xe5;" horiz-adv-x="612" 
d="M133 155h345.999l47 -128c3.33301 -9.33301 7.66602 -17.166 12.999 -23.499s14.333 -9.5 27 -9.5c10.667 0 18.667 2.83301 24 8.5s8 12.167 8 19.5c0 8.66699 -2.33301 18.667 -7 30l-229 614c-2 6 -4.5 12 -7.5 18s-6.5 11.5 -10.5 16.5s-9 9.16699 -15 12.5
s-13.667 5 -23 5c-8.66699 0 -16.167 -1.66699 -22.5 -5s-11.5 -7.5 -15.5 -12.5s-7.5 -10.5 -10.5 -16.5s-5.5 -12 -7.5 -18l-229 -614c-4.66699 -11.333 -7 -21.333 -7 -30c0 -7.33301 2.66699 -13.833 8 -19.5s13.333 -8.5 24 -8.5c12.667 0 21.334 3.16699 26.001 9.5
s9.33398 14.166 14.001 23.499zM454.999 221h-298l148 403h2zM305.999 874l-126.994 -49c-14 -5.33301 -22.333 -11.5 -25 -18.5s-4 -13.167 -4 -18.5c0 -7.33301 2.66699 -14.166 8 -20.499s12.666 -9.5 21.999 -9.5c5.33301 0 10.166 0.5 14.499 1.5
s8.16602 2.16699 11.499 3.5l100 45l100 -45c3.33301 -1.33301 7.16602 -2.5 11.499 -3.5s9.16602 -1.5 14.499 -1.5c9.33301 0 16.666 3.16699 21.999 9.5s8 13.166 8 20.499c0 5.33301 -1.33301 11.5 -4 18.5s-11 13.167 -25 18.5z" />
    <glyph glyph-name="Ecircumflex" unicode="&#xe6;" horiz-adv-x="444" 
d="M138 322l199 0.00585938c11.333 0 20.5 3.16699 27.5 9.5s10.5 14.166 10.5 23.499s-3.5 17.166 -10.5 23.499s-16.167 9.5 -27.5 9.5h-198v258h207c11.333 0 20.5 3.16699 27.5 9.5s10.5 14.166 10.5 23.499s-3.5 17.166 -10.5 23.499s-16.167 9.5 -27.5 9.5h-236
c-16 0 -27.333 -3.16699 -34 -9.5s-10 -15.833 -10 -28.5v-636c0 -12.667 3.33301 -22.167 10 -28.5s18 -9.5 34 -9.5h246c11.333 0 20.5 3.16699 27.5 9.5s10.5 14.166 10.5 23.499s-3.5 17.166 -10.5 23.499s-16.167 9.5 -27.5 9.5h-218v256zM222 874.006l-126.994 -49
c-14 -5.33301 -22.333 -11.5 -25 -18.5s-4 -13.167 -4 -18.5c0 -7.33301 2.66699 -14.166 8 -20.499s12.666 -9.5 21.999 -9.5c5.33301 0 10.166 0.5 14.499 1.5s8.16602 2.16699 11.499 3.5l100 45l100 -45c3.33301 -1.33301 7.16602 -2.5 11.499 -3.5
s9.16602 -1.5 14.499 -1.5c9.33301 0 16.666 3.16699 21.999 9.5s8 13.166 8 20.499c0 5.33301 -1.33301 11.5 -4 18.5s-11 13.167 -25 18.5z" />
    <glyph glyph-name="Aacute" unicode="&#xe7;" horiz-adv-x="612" 
d="M133 155h345.999l47 -128c3.33301 -9.33301 7.66602 -17.166 12.999 -23.499s14.333 -9.5 27 -9.5c10.667 0 18.667 2.83301 24 8.5s8 12.167 8 19.5c0 8.66699 -2.33301 18.667 -7 30l-229 614c-2 6 -4.5 12 -7.5 18s-6.5 11.5 -10.5 16.5s-9 9.16699 -15 12.5
s-13.667 5 -23 5c-8.66699 0 -16.167 -1.66699 -22.5 -5s-11.5 -7.5 -15.5 -12.5s-7.5 -10.5 -10.5 -16.5s-5.5 -12 -7.5 -18l-229 -614c-4.66699 -11.333 -7 -21.333 -7 -30c0 -7.33301 2.66699 -13.833 8 -19.5s13.333 -8.5 24 -8.5c12.667 0 21.334 3.16699 26.001 9.5
s9.33398 14.166 14.001 23.499zM454.999 221h-298l148 403h2zM223.999 829c-14 -5.33301 -22.167 -10.833 -24.5 -16.5s-3.5 -11.167 -3.5 -16.5c0 -7.33301 2.5 -14.833 7.5 -22.5s11.833 -11.5 20.5 -11.5c3.33301 0 7 0.333008 11 1s9 2.33398 15 5.00098l138 53
c14 5.33301 22.167 10.833 24.5 16.5s3.5 11.167 3.5 16.5c0 7.33301 -2.5 14.833 -7.5 22.5s-11.833 11.5 -20.5 11.5c-3.33301 0 -7 -0.333008 -11 -1s-9 -2.33398 -15 -5.00098z" />
    <glyph glyph-name="Edieresis" unicode="&#xe8;" horiz-adv-x="444" 
d="M138 322l199 0.00585938c11.333 0 20.5 3.16699 27.5 9.5s10.5 14.166 10.5 23.499s-3.5 17.166 -10.5 23.499s-16.167 9.5 -27.5 9.5h-198v258h207c11.333 0 20.5 3.16699 27.5 9.5s10.5 14.166 10.5 23.499s-3.5 17.166 -10.5 23.499s-16.167 9.5 -27.5 9.5h-236
c-16 0 -27.333 -3.16699 -34 -9.5s-10 -15.833 -10 -28.5v-636c0 -12.667 3.33301 -22.167 10 -28.5s18 -9.5 34 -9.5h246c11.333 0 20.5 3.16699 27.5 9.5s10.5 14.166 10.5 23.499s-3.5 17.166 -10.5 23.499s-16.167 9.5 -27.5 9.5h-218v256zM84 800.006
c0 -13.333 4.83301 -24.833 14.5 -34.5s21.167 -14.5 34.5 -14.5s24.833 4.83301 34.5 14.5s14.5 21.167 14.5 34.5s-4.83301 24.833 -14.5 34.5s-21.167 14.5 -34.5 14.5s-24.833 -4.83301 -34.5 -14.5s-14.5 -21.167 -14.5 -34.5zM262 800.006
c0 -13.333 4.83301 -24.833 14.5 -34.5s21.167 -14.5 34.5 -14.5s24.833 4.83301 34.5 14.5s14.5 21.167 14.5 34.5s-4.83301 24.833 -14.5 34.5s-21.167 14.5 -34.5 14.5s-24.833 -4.83301 -34.5 -14.5s-14.5 -21.167 -14.5 -34.5z" />
    <glyph glyph-name="Egrave" unicode="&#xe9;" horiz-adv-x="444" 
d="M138 322l199 0.00585938c11.333 0 20.5 3.16699 27.5 9.5s10.5 14.166 10.5 23.499s-3.5 17.166 -10.5 23.499s-16.167 9.5 -27.5 9.5h-198v258h207c11.333 0 20.5 3.16699 27.5 9.5s10.5 14.166 10.5 23.499s-3.5 17.166 -10.5 23.499s-16.167 9.5 -27.5 9.5h-236
c-16 0 -27.333 -3.16699 -34 -9.5s-10 -15.833 -10 -28.5v-636c0 -12.667 3.33301 -22.167 10 -28.5s18 -9.5 34 -9.5h246c11.333 0 20.5 3.16699 27.5 9.5s10.5 14.166 10.5 23.499s-3.5 17.166 -10.5 23.499s-16.167 9.5 -27.5 9.5h-218v256zM278 768.006
c6 -2.66699 11 -4.33398 15 -5.00098s7.66699 -1 11 -1c8.66699 0 15.5 3.83301 20.5 11.5s7.5 15.167 7.5 22.5c0 5.33301 -1.16699 10.833 -3.5 16.5s-10.5 11.167 -24.5 16.5l-138 53c-6 2.66699 -11 4.33398 -15 5.00098s-7.66699 1 -11 1
c-8.66699 0 -15.5 -3.83301 -20.5 -11.5s-7.5 -15.167 -7.5 -22.5c0 -5.33301 1.16699 -10.833 3.5 -16.5s10.5 -11.167 24.5 -16.5z" />
    <glyph glyph-name="Iacute" unicode="&#xea;" 
d="M138 672c0 30.667 -12 46 -36 46s-36 -15.333 -36 -46v-632c0 -30.667 12 -46 36 -46s36 15.333 36 46v632zM20 829c-14 -5.33301 -22.167 -10.833 -24.5 -16.5s-3.5 -11.167 -3.5 -16.5c0 -7.33301 2.5 -14.833 7.5 -22.5s11.833 -11.5 20.5 -11.5
c3.33301 0 7 0.333008 11 1s9 2.33398 15 5.00098l138 53c14 5.33301 22.167 10.833 24.5 16.5s3.5 11.167 3.5 16.5c0 7.33301 -2.5 14.833 -7.5 22.5s-11.833 11.5 -20.5 11.5c-3.33301 0 -7 -0.333008 -11 -1s-9 -2.33398 -15 -5.00098z" />
    <glyph glyph-name="Icircumflex" unicode="&#xeb;" 
d="M138 672c0 30.667 -12 46 -36 46s-36 -15.333 -36 -46v-632c0 -30.667 12 -46 36 -46s36 15.333 36 46v632zM102 874l-126.994 -49c-14 -5.33301 -22.333 -11.5 -25 -18.5s-4 -13.167 -4 -18.5c0 -7.33301 2.66699 -14.166 8 -20.499s12.666 -9.5 21.999 -9.5
c5.33301 0 10.166 0.5 14.499 1.5s8.16602 2.16699 11.499 3.5l100 45l100 -45c3.33301 -1.33301 7.16602 -2.5 11.499 -3.5s9.16602 -1.5 14.499 -1.5c9.33301 0 16.666 3.16699 21.999 9.5s8 13.166 8 20.499c0 5.33301 -1.33301 11.5 -4 18.5s-11 13.167 -25 18.5z" />
    <glyph glyph-name="Idieresis" unicode="&#xec;" 
d="M138 672c0 30.667 -12 46 -36 46s-36 -15.333 -36 -46v-632c0 -30.667 12 -46 36 -46s36 15.333 36 46v632zM-36 800c0 -13.333 4.83301 -24.833 14.5 -34.5s21.167 -14.5 34.5 -14.5s24.833 4.83301 34.5 14.5s14.5 21.167 14.5 34.5s-4.83301 24.833 -14.5 34.5
s-21.167 14.5 -34.5 14.5s-24.833 -4.83301 -34.5 -14.5s-14.5 -21.167 -14.5 -34.5zM142 800c0 -13.333 4.83301 -24.833 14.5 -34.5s21.167 -14.5 34.5 -14.5s24.833 4.83301 34.5 14.5s14.5 21.167 14.5 34.5s-4.83301 24.833 -14.5 34.5s-21.167 14.5 -34.5 14.5
s-24.833 -4.83301 -34.5 -14.5s-14.5 -21.167 -14.5 -34.5z" />
    <glyph glyph-name="Igrave" unicode="&#xed;" 
d="M138 672c0 30.667 -12 46 -36 46s-36 -15.333 -36 -46v-632c0 -30.667 12 -46 36 -46s36 15.333 36 46v632zM158 768c6 -2.66699 11 -4.33398 15 -5.00098s7.66699 -1 11 -1c8.66699 0 15.5 3.83301 20.5 11.5s7.5 15.167 7.5 22.5c0 5.33301 -1.16699 10.833 -3.5 16.5
s-10.5 11.167 -24.5 16.5l-138 53c-6 2.66699 -11 4.33398 -15 5.00098s-7.66699 1 -11 1c-8.66699 0 -15.5 -3.83301 -20.5 -11.5s-7.5 -15.167 -7.5 -22.5c0 -5.33301 1.16699 -10.833 3.5 -16.5s10.5 -11.167 24.5 -16.5z" />
    <glyph glyph-name="Oacute" unicode="&#xee;" horiz-adv-x="684" 
d="M40 356c0 -45.333 6.33301 -89.666 19 -132.999s31.5 -82 56.5 -116s56.5 -61.333 94.5 -82s82 -31 132 -31s94 10.333 132 31s69.5 48 94.5 82s43.833 72.667 56.5 116s19 87.666 19 132.999s-6.33301 89.666 -19 132.999s-31.5 82 -56.5 116s-56.5 61.333 -94.5 82
s-82 31 -132 31s-94 -10.333 -132 -31s-69.5 -48 -94.5 -82s-43.833 -72.667 -56.5 -116s-19 -87.666 -19 -132.999zM342 60c-42 0 -77.167 9.16699 -105.5 27.5s-51.333 41.833 -69 70.5s-30.334 60.5 -38.001 95.5s-11.5 69.167 -11.5 102.5s3.83301 67.5 11.5 102.5
s20.334 66.833 38.001 95.5s40.667 52.167 69 70.5s63.5 27.5 105.5 27.5s77.167 -9.16699 105.5 -27.5s51.333 -41.833 69 -70.5s30.334 -60.5 38.001 -95.5s11.5 -69.167 11.5 -102.5s-3.83301 -67.5 -11.5 -102.5s-20.334 -66.833 -38.001 -95.5
s-40.667 -52.167 -69 -70.5s-63.5 -27.5 -105.5 -27.5zM260 829c-14 -5.33301 -22.167 -10.833 -24.5 -16.5s-3.5 -11.167 -3.5 -16.5c0 -7.33301 2.5 -14.833 7.5 -22.5s11.833 -11.5 20.5 -11.5c3.33301 0 7 0.333008 11 1s9 2.33398 15 5.00098l138 53
c14 5.33301 22.167 10.833 24.5 16.5s3.5 11.167 3.5 16.5c0 7.33301 -2.5 14.833 -7.5 22.5s-11.833 11.5 -20.5 11.5c-3.33301 0 -7 -0.333008 -11 -1s-9 -2.33398 -15 -5.00098z" />
    <glyph glyph-name="Ocircumflex" unicode="&#xef;" horiz-adv-x="684" 
d="M40 356c0 -45.333 6.33301 -89.666 19 -132.999s31.5 -82 56.5 -116s56.5 -61.333 94.5 -82s82 -31 132 -31s94 10.333 132 31s69.5 48 94.5 82s43.833 72.667 56.5 116s19 87.666 19 132.999s-6.33301 89.666 -19 132.999s-31.5 82 -56.5 116s-56.5 61.333 -94.5 82
s-82 31 -132 31s-94 -10.333 -132 -31s-69.5 -48 -94.5 -82s-43.833 -72.667 -56.5 -116s-19 -87.666 -19 -132.999zM342 60c-42 0 -77.167 9.16699 -105.5 27.5s-51.333 41.833 -69 70.5s-30.334 60.5 -38.001 95.5s-11.5 69.167 -11.5 102.5s3.83301 67.5 11.5 102.5
s20.334 66.833 38.001 95.5s40.667 52.167 69 70.5s63.5 27.5 105.5 27.5s77.167 -9.16699 105.5 -27.5s51.333 -41.833 69 -70.5s30.334 -60.5 38.001 -95.5s11.5 -69.167 11.5 -102.5s-3.83301 -67.5 -11.5 -102.5s-20.334 -66.833 -38.001 -95.5
s-40.667 -52.167 -69 -70.5s-63.5 -27.5 -105.5 -27.5zM342 874l-126.994 -49c-14 -5.33301 -22.333 -11.5 -25 -18.5s-4 -13.167 -4 -18.5c0 -7.33301 2.66699 -14.166 8 -20.499s12.666 -9.5 21.999 -9.5c5.33301 0 10.166 0.5 14.499 1.5s8.16602 2.16699 11.499 3.5
l100 45l100 -45c3.33301 -1.33301 7.16602 -2.5 11.499 -3.5s9.16602 -1.5 14.499 -1.5c9.33301 0 16.666 3.16699 21.999 9.5s8 13.166 8 20.499c0 5.33301 -1.33301 11.5 -4 18.5s-11 13.167 -25 18.5z" />
    <glyph glyph-name="Ograve" unicode="&#xf1;" horiz-adv-x="684" 
d="M40 356c0 -45.333 6.33301 -89.666 19 -132.999s31.5 -82 56.5 -116s56.5 -61.333 94.5 -82s82 -31 132 -31s94 10.333 132 31s69.5 48 94.5 82s43.833 72.667 56.5 116s19 87.666 19 132.999s-6.33301 89.666 -19 132.999s-31.5 82 -56.5 116s-56.5 61.333 -94.5 82
s-82 31 -132 31s-94 -10.333 -132 -31s-69.5 -48 -94.5 -82s-43.833 -72.667 -56.5 -116s-19 -87.666 -19 -132.999zM342 60c-42 0 -77.167 9.16699 -105.5 27.5s-51.333 41.833 -69 70.5s-30.334 60.5 -38.001 95.5s-11.5 69.167 -11.5 102.5s3.83301 67.5 11.5 102.5
s20.334 66.833 38.001 95.5s40.667 52.167 69 70.5s63.5 27.5 105.5 27.5s77.167 -9.16699 105.5 -27.5s51.333 -41.833 69 -70.5s30.334 -60.5 38.001 -95.5s11.5 -69.167 11.5 -102.5s-3.83301 -67.5 -11.5 -102.5s-20.334 -66.833 -38.001 -95.5
s-40.667 -52.167 -69 -70.5s-63.5 -27.5 -105.5 -27.5zM398 768c6 -2.66699 11 -4.33398 15 -5.00098s7.66699 -1 11 -1c8.66699 0 15.5 3.83301 20.5 11.5s7.5 15.167 7.5 22.5c0 5.33301 -1.16699 10.833 -3.5 16.5s-10.5 11.167 -24.5 16.5l-138 53
c-6 2.66699 -11 4.33398 -15 5.00098s-7.66699 1 -11 1c-8.66699 0 -15.5 -3.83301 -20.5 -11.5s-7.5 -15.167 -7.5 -22.5c0 -5.33301 1.16699 -10.833 3.5 -16.5s10.5 -11.167 24.5 -16.5z" />
    <glyph glyph-name="Uacute" unicode="&#xf2;" horiz-adv-x="666" 
d="M66 242c0 -40.667 7.5 -76.5 22.5 -107.5s34.833 -57 59.5 -78s53 -36.667 85 -47s65.333 -15.5 100 -15.5s68 5.16699 100 15.5s60.333 26 85 47s44.5 47 59.5 78s22.5 66.833 22.5 107.5v430c0 30.667 -12 46 -36 46s-36 -15.333 -36 -46v-421
c0 -32.667 -5.5 -61 -16.5 -85s-25.5 -43.833 -43.5 -59.5s-38.667 -27.334 -62 -35.001s-47.666 -11.5 -72.999 -11.5c-24.667 0 -48.834 3.83301 -72.501 11.5s-44.5 19.334 -62.5 35.001s-32.5 35.5 -43.5 59.5s-16.5 52.333 -16.5 85v421c0 30.667 -12 46 -36 46
s-36 -15.333 -36 -46v-430zM251 829c-14 -5.33301 -22.167 -10.833 -24.5 -16.5s-3.5 -11.167 -3.5 -16.5c0 -7.33301 2.5 -14.833 7.5 -22.5s11.833 -11.5 20.5 -11.5c3.33301 0 7 0.333008 11 1s9 2.33398 15 5.00098l138 53c14 5.33301 22.167 10.833 24.5 16.5
s3.5 11.167 3.5 16.5c0 7.33301 -2.5 14.833 -7.5 22.5s-11.833 11.5 -20.5 11.5c-3.33301 0 -7 -0.333008 -11 -1s-9 -2.33398 -15 -5.00098z" />
    <glyph glyph-name="Ucircumflex" unicode="&#xf3;" horiz-adv-x="666" 
d="M66 242c0 -40.667 7.5 -76.5 22.5 -107.5s34.833 -57 59.5 -78s53 -36.667 85 -47s65.333 -15.5 100 -15.5s68 5.16699 100 15.5s60.333 26 85 47s44.5 47 59.5 78s22.5 66.833 22.5 107.5v430c0 30.667 -12 46 -36 46s-36 -15.333 -36 -46v-421
c0 -32.667 -5.5 -61 -16.5 -85s-25.5 -43.833 -43.5 -59.5s-38.667 -27.334 -62 -35.001s-47.666 -11.5 -72.999 -11.5c-24.667 0 -48.834 3.83301 -72.501 11.5s-44.5 19.334 -62.5 35.001s-32.5 35.5 -43.5 59.5s-16.5 52.333 -16.5 85v421c0 30.667 -12 46 -36 46
s-36 -15.333 -36 -46v-430zM333 874l-126.994 -49c-14 -5.33301 -22.333 -11.5 -25 -18.5s-4 -13.167 -4 -18.5c0 -7.33301 2.66699 -14.166 8 -20.499s12.666 -9.5 21.999 -9.5c5.33301 0 10.166 0.5 14.499 1.5s8.16602 2.16699 11.499 3.5l100 45l100 -45
c3.33301 -1.33301 7.16602 -2.5 11.499 -3.5s9.16602 -1.5 14.499 -1.5c9.33301 0 16.666 3.16699 21.999 9.5s8 13.166 8 20.499c0 5.33301 -1.33301 11.5 -4 18.5s-11 13.167 -25 18.5z" />
    <glyph glyph-name="Ugrave" unicode="&#xf4;" horiz-adv-x="666" 
d="M66 242c0 -40.667 7.5 -76.5 22.5 -107.5s34.833 -57 59.5 -78s53 -36.667 85 -47s65.333 -15.5 100 -15.5s68 5.16699 100 15.5s60.333 26 85 47s44.5 47 59.5 78s22.5 66.833 22.5 107.5v430c0 30.667 -12 46 -36 46s-36 -15.333 -36 -46v-421
c0 -32.667 -5.5 -61 -16.5 -85s-25.5 -43.833 -43.5 -59.5s-38.667 -27.334 -62 -35.001s-47.666 -11.5 -72.999 -11.5c-24.667 0 -48.834 3.83301 -72.501 11.5s-44.5 19.334 -62.5 35.001s-32.5 35.5 -43.5 59.5s-16.5 52.333 -16.5 85v421c0 30.667 -12 46 -36 46
s-36 -15.333 -36 -46v-430zM389 768c6 -2.66699 11 -4.33398 15 -5.00098s7.66699 -1 11 -1c8.66699 0 15.5 3.83301 20.5 11.5s7.5 15.167 7.5 22.5c0 5.33301 -1.16699 10.833 -3.5 16.5s-10.5 11.167 -24.5 16.5l-138 53c-6 2.66699 -11 4.33398 -15 5.00098
s-7.66699 1 -11 1c-8.66699 0 -15.5 -3.83301 -20.5 -11.5s-7.5 -15.167 -7.5 -22.5c0 -5.33301 1.16699 -10.833 3.5 -16.5s10.5 -11.167 24.5 -16.5z" />
    <glyph glyph-name="dotlessi" unicode="&#xf5;" 
d="M138 492c0 30.667 -12 46 -36 46s-36 -15.333 -36 -46v-452c0 -30.667 12 -46 36 -46s36 15.333 36 46v452z" />
    <glyph glyph-name="circumflex" unicode="&#xf6;" 
d="M102 714l-126.994 -49c-14 -5.33301 -22.333 -11.5 -25 -18.5s-4 -13.167 -4 -18.5c0 -7.33301 2.66699 -14.166 8 -20.499s12.666 -9.5 21.999 -9.5c5.33301 0 10.166 0.5 14.499 1.5s8.16602 2.16699 11.499 3.5l100 45l100 -45
c3.33301 -1.33301 7.16602 -2.5 11.499 -3.5s9.16602 -1.5 14.499 -1.5c9.33301 0 16.666 3.16699 21.999 9.5s8 13.166 8 20.499c0 5.33301 -1.33301 11.5 -4 18.5s-11 13.167 -25 18.5z" />
    <glyph glyph-name="tilde" unicode="&#xf7;" 
d="M42 640c10 0 20.167 -1.33398 30.5 -4.00098s20.666 -5.66699 30.999 -9s20.666 -6.33301 30.999 -9s20.833 -4 31.5 -4s20.834 1.83301 30.501 5.5s18.167 8.16699 25.5 13.5s13.166 11.333 17.499 18s6.5 13.334 6.5 20.001c0 22 -9.66699 33 -29 33
c-6 0 -11 -1.33301 -15 -4s-7.83301 -5.5 -11.5 -8.5s-7.66699 -5.83301 -12 -8.5s-9.83301 -4 -16.5 -4c-10 0 -20.167 1.33301 -30.5 4s-20.666 5.83398 -30.999 9.50098s-20.666 6.83398 -30.999 9.50098s-20.833 4 -31.5 4s-20.834 -1.83301 -30.501 -5.5
s-18.167 -8.33398 -25.5 -14.001s-13.166 -12.334 -17.499 -20.001s-6.5 -15.5 -6.5 -23.5c0 -18 9.66699 -27 29 -27c6 0 11 1.33301 15 4s7.83301 5.5 11.5 8.5s7.66699 5.66699 12 8s9.83301 3.5 16.5 3.5z" />
    <glyph glyph-name="macron" unicode="&#xf8;" 
d="M196 597c30.667 0 46 12 46 36s-15.333 36 -46 36h-188c-30.667 0 -46 -12 -46 -36s15.333 -36 46 -36h188z" />
    <glyph glyph-name="breve" unicode="&#xf9;" 
d="M-32 687c0 -11.333 3.00391 -22.5 9.00391 -33.5s14.667 -20.667 26 -29s25.333 -15 42 -20s35.667 -7.5 57 -7.5s40.333 2.5 57 7.5s30.667 11.667 42 20s20 18 26 29s9 22.167 9 33.5c0 12.667 -2.5 21.334 -7.5 26.001s-11.5 7 -19.5 7c-10 0 -17.5 -3 -22.5 -9
l-16 -19.5c-5.66699 -7 -13.334 -13.5 -23.001 -19.5s-24.834 -9 -45.501 -9s-35.834 3 -45.501 9s-17.334 12.5 -23.001 19.5l-16 19.5c-5 6 -12.5 9 -22.5 9c-8 0 -14.5 -2.33301 -19.5 -7s-7.5 -13.334 -7.5 -26.001z" />
    <glyph glyph-name="dotaccent" unicode="&#xfa;" 
d="M53 640c0 -13.333 4.83301 -24.833 14.5 -34.5s21.167 -14.5 34.5 -14.5s24.833 4.83301 34.5 14.5s14.5 21.167 14.5 34.5s-4.83301 24.833 -14.5 34.5s-21.167 14.5 -34.5 14.5s-24.833 -4.83301 -34.5 -14.5s-14.5 -21.167 -14.5 -34.5z" />
    <glyph glyph-name="ring" unicode="&#xfb;" 
d="M9 679c0 -12.667 2.5 -24.667 7.5 -36s11.667 -21.166 20 -29.499s18.166 -15 29.499 -20s23.333 -7.5 36 -7.5s24.667 2.5 36 7.5s21.166 11.667 29.499 20s15 18.166 20 29.499s7.5 23.333 7.5 36s-2.5 24.667 -7.5 36s-11.667 21.166 -20 29.499
s-18.166 15 -29.499 20s-23.333 7.5 -36 7.5s-24.667 -2.5 -36 -7.5s-21.166 -11.667 -29.499 -20s-15 -18.166 -20 -29.499s-7.5 -23.333 -7.5 -36zM51 679c0 14 5 26 15 36s22 15 36 15s26 -5 36 -15s15 -22 15 -36s-5 -26 -15 -36s-22 -15 -36 -15s-26 5 -36 15
s-15 22 -15 36z" />
    <glyph glyph-name="cedilla" unicode="&#xfc;" 
d="M80 0l-19.999 -30.999c-4.66699 -7.33301 -8.33398 -13.833 -11.001 -19.5s-4 -10.834 -4 -15.501c0 -5.33301 3 -8.66602 9 -9.99902s15.667 -2 29 -2c11.333 0 21.5 -1.33301 30.5 -4s13.5 -10 13.5 -22c0 -6.66699 -2.16699 -12.5 -6.5 -17.5
s-11.166 -7.5 -20.499 -7.5c-10 0 -17.833 0.666992 -23.5 2s-10.5 2.66602 -14.5 3.99902l-11.5 4c-3.66699 1.33301 -8.16699 2 -13.5 2c-10 0 -16.833 -2.5 -20.5 -7.5s-5.5 -10.5 -5.5 -16.5c0 -12 6.66699 -21 20 -27s31.666 -9 54.999 -9c30 0 54.333 7.66699 73 23
s28 35.333 28 60c0 14.667 -5.5 27.667 -16.5 39s-26.167 17 -45.5 17c-8.66699 0 -16.667 -1 -24 -3l-2 2l26 39h-45z" />
    <glyph glyph-name="hungarumlaut" unicode="&#xfd;" 
d="M-80 669c-14 -5.33301 -22.167 -10.833 -24.5 -16.5s-3.5 -11.167 -3.5 -16.5c0 -7.33301 2.5 -14.833 7.5 -22.5s11.833 -11.5 20.5 -11.5c3.33301 0 7 0.333008 11 1s9 2.33398 15 5.00098l138 53c14 5.33301 22.167 10.833 24.5 16.5s3.5 11.167 3.5 16.5
c0 7.33301 -2.5 14.833 -7.5 22.5s-11.833 11.5 -20.5 11.5c-3.33301 0 -7 -0.333008 -11 -1s-9 -2.33398 -15 -5.00098zM120 669c-14 -5.33301 -22.167 -10.833 -24.5 -16.5s-3.5 -11.167 -3.5 -16.5c0 -7.33301 2.5 -14.833 7.5 -22.5s11.833 -11.5 20.5 -11.5
c3.33301 0 7 0.333008 11 1s9 2.33398 15 5.00098l138 53c14 5.33301 22.167 10.833 24.5 16.5s3.5 11.167 3.5 16.5c0 7.33301 -2.5 14.833 -7.5 22.5s-11.833 11.5 -20.5 11.5c-3.33301 0 -7 -0.333008 -11 -1s-9 -2.33398 -15 -5.00098z" />
    <glyph glyph-name="ogonek" unicode="&#xfe;" 
d="M77 0c-26.667 -13.333 -48.665 -28.998 -65.998 -46.998s-26 -39.667 -26 -65s7.83301 -42.5 23.5 -51.5s35.5 -13.5 59.5 -13.5c28 0 49.5 3.83301 64.5 11.5s22.5 17.167 22.5 28.5c0 5.33301 -1.83301 10.666 -5.5 15.999s-10.167 8 -19.5 8s-17.333 -1.66699 -24 -5
s-15.667 -5 -27 -5c-18.667 0 -28 9 -28 27c0 6.66699 2.16699 14 6.5 22s10.166 16.167 17.499 24.5s15.666 16.666 24.999 24.999l28 24.5h-51z" />
    <glyph glyph-name="caron" unicode="&#xff;" 
d="M102 598l126.994 49c14 5.33301 22.333 11.5 25 18.5s4 13.167 4 18.5c0 7.33301 -2.66699 14.166 -8 20.499s-12.666 9.5 -21.999 9.5c-5.33301 0 -10.166 -0.5 -14.499 -1.5s-8.16602 -2.16699 -11.499 -3.5l-100 -45l-100 45
c-3.33301 1.33301 -7.16602 2.5 -11.499 3.5s-9.16602 1.5 -14.499 1.5c-9.33301 0 -16.666 -3.16699 -21.999 -9.5s-8 -13.166 -8 -20.499c0 -5.33301 1.33301 -11.5 4 -18.5s11 -13.167 25 -18.5z" />
    <glyph glyph-name="aring" unicode="&#x152;" horiz-adv-x="556" 
d="M418 459l-2.99805 0.00195312c-20.667 26.667 -42.834 46.5 -66.501 59.5s-51.167 19.5 -82.5 19.5c-38.667 0 -72.167 -7.83301 -100.5 -23.5s-51.833 -36.334 -70.5 -62.001s-32.667 -54.834 -42 -87.501s-14 -65.667 -14 -99c0 -37.333 4.83301 -72.5 14.5 -105.5
s24 -61.833 43 -86.5s42.833 -44.167 71.5 -58.5s62 -21.5 100 -21.5c31.333 0 59.666 6.66699 84.999 20s46 33 62 59h3v-33c0 -30.667 12 -46 36 -46s36 15.333 36 46v452c0 30.667 -12 46 -36 46s-36 -15.333 -36 -46v-33zM117.002 266.002c0 24 2.83301 48.667 8.5 74
s14.5 48.166 26.5 68.499s27.5 37 46.5 50s42.167 19.5 69.5 19.5c28 0 51.5 -6.5 70.5 -19.5s34.5 -29.667 46.5 -50s20.5 -43.166 25.5 -68.499s7.5 -50 7.5 -74s-2.5 -48.667 -7.5 -74s-13.5 -48.166 -25.5 -68.499s-27.5 -37 -46.5 -50s-42.5 -19.5 -70.5 -19.5
s-51.667 6.5 -71 19.5s-34.833 29.667 -46.5 50s-20.167 43.166 -25.5 68.499s-8 50 -8 74zM185.002 679.002c0 -12.667 2.5 -24.667 7.5 -36s11.667 -21.166 20 -29.499s18.166 -15 29.499 -20s23.333 -7.5 36 -7.5s24.667 2.5 36 7.5s21.166 11.667 29.499 20
s15 18.166 20 29.499s7.5 23.333 7.5 36s-2.5 24.667 -7.5 36s-11.667 21.166 -20 29.499s-18.166 15 -29.499 20s-23.333 7.5 -36 7.5s-24.667 -2.5 -36 -7.5s-21.166 -11.667 -29.499 -20s-15 -18.166 -20 -29.499s-7.5 -23.333 -7.5 -36zM227.002 679.002
c0 14 5 26 15 36s22 15 36 15s26 -5 36 -15s15 -22 15 -36s-5 -26 -15 -36s-22 -15 -36 -15s-26 5 -36 15s-15 22 -15 36z" />
    <glyph glyph-name="uacute" unicode="&#x153;" horiz-adv-x="536" 
d="M66 175c0 -28.667 5.16504 -54.167 15.498 -76.5s24.5 -41.333 42.5 -57s39.333 -27.5 64 -35.5s51.334 -12 80.001 -12s55.334 4 80.001 12s46 19.833 64 35.5s32.167 34.667 42.5 57s15.5 47.833 15.5 76.5v317c0 30.667 -12 46 -36 46s-36 -15.333 -36 -46v-299
c0 -46 -11.5 -80.667 -34.5 -104s-54.833 -35 -95.5 -35s-72.5 11.667 -95.5 35s-34.5 58 -34.5 104v299c0 30.667 -12 46 -36 46s-36 -15.333 -36 -46v-317zM185.998 669c-14 -5.33301 -22.167 -10.833 -24.5 -16.5s-3.5 -11.167 -3.5 -16.5
c0 -7.33301 2.5 -14.833 7.5 -22.5s11.833 -11.5 20.5 -11.5c3.33301 0 7 0.333008 11 1s9 2.33398 15 5.00098l138 53c14 5.33301 22.167 10.833 24.5 16.5s3.5 11.167 3.5 16.5c0 7.33301 -2.5 14.833 -7.5 22.5s-11.833 11.5 -20.5 11.5c-3.33301 0 -7 -0.333008 -11 -1
s-9 -2.33398 -15 -5.00098z" />
    <glyph glyph-name="adieresis" unicode="&#x160;" horiz-adv-x="556" 
d="M418 459l-2.99805 0.00195312c-20.667 26.667 -42.834 46.5 -66.501 59.5s-51.167 19.5 -82.5 19.5c-38.667 0 -72.167 -7.83301 -100.5 -23.5s-51.833 -36.334 -70.5 -62.001s-32.667 -54.834 -42 -87.501s-14 -65.667 -14 -99c0 -37.333 4.83301 -72.5 14.5 -105.5
s24 -61.833 43 -86.5s42.833 -44.167 71.5 -58.5s62 -21.5 100 -21.5c31.333 0 59.666 6.66699 84.999 20s46 33 62 59h3v-33c0 -30.667 12 -46 36 -46s36 15.333 36 46v452c0 30.667 -12 46 -36 46s-36 -15.333 -36 -46v-33zM117.002 266.002c0 24 2.83301 48.667 8.5 74
s14.5 48.166 26.5 68.499s27.5 37 46.5 50s42.167 19.5 69.5 19.5c28 0 51.5 -6.5 70.5 -19.5s34.5 -29.667 46.5 -50s20.5 -43.166 25.5 -68.499s7.5 -50 7.5 -74s-2.5 -48.667 -7.5 -74s-13.5 -48.166 -25.5 -68.499s-27.5 -37 -46.5 -50s-42.5 -19.5 -70.5 -19.5
s-51.667 6.5 -71 19.5s-34.833 29.667 -46.5 50s-20.167 43.166 -25.5 68.499s-8 50 -8 74zM140.002 640.002c0 -13.333 4.83301 -24.833 14.5 -34.5s21.167 -14.5 34.5 -14.5s24.833 4.83301 34.5 14.5s14.5 21.167 14.5 34.5s-4.83301 24.833 -14.5 34.5
s-21.167 14.5 -34.5 14.5s-24.833 -4.83301 -34.5 -14.5s-14.5 -21.167 -14.5 -34.5zM318.002 640.002c0 -13.333 4.83301 -24.833 14.5 -34.5s21.167 -14.5 34.5 -14.5s24.833 4.83301 34.5 14.5s14.5 21.167 14.5 34.5s-4.83301 24.833 -14.5 34.5
s-21.167 14.5 -34.5 14.5s-24.833 -4.83301 -34.5 -14.5s-14.5 -21.167 -14.5 -34.5z" />
    <glyph glyph-name="odieresis" unicode="&#x161;" horiz-adv-x="536" 
d="M117 266c0 24 2.66699 48.667 8 74s13.833 48.166 25.5 68.499s27.167 37 46.5 50s43 19.5 71 19.5s51.667 -6.5 71 -19.5s34.833 -29.667 46.5 -50s20.167 -43.166 25.5 -68.499s8 -50 8 -74s-2.66699 -48.667 -8 -74s-13.833 -48.166 -25.5 -68.499
s-27.167 -37 -46.5 -50s-43 -19.5 -71 -19.5s-51.667 6.5 -71 19.5s-34.833 29.667 -46.5 50s-20.167 43.166 -25.5 68.499s-8 50 -8 74zM497 266c0 33.333 -4.5 66.333 -13.5 99s-23 61.834 -42 87.501s-42.833 46.334 -71.5 62.001s-62.667 23.5 -102 23.5
c-38.667 0 -72.5 -7.83301 -101.5 -23.5s-52.833 -36.334 -71.5 -62.001s-32.667 -54.834 -42 -87.501s-14 -65.667 -14 -99c0 -37.333 4.83301 -72.5 14.5 -105.5s24 -61.833 43 -86.5s42.833 -44.167 71.5 -58.5s62 -21.5 100 -21.5s71.333 7.16699 100 21.5
s52.5 33.833 71.5 58.5s33.333 53.5 43 86.5s14.5 68.167 14.5 105.5zM130 640c0 -13.333 4.83301 -24.833 14.5 -34.5s21.167 -14.5 34.5 -14.5s24.833 4.83301 34.5 14.5s14.5 21.167 14.5 34.5s-4.83301 24.833 -14.5 34.5s-21.167 14.5 -34.5 14.5
s-24.833 -4.83301 -34.5 -14.5s-14.5 -21.167 -14.5 -34.5zM308 640c0 -13.333 4.83301 -24.833 14.5 -34.5s21.167 -14.5 34.5 -14.5s24.833 4.83301 34.5 14.5s14.5 21.167 14.5 34.5s-4.83301 24.833 -14.5 34.5s-21.167 14.5 -34.5 14.5s-24.833 -4.83301 -34.5 -14.5
s-14.5 -21.167 -14.5 -34.5z" />
    <glyph glyph-name="udieresis" unicode="&#x178;" horiz-adv-x="536" 
d="M66 175c0 -28.667 5.16504 -54.167 15.498 -76.5s24.5 -41.333 42.5 -57s39.333 -27.5 64 -35.5s51.334 -12 80.001 -12s55.334 4 80.001 12s46 19.833 64 35.5s32.167 34.667 42.5 57s15.5 47.833 15.5 76.5v317c0 30.667 -12 46 -36 46s-36 -15.333 -36 -46v-299
c0 -46 -11.5 -80.667 -34.5 -104s-54.833 -35 -95.5 -35s-72.5 11.667 -95.5 35s-34.5 58 -34.5 104v299c0 30.667 -12 46 -36 46s-36 -15.333 -36 -46v-317zM129.998 640c0 -13.333 4.83301 -24.833 14.5 -34.5s21.167 -14.5 34.5 -14.5s24.833 4.83301 34.5 14.5
s14.5 21.167 14.5 34.5s-4.83301 24.833 -14.5 34.5s-21.167 14.5 -34.5 14.5s-24.833 -4.83301 -34.5 -14.5s-14.5 -21.167 -14.5 -34.5zM307.998 640c0 -13.333 4.83301 -24.833 14.5 -34.5s21.167 -14.5 34.5 -14.5s24.833 4.83301 34.5 14.5s14.5 21.167 14.5 34.5
s-4.83301 24.833 -14.5 34.5s-21.167 14.5 -34.5 14.5s-24.833 -4.83301 -34.5 -14.5s-14.5 -21.167 -14.5 -34.5z" />
    <glyph glyph-name="Eacute" unicode="&#x192;" horiz-adv-x="444" 
d="M138 322l199 0.00585938c11.333 0 20.5 3.16699 27.5 9.5s10.5 14.166 10.5 23.499s-3.5 17.166 -10.5 23.499s-16.167 9.5 -27.5 9.5h-198v258h207c11.333 0 20.5 3.16699 27.5 9.5s10.5 14.166 10.5 23.499s-3.5 17.166 -10.5 23.499s-16.167 9.5 -27.5 9.5h-236
c-16 0 -27.333 -3.16699 -34 -9.5s-10 -15.833 -10 -28.5v-636c0 -12.667 3.33301 -22.167 10 -28.5s18 -9.5 34 -9.5h246c11.333 0 20.5 3.16699 27.5 9.5s10.5 14.166 10.5 23.499s-3.5 17.166 -10.5 23.499s-16.167 9.5 -27.5 9.5h-218v256zM140 829.006
c-14 -5.33301 -22.167 -10.833 -24.5 -16.5s-3.5 -11.167 -3.5 -16.5c0 -7.33301 2.5 -14.833 7.5 -22.5s11.833 -11.5 20.5 -11.5c3.33301 0 7 0.333008 11 1s9 2.33398 15 5.00098l138 53c14 5.33301 22.167 10.833 24.5 16.5s3.5 11.167 3.5 16.5
c0 7.33301 -2.5 14.833 -7.5 22.5s-11.833 11.5 -20.5 11.5c-3.33301 0 -7 -0.333008 -11 -1s-9 -2.33398 -15 -5.00098z" />
    <glyph glyph-name="agrave" unicode="&#x2c6;" horiz-adv-x="556" 
d="M418 459l-2.99805 0.00195312c-20.667 26.667 -42.834 46.5 -66.501 59.5s-51.167 19.5 -82.5 19.5c-38.667 0 -72.167 -7.83301 -100.5 -23.5s-51.833 -36.334 -70.5 -62.001s-32.667 -54.834 -42 -87.501s-14 -65.667 -14 -99c0 -37.333 4.83301 -72.5 14.5 -105.5
s24 -61.833 43 -86.5s42.833 -44.167 71.5 -58.5s62 -21.5 100 -21.5c31.333 0 59.666 6.66699 84.999 20s46 33 62 59h3v-33c0 -30.667 12 -46 36 -46s36 15.333 36 46v452c0 30.667 -12 46 -36 46s-36 -15.333 -36 -46v-33zM117.002 266.002c0 24 2.83301 48.667 8.5 74
s14.5 48.166 26.5 68.499s27.5 37 46.5 50s42.167 19.5 69.5 19.5c28 0 51.5 -6.5 70.5 -19.5s34.5 -29.667 46.5 -50s20.5 -43.166 25.5 -68.499s7.5 -50 7.5 -74s-2.5 -48.667 -7.5 -74s-13.5 -48.166 -25.5 -68.499s-27.5 -37 -46.5 -50s-42.5 -19.5 -70.5 -19.5
s-51.667 6.5 -71 19.5s-34.833 29.667 -46.5 50s-20.167 43.166 -25.5 68.499s-8 50 -8 74zM334.002 608.002c6 -2.66699 11 -4.33398 15 -5.00098s7.66699 -1 11 -1c8.66699 0 15.5 3.83301 20.5 11.5s7.5 15.167 7.5 22.5c0 5.33301 -1.16699 10.833 -3.5 16.5
s-10.5 11.167 -24.5 16.5l-138 53c-6 2.66699 -11 4.33398 -15 5.00098s-7.66699 1 -11 1c-8.66699 0 -15.5 -3.83301 -20.5 -11.5s-7.5 -15.167 -7.5 -22.5c0 -5.33301 1.16699 -10.833 3.5 -16.5s10.5 -11.167 24.5 -16.5z" />
    <glyph glyph-name="ograve" unicode="&#x2dc;" horiz-adv-x="536" 
d="M117 266c0 24 2.66699 48.667 8 74s13.833 48.166 25.5 68.499s27.167 37 46.5 50s43 19.5 71 19.5s51.667 -6.5 71 -19.5s34.833 -29.667 46.5 -50s20.167 -43.166 25.5 -68.499s8 -50 8 -74s-2.66699 -48.667 -8 -74s-13.833 -48.166 -25.5 -68.499
s-27.167 -37 -46.5 -50s-43 -19.5 -71 -19.5s-51.667 6.5 -71 19.5s-34.833 29.667 -46.5 50s-20.167 43.166 -25.5 68.499s-8 50 -8 74zM497 266c0 33.333 -4.5 66.333 -13.5 99s-23 61.834 -42 87.501s-42.833 46.334 -71.5 62.001s-62.667 23.5 -102 23.5
c-38.667 0 -72.5 -7.83301 -101.5 -23.5s-52.833 -36.334 -71.5 -62.001s-32.667 -54.834 -42 -87.501s-14 -65.667 -14 -99c0 -37.333 4.83301 -72.5 14.5 -105.5s24 -61.833 43 -86.5s42.833 -44.167 71.5 -58.5s62 -21.5 100 -21.5s71.333 7.16699 100 21.5
s52.5 33.833 71.5 58.5s33.333 53.5 43 86.5s14.5 68.167 14.5 105.5zM324 608c6 -2.66699 11 -4.33398 15 -5.00098s7.66699 -1 11 -1c8.66699 0 15.5 3.83301 20.5 11.5s7.5 15.167 7.5 22.5c0 5.33301 -1.16699 10.833 -3.5 16.5s-10.5 11.167 -24.5 16.5l-138 53
c-6 2.66699 -11 4.33398 -15 5.00098s-7.66699 1 -11 1c-8.66699 0 -15.5 -3.83301 -20.5 -11.5s-7.5 -15.167 -7.5 -22.5c0 -5.33301 1.16699 -10.833 3.5 -16.5s10.5 -11.167 24.5 -16.5z" />
    <glyph glyph-name="ntilde" unicode="&#x2013;" horiz-adv-x="536" 
d="M138 333c0 22.667 3.66602 42.665 10.999 59.998s17 31.833 29 43.5s25.833 20.5 41.5 26.5s31.834 9 48.501 9c40 0 71.667 -11 95 -33s35 -51.667 35 -89v-310c0 -30.667 12 -46 36 -46s36 15.333 36 46v308c0 32 -5.5 59.833 -16.5 83.5s-25.5 43.334 -43.5 59.001
s-38.5 27.5 -61.5 35.5s-46.167 12 -69.5 12c-34 0 -62.333 -7.16699 -85 -21.5s-40.667 -31.166 -54 -50.499h-2v26c0 30.667 -12 46 -36 46s-36 -15.333 -36 -46v-452c0 -30.667 12 -46 36 -46s36 15.333 36 46v293zM207.999 639.998c10 0 20.167 -1.33398 30.5 -4.00098
s20.666 -5.66699 30.999 -9s20.666 -6.33301 30.999 -9s20.833 -4 31.5 -4s20.834 1.83301 30.501 5.5s18.167 8.16699 25.5 13.5s13.166 11.333 17.499 18s6.5 13.334 6.5 20.001c0 22 -9.66699 33 -29 33c-6 0 -11 -1.33301 -15 -4s-7.83301 -5.5 -11.5 -8.5
s-7.66699 -5.83301 -12 -8.5s-9.83301 -4 -16.5 -4c-10 0 -20.167 1.33301 -30.5 4s-20.666 5.83398 -30.999 9.50098s-20.666 6.83398 -30.999 9.50098s-20.833 4 -31.5 4s-20.834 -1.83301 -30.501 -5.5s-18.167 -8.33398 -25.5 -14.001s-13.166 -12.334 -17.499 -20.001
s-6.5 -15.5 -6.5 -23.5c0 -18 9.66699 -27 29 -27c6 0 11 1.33301 15 4s7.83301 5.5 11.5 8.5s7.66699 5.66699 12 8s9.83301 3.5 16.5 3.5z" />
    <glyph glyph-name="oacute" unicode="&#x2014;" horiz-adv-x="536" 
d="M117 266c0 24 2.66699 48.667 8 74s13.833 48.166 25.5 68.499s27.167 37 46.5 50s43 19.5 71 19.5s51.667 -6.5 71 -19.5s34.833 -29.667 46.5 -50s20.167 -43.166 25.5 -68.499s8 -50 8 -74s-2.66699 -48.667 -8 -74s-13.833 -48.166 -25.5 -68.499
s-27.167 -37 -46.5 -50s-43 -19.5 -71 -19.5s-51.667 6.5 -71 19.5s-34.833 29.667 -46.5 50s-20.167 43.166 -25.5 68.499s-8 50 -8 74zM497 266c0 33.333 -4.5 66.333 -13.5 99s-23 61.834 -42 87.501s-42.833 46.334 -71.5 62.001s-62.667 23.5 -102 23.5
c-38.667 0 -72.5 -7.83301 -101.5 -23.5s-52.833 -36.334 -71.5 -62.001s-32.667 -54.834 -42 -87.501s-14 -65.667 -14 -99c0 -37.333 4.83301 -72.5 14.5 -105.5s24 -61.833 43 -86.5s42.833 -44.167 71.5 -58.5s62 -21.5 100 -21.5s71.333 7.16699 100 21.5
s52.5 33.833 71.5 58.5s33.333 53.5 43 86.5s14.5 68.167 14.5 105.5zM186 669c-14 -5.33301 -22.167 -10.833 -24.5 -16.5s-3.5 -11.167 -3.5 -16.5c0 -7.33301 2.5 -14.833 7.5 -22.5s11.833 -11.5 20.5 -11.5c3.33301 0 7 0.333008 11 1s9 2.33398 15 5.00098l138 53
c14 5.33301 22.167 10.833 24.5 16.5s3.5 11.167 3.5 16.5c0 7.33301 -2.5 14.833 -7.5 22.5s-11.833 11.5 -20.5 11.5c-3.33301 0 -7 -0.333008 -11 -1s-9 -2.33398 -15 -5.00098z" />
    <glyph glyph-name="edieresis" unicode="&#x2018;" horiz-adv-x="519" 
d="M446 234c10.667 0 19.1699 1.33789 25.5029 4.00488s11.333 6.16699 15 10.5s6 9.16602 7 14.499s1.5 10.333 1.5 15c0 33.333 -4.83301 65.666 -14.5 96.999s-24 59 -43 83s-42.667 43.333 -71 58s-61.166 22 -98.499 22s-70.333 -7.83301 -99 -23.5
s-52.667 -36.334 -72 -62.001s-33.833 -54.834 -43.5 -87.501s-14.5 -65.667 -14.5 -99s4.66699 -66.333 14 -99s23.666 -61.834 42.999 -87.501s44.166 -46.334 74.499 -62.001s66.833 -23.5 109.5 -23.5c31.333 0 59.666 4 84.999 12s47 17.833 65 29.5s32 23.5 42 35.5
s15 22 15 30c0 14 -3.16699 23.333 -9.5 28s-14.5 7 -24.5 7c-8.66699 0 -17.334 -4.33301 -26.001 -13s-19.5 -18 -32.5 -28s-29 -19.333 -48 -28s-42.833 -13 -71.5 -13c-22.667 0 -43.667 5 -63 15s-35.833 23.333 -49.5 40s-24.5 35.834 -32.5 57.501
s-12.333 44.167 -13 67.5h329zM117.003 294.005c0.666992 22 4.33105 44 10.998 66s16.334 41.833 29.001 59.5s28.167 31.834 46.5 42.501s39.5 16 63.5 16s45.333 -5.33301 64 -16s34.167 -24.834 46.5 -42.501s21.833 -37.5 28.5 -59.5s10.334 -44 11.001 -66h-300z
M122 640.005c0 -13.333 4.83301 -24.833 14.5 -34.5s21.167 -14.5 34.5 -14.5s24.833 4.83301 34.5 14.5s14.5 21.167 14.5 34.5s-4.83301 24.833 -14.5 34.5s-21.167 14.5 -34.5 14.5s-24.833 -4.83301 -34.5 -14.5s-14.5 -21.167 -14.5 -34.5zM300 640.005
c0 -13.333 4.83301 -24.833 14.5 -34.5s21.167 -14.5 34.5 -14.5s24.833 4.83301 34.5 14.5s14.5 21.167 14.5 34.5s-4.83301 24.833 -14.5 34.5s-21.167 14.5 -34.5 14.5s-24.833 -4.83301 -34.5 -14.5s-14.5 -21.167 -14.5 -34.5z" />
    <glyph glyph-name="iacute" unicode="&#x2019;" 
d="M138 492c0 30.667 -12 46 -36 46s-36 -15.333 -36 -46v-452c0 -30.667 12 -46 36 -46s36 15.333 36 46v452zM20 669c-14 -5.33301 -22.167 -10.833 -24.5 -16.5s-3.5 -11.167 -3.5 -16.5c0 -7.33301 2.5 -14.833 7.5 -22.5s11.833 -11.5 20.5 -11.5
c3.33301 0 7 0.333008 11 1s9 2.33398 15 5.00098l138 53c14 5.33301 22.167 10.833 24.5 16.5s3.5 11.167 3.5 16.5c0 7.33301 -2.5 14.833 -7.5 22.5s-11.833 11.5 -20.5 11.5c-3.33301 0 -7 -0.333008 -11 -1s-9 -2.33398 -15 -5.00098z" />
    <glyph glyph-name="Ccedilla" unicode="&#x201a;" horiz-adv-x="593" 
d="M366 -5c32 0.666992 61.1699 4.66895 87.5029 12.002s49 16.333 68 27s33.667 21.5 44 32.5s15.5 20.167 15.5 27.5c0 12.667 -2.66699 21.834 -8 27.501s-12.666 8.5 -21.999 8.5c-6.66699 0 -14.334 -3.66699 -23.001 -11s-20.167 -15.333 -34.5 -24
s-32 -16.667 -53 -24s-47.167 -11 -78.5 -11c-42.667 0 -79.5 8 -110.5 24s-56.333 37.333 -76 64s-34.167 57.167 -43.5 91.5s-14 69.833 -14 106.5c0 36 5 72.333 15 109s24.833 69.5 44.5 98.5s43.834 52.667 72.501 71s61.667 27.5 99 27.5
c29.333 0 54.166 -4.16699 74.499 -12.5s37.333 -17.333 51 -27s25.167 -18.667 34.5 -27s17.666 -12.5 24.999 -12.5s14.5 3.16699 21.5 9.5s10.5 15.833 10.5 28.5c0 8.66699 -5.66699 19.167 -17 31.5s-26.666 24 -45.999 35s-42.166 20.5 -68.499 28.5
s-54.5 12 -84.5 12c-52.667 0 -98.334 -10.667 -137.001 -32s-70.834 -49.333 -96.501 -84s-44.834 -74.334 -57.501 -119.001s-19 -90.334 -19 -137.001c0 -44.667 5.66699 -87.334 17 -128.001s28.5 -76.667 51.5 -108s52.333 -57.166 88 -77.499s77.5 -32.5 125.5 -36.5
l-17 -27c-4.66699 -7.33301 -8.33398 -13.833 -11.001 -19.5s-4 -10.834 -4 -15.501c0 -5.33301 3 -8.66602 9 -9.99902s15.667 -2 29 -2c11.333 0 21.5 -1.33301 30.5 -4s13.5 -10 13.5 -22c0 -6.66699 -2.16699 -12.5 -6.5 -17.5s-11.166 -7.5 -20.499 -7.5
c-10 0 -17.833 0.666992 -23.5 2s-10.5 2.66602 -14.5 3.99902l-11.5 4c-3.66699 1.33301 -8.16699 2 -13.5 2c-10 0 -16.833 -2.5 -20.5 -7.5s-5.5 -10.5 -5.5 -16.5c0 -12 6.66699 -21 20 -27s31.666 -9 54.999 -9c30 0 54.333 7.66699 73 23s28 35.333 28 60
c0 14.667 -5.5 27.667 -16.5 39s-26.167 17 -45.5 17c-8.66699 0 -16.667 -1 -24 -3l-2 2z" />
    <glyph glyph-name="igrave" unicode="&#x201c;" 
d="M138 492c0 30.667 -12 46 -36 46s-36 -15.333 -36 -46v-452c0 -30.667 12 -46 36 -46s36 15.333 36 46v452zM158 608c6 -2.66699 11 -4.33398 15 -5.00098s7.66699 -1 11 -1c8.66699 0 15.5 3.83301 20.5 11.5s7.5 15.167 7.5 22.5c0 5.33301 -1.16699 10.833 -3.5 16.5
s-10.5 11.167 -24.5 16.5l-138 53c-6 2.66699 -11 4.33398 -15 5.00098s-7.66699 1 -11 1c-8.66699 0 -15.5 -3.83301 -20.5 -11.5s-7.5 -15.167 -7.5 -22.5c0 -5.33301 1.16699 -10.833 3.5 -16.5s10.5 -11.167 24.5 -16.5z" />
    <glyph glyph-name="icircumflex" unicode="&#x201d;" 
d="M138 492c0 30.667 -12 46 -36 46s-36 -15.333 -36 -46v-452c0 -30.667 12 -46 36 -46s36 15.333 36 46v452zM102 714l-126.994 -49c-14 -5.33301 -22.333 -11.5 -25 -18.5s-4 -13.167 -4 -18.5c0 -7.33301 2.66699 -14.166 8 -20.499s12.666 -9.5 21.999 -9.5
c5.33301 0 10.166 0.5 14.499 1.5s8.16602 2.16699 11.499 3.5l100 45l100 -45c3.33301 -1.33301 7.16602 -2.5 11.499 -3.5s9.16602 -1.5 14.499 -1.5c9.33301 0 16.666 3.16699 21.999 9.5s8 13.166 8 20.499c0 5.33301 -1.33301 11.5 -4 18.5s-11 13.167 -25 18.5z" />
    <glyph glyph-name="Ntilde" unicode="&#x201e;" horiz-adv-x="666" 
d="M138 586h2l387 -566c6 -8.66699 11.667 -15.167 17 -19.5s12.666 -6.5 21.999 -6.5c10 0 18.167 3 24.5 9s9.5 17.667 9.5 35v634c0 30.667 -12 46 -36 46s-36 -15.333 -36 -46v-539h-2l-382 559c-5.33301 7.33301 -11.166 13.5 -17.499 18.5s-14.5 7.5 -24.5 7.5
s-18.5 -3.5 -25.5 -10.5s-10.5 -17.5 -10.5 -31.5v-636c0 -30.667 12 -46 36 -46s36 15.333 36 46v546zM273 800c10 0 20.167 -1.33398 30.5 -4.00098s20.666 -5.66699 30.999 -9s20.666 -6.33301 30.999 -9s20.833 -4 31.5 -4s20.834 1.83301 30.501 5.5
s18.167 8.16699 25.5 13.5s13.166 11.333 17.499 18s6.5 13.334 6.5 20.001c0 22 -9.66699 33 -29 33c-6 0 -11 -1.33301 -15 -4s-7.83301 -5.5 -11.5 -8.5s-7.66699 -5.83301 -12 -8.5s-9.83301 -4 -16.5 -4c-10 0 -20.167 1.33301 -30.5 4
s-20.666 5.83398 -30.999 9.50098s-20.666 6.83398 -30.999 9.50098s-20.833 4 -31.5 4s-20.834 -1.83301 -30.501 -5.5s-18.167 -8.33398 -25.5 -14.001s-13.166 -12.334 -17.499 -20.001s-6.5 -15.5 -6.5 -23.5c0 -18 9.66699 -27 29 -27c6 0 11 1.33301 15 4
s7.83301 5.5 11.5 8.5s7.66699 5.66699 12 8s9.83301 3.5 16.5 3.5z" />
    <glyph glyph-name="Udieresis" unicode="&#x2020;" horiz-adv-x="666" 
d="M66 242c0 -40.667 7.5 -76.5 22.5 -107.5s34.833 -57 59.5 -78s53 -36.667 85 -47s65.333 -15.5 100 -15.5s68 5.16699 100 15.5s60.333 26 85 47s44.5 47 59.5 78s22.5 66.833 22.5 107.5v430c0 30.667 -12 46 -36 46s-36 -15.333 -36 -46v-421
c0 -32.667 -5.5 -61 -16.5 -85s-25.5 -43.833 -43.5 -59.5s-38.667 -27.334 -62 -35.001s-47.666 -11.5 -72.999 -11.5c-24.667 0 -48.834 3.83301 -72.501 11.5s-44.5 19.334 -62.5 35.001s-32.5 35.5 -43.5 59.5s-16.5 52.333 -16.5 85v421c0 30.667 -12 46 -36 46
s-36 -15.333 -36 -46v-430zM195 800c0 -13.333 4.83301 -24.833 14.5 -34.5s21.167 -14.5 34.5 -14.5s24.833 4.83301 34.5 14.5s14.5 21.167 14.5 34.5s-4.83301 24.833 -14.5 34.5s-21.167 14.5 -34.5 14.5s-24.833 -4.83301 -34.5 -14.5s-14.5 -21.167 -14.5 -34.5z
M373 800c0 -13.333 4.83301 -24.833 14.5 -34.5s21.167 -14.5 34.5 -14.5s24.833 4.83301 34.5 14.5s14.5 21.167 14.5 34.5s-4.83301 24.833 -14.5 34.5s-21.167 14.5 -34.5 14.5s-24.833 -4.83301 -34.5 -14.5s-14.5 -21.167 -14.5 -34.5z" />
    <glyph glyph-name="aacute" unicode="&#x2021;" horiz-adv-x="556" 
d="M418 459l-2.99805 0.00195312c-20.667 26.667 -42.834 46.5 -66.501 59.5s-51.167 19.5 -82.5 19.5c-38.667 0 -72.167 -7.83301 -100.5 -23.5s-51.833 -36.334 -70.5 -62.001s-32.667 -54.834 -42 -87.501s-14 -65.667 -14 -99c0 -37.333 4.83301 -72.5 14.5 -105.5
s24 -61.833 43 -86.5s42.833 -44.167 71.5 -58.5s62 -21.5 100 -21.5c31.333 0 59.666 6.66699 84.999 20s46 33 62 59h3v-33c0 -30.667 12 -46 36 -46s36 15.333 36 46v452c0 30.667 -12 46 -36 46s-36 -15.333 -36 -46v-33zM117.002 266.002c0 24 2.83301 48.667 8.5 74
s14.5 48.166 26.5 68.499s27.5 37 46.5 50s42.167 19.5 69.5 19.5c28 0 51.5 -6.5 70.5 -19.5s34.5 -29.667 46.5 -50s20.5 -43.166 25.5 -68.499s7.5 -50 7.5 -74s-2.5 -48.667 -7.5 -74s-13.5 -48.166 -25.5 -68.499s-27.5 -37 -46.5 -50s-42.5 -19.5 -70.5 -19.5
s-51.667 6.5 -71 19.5s-34.833 29.667 -46.5 50s-20.167 43.166 -25.5 68.499s-8 50 -8 74zM196.002 669.002c-14 -5.33301 -22.167 -10.833 -24.5 -16.5s-3.5 -11.167 -3.5 -16.5c0 -7.33301 2.5 -14.833 7.5 -22.5s11.833 -11.5 20.5 -11.5c3.33301 0 7 0.333008 11 1
s9 2.33398 15 5.00098l138 53c14 5.33301 22.167 10.833 24.5 16.5s3.5 11.167 3.5 16.5c0 7.33301 -2.5 14.833 -7.5 22.5s-11.833 11.5 -20.5 11.5c-3.33301 0 -7 -0.333008 -11 -1s-9 -2.33398 -15 -5.00098z" />
    <glyph glyph-name="idieresis" unicode="&#x2022;" 
d="M138 492c0 30.667 -12 46 -36 46s-36 -15.333 -36 -46v-452c0 -30.667 12 -46 36 -46s36 15.333 36 46v452zM-36 640c0 -13.333 4.83301 -24.833 14.5 -34.5s21.167 -14.5 34.5 -14.5s24.833 4.83301 34.5 14.5s14.5 21.167 14.5 34.5s-4.83301 24.833 -14.5 34.5
s-21.167 14.5 -34.5 14.5s-24.833 -4.83301 -34.5 -14.5s-14.5 -21.167 -14.5 -34.5zM142 640c0 -13.333 4.83301 -24.833 14.5 -34.5s21.167 -14.5 34.5 -14.5s24.833 4.83301 34.5 14.5s14.5 21.167 14.5 34.5s-4.83301 24.833 -14.5 34.5s-21.167 14.5 -34.5 14.5
s-24.833 -4.83301 -34.5 -14.5s-14.5 -21.167 -14.5 -34.5z" />
    <glyph glyph-name="Odieresis" unicode="&#x2026;" horiz-adv-x="684" 
d="M40 356c0 -45.333 6.33301 -89.666 19 -132.999s31.5 -82 56.5 -116s56.5 -61.333 94.5 -82s82 -31 132 -31s94 10.333 132 31s69.5 48 94.5 82s43.833 72.667 56.5 116s19 87.666 19 132.999s-6.33301 89.666 -19 132.999s-31.5 82 -56.5 116s-56.5 61.333 -94.5 82
s-82 31 -132 31s-94 -10.333 -132 -31s-69.5 -48 -94.5 -82s-43.833 -72.667 -56.5 -116s-19 -87.666 -19 -132.999zM342 60c-42 0 -77.167 9.16699 -105.5 27.5s-51.333 41.833 -69 70.5s-30.334 60.5 -38.001 95.5s-11.5 69.167 -11.5 102.5s3.83301 67.5 11.5 102.5
s20.334 66.833 38.001 95.5s40.667 52.167 69 70.5s63.5 27.5 105.5 27.5s77.167 -9.16699 105.5 -27.5s51.333 -41.833 69 -70.5s30.334 -60.5 38.001 -95.5s11.5 -69.167 11.5 -102.5s-3.83301 -67.5 -11.5 -102.5s-20.334 -66.833 -38.001 -95.5
s-40.667 -52.167 -69 -70.5s-63.5 -27.5 -105.5 -27.5zM204 800c0 -13.333 4.83301 -24.833 14.5 -34.5s21.167 -14.5 34.5 -14.5s24.833 4.83301 34.5 14.5s14.5 21.167 14.5 34.5s-4.83301 24.833 -14.5 34.5s-21.167 14.5 -34.5 14.5s-24.833 -4.83301 -34.5 -14.5
s-14.5 -21.167 -14.5 -34.5zM382 800c0 -13.333 4.83301 -24.833 14.5 -34.5s21.167 -14.5 34.5 -14.5s24.833 4.83301 34.5 14.5s14.5 21.167 14.5 34.5s-4.83301 24.833 -14.5 34.5s-21.167 14.5 -34.5 14.5s-24.833 -4.83301 -34.5 -14.5s-14.5 -21.167 -14.5 -34.5z" />
    <glyph glyph-name="acircumflex" unicode="&#x2030;" horiz-adv-x="556" 
d="M418 459l-2.99805 0.00195312c-20.667 26.667 -42.834 46.5 -66.501 59.5s-51.167 19.5 -82.5 19.5c-38.667 0 -72.167 -7.83301 -100.5 -23.5s-51.833 -36.334 -70.5 -62.001s-32.667 -54.834 -42 -87.501s-14 -65.667 -14 -99c0 -37.333 4.83301 -72.5 14.5 -105.5
s24 -61.833 43 -86.5s42.833 -44.167 71.5 -58.5s62 -21.5 100 -21.5c31.333 0 59.666 6.66699 84.999 20s46 33 62 59h3v-33c0 -30.667 12 -46 36 -46s36 15.333 36 46v452c0 30.667 -12 46 -36 46s-36 -15.333 -36 -46v-33zM117.002 266.002c0 24 2.83301 48.667 8.5 74
s14.5 48.166 26.5 68.499s27.5 37 46.5 50s42.167 19.5 69.5 19.5c28 0 51.5 -6.5 70.5 -19.5s34.5 -29.667 46.5 -50s20.5 -43.166 25.5 -68.499s7.5 -50 7.5 -74s-2.5 -48.667 -7.5 -74s-13.5 -48.166 -25.5 -68.499s-27.5 -37 -46.5 -50s-42.5 -19.5 -70.5 -19.5
s-51.667 6.5 -71 19.5s-34.833 29.667 -46.5 50s-20.167 43.166 -25.5 68.499s-8 50 -8 74zM278.002 714.002l-126.994 -49c-14 -5.33301 -22.333 -11.5 -25 -18.5s-4 -13.167 -4 -18.5c0 -7.33301 2.66699 -14.166 8 -20.499s12.666 -9.5 21.999 -9.5
c5.33301 0 10.166 0.5 14.499 1.5s8.16602 2.16699 11.499 3.5l100 45l100 -45c3.33301 -1.33301 7.16602 -2.5 11.499 -3.5s9.16602 -1.5 14.499 -1.5c9.33301 0 16.666 3.16699 21.999 9.5s8 13.166 8 20.499c0 5.33301 -1.33301 11.5 -4 18.5s-11 13.167 -25 18.5z" />
    <glyph glyph-name="atilde" unicode="&#x2039;" horiz-adv-x="556" 
d="M418 459l-2.99805 0.00195312c-20.667 26.667 -42.834 46.5 -66.501 59.5s-51.167 19.5 -82.5 19.5c-38.667 0 -72.167 -7.83301 -100.5 -23.5s-51.833 -36.334 -70.5 -62.001s-32.667 -54.834 -42 -87.501s-14 -65.667 -14 -99c0 -37.333 4.83301 -72.5 14.5 -105.5
s24 -61.833 43 -86.5s42.833 -44.167 71.5 -58.5s62 -21.5 100 -21.5c31.333 0 59.666 6.66699 84.999 20s46 33 62 59h3v-33c0 -30.667 12 -46 36 -46s36 15.333 36 46v452c0 30.667 -12 46 -36 46s-36 -15.333 -36 -46v-33zM117.002 266.002c0 24 2.83301 48.667 8.5 74
s14.5 48.166 26.5 68.499s27.5 37 46.5 50s42.167 19.5 69.5 19.5c28 0 51.5 -6.5 70.5 -19.5s34.5 -29.667 46.5 -50s20.5 -43.166 25.5 -68.499s7.5 -50 7.5 -74s-2.5 -48.667 -7.5 -74s-13.5 -48.166 -25.5 -68.499s-27.5 -37 -46.5 -50s-42.5 -19.5 -70.5 -19.5
s-51.667 6.5 -71 19.5s-34.833 29.667 -46.5 50s-20.167 43.166 -25.5 68.499s-8 50 -8 74zM218.002 640.002c10 0 20.167 -1.33398 30.5 -4.00098s20.666 -5.66699 30.999 -9s20.666 -6.33301 30.999 -9s20.833 -4 31.5 -4s20.834 1.83301 30.501 5.5
s18.167 8.16699 25.5 13.5s13.166 11.333 17.499 18s6.5 13.334 6.5 20.001c0 22 -9.66699 33 -29 33c-6 0 -11 -1.33301 -15 -4s-7.83301 -5.5 -11.5 -8.5s-7.66699 -5.83301 -12 -8.5s-9.83301 -4 -16.5 -4c-10 0 -20.167 1.33301 -30.5 4
s-20.666 5.83398 -30.999 9.50098s-20.666 6.83398 -30.999 9.50098s-20.833 4 -31.5 4s-20.834 -1.83301 -30.501 -5.5s-18.167 -8.33398 -25.5 -14.001s-13.166 -12.334 -17.499 -20.001s-6.5 -15.5 -6.5 -23.5c0 -18 9.66699 -27 29 -27c6 0 11 1.33301 15 4
s7.83301 5.5 11.5 8.5s7.66699 5.66699 12 8s9.83301 3.5 16.5 3.5z" />
    <glyph glyph-name="otilde" unicode="&#x203a;" horiz-adv-x="536" 
d="M117 266c0 24 2.66699 48.667 8 74s13.833 48.166 25.5 68.499s27.167 37 46.5 50s43 19.5 71 19.5s51.667 -6.5 71 -19.5s34.833 -29.667 46.5 -50s20.167 -43.166 25.5 -68.499s8 -50 8 -74s-2.66699 -48.667 -8 -74s-13.833 -48.166 -25.5 -68.499
s-27.167 -37 -46.5 -50s-43 -19.5 -71 -19.5s-51.667 6.5 -71 19.5s-34.833 29.667 -46.5 50s-20.167 43.166 -25.5 68.499s-8 50 -8 74zM497 266c0 33.333 -4.5 66.333 -13.5 99s-23 61.834 -42 87.501s-42.833 46.334 -71.5 62.001s-62.667 23.5 -102 23.5
c-38.667 0 -72.5 -7.83301 -101.5 -23.5s-52.833 -36.334 -71.5 -62.001s-32.667 -54.834 -42 -87.501s-14 -65.667 -14 -99c0 -37.333 4.83301 -72.5 14.5 -105.5s24 -61.833 43 -86.5s42.833 -44.167 71.5 -58.5s62 -21.5 100 -21.5s71.333 7.16699 100 21.5
s52.5 33.833 71.5 58.5s33.333 53.5 43 86.5s14.5 68.167 14.5 105.5zM208 640c10 0 20.167 -1.33398 30.5 -4.00098s20.666 -5.66699 30.999 -9s20.666 -6.33301 30.999 -9s20.833 -4 31.5 -4s20.834 1.83301 30.501 5.5s18.167 8.16699 25.5 13.5s13.166 11.333 17.499 18
s6.5 13.334 6.5 20.001c0 22 -9.66699 33 -29 33c-6 0 -11 -1.33301 -15 -4s-7.83301 -5.5 -11.5 -8.5s-7.66699 -5.83301 -12 -8.5s-9.83301 -4 -16.5 -4c-10 0 -20.167 1.33301 -30.5 4s-20.666 5.83398 -30.999 9.50098s-20.666 6.83398 -30.999 9.50098
s-20.833 4 -31.5 4s-20.834 -1.83301 -30.501 -5.5s-18.167 -8.33398 -25.5 -14.001s-13.166 -12.334 -17.499 -20.001s-6.5 -15.5 -6.5 -23.5c0 -18 9.66699 -27 29 -27c6 0 11 1.33301 15 4s7.83301 5.5 11.5 8.5s7.66699 5.66699 12 8s9.83301 3.5 16.5 3.5z" />
    <glyph glyph-name="ocircumflex" unicode="&#x2122;" horiz-adv-x="536" 
d="M117 266c0 24 2.66699 48.667 8 74s13.833 48.166 25.5 68.499s27.167 37 46.5 50s43 19.5 71 19.5s51.667 -6.5 71 -19.5s34.833 -29.667 46.5 -50s20.167 -43.166 25.5 -68.499s8 -50 8 -74s-2.66699 -48.667 -8 -74s-13.833 -48.166 -25.5 -68.499
s-27.167 -37 -46.5 -50s-43 -19.5 -71 -19.5s-51.667 6.5 -71 19.5s-34.833 29.667 -46.5 50s-20.167 43.166 -25.5 68.499s-8 50 -8 74zM497 266c0 33.333 -4.5 66.333 -13.5 99s-23 61.834 -42 87.501s-42.833 46.334 -71.5 62.001s-62.667 23.5 -102 23.5
c-38.667 0 -72.5 -7.83301 -101.5 -23.5s-52.833 -36.334 -71.5 -62.001s-32.667 -54.834 -42 -87.501s-14 -65.667 -14 -99c0 -37.333 4.83301 -72.5 14.5 -105.5s24 -61.833 43 -86.5s42.833 -44.167 71.5 -58.5s62 -21.5 100 -21.5s71.333 7.16699 100 21.5
s52.5 33.833 71.5 58.5s33.333 53.5 43 86.5s14.5 68.167 14.5 105.5zM268 714l-126.994 -49c-14 -5.33301 -22.333 -11.5 -25 -18.5s-4 -13.167 -4 -18.5c0 -7.33301 2.66699 -14.166 8 -20.499s12.666 -9.5 21.999 -9.5c5.33301 0 10.166 0.5 14.499 1.5
s8.16602 2.16699 11.499 3.5l100 45l100 -45c3.33301 -1.33301 7.16602 -2.5 11.499 -3.5s9.16602 -1.5 14.499 -1.5c9.33301 0 16.666 3.16699 21.999 9.5s8 13.166 8 20.499c0 5.33301 -1.33301 11.5 -4 18.5s-11 13.167 -25 18.5z" />
    <glyph glyph-name=".null" horiz-adv-x="0" 
 />
    <glyph glyph-name="nonmarkingreturn" horiz-adv-x="500" 
 />
  </font>
</defs>
</svg>
